  0
SECTION
  2
HEADER
  9
$ACADVER
  1
AC1009
  9
$EXTMIN
 10
0.0
 20
0.0
 30
0.0
  9
$EXTMAX
 10
1000.0
 20
1000.0
 30
0.0
  9
$FILLMODE
 70
 0
  9
$SPLFRAME
 70
 1
  0
ENDSEC
  0
SECTION
  2
TABLES
  0
TABLE
  2
LAYER
 70
1
  0
LAYER
  2
0
 70
     0
 62
     7
  6
CONTINUOUS
  0
ENDTAB
  0
ENDSEC
  0
SECTION
  2
ENTITIES
  0
LINE
  8
0
 62
     5
 10
421.019
 20
109.874
 30
0.0
 11
421.206
 21
109.867
 31
0.0
  0
LINE
  8
0
 62
     5
 10
421.206
 20
109.867
 30
0.0
 11
421.393
 21
109.845
 31
0.0
  0
LINE
  8
0
 62
     5
 10
421.393
 20
109.845
 30
0.0
 11
421.577
 21
109.809
 31
0.0
  0
LINE
  8
0
 62
     5
 10
421.577
 20
109.809
 30
0.0
 11
421.753
 21
109.758
 31
0.0
  0
LINE
  8
0
 62
     5
 10
421.753
 20
109.758
 30
0.0
 11
421.929
 21
109.694
 31
0.0
  0
LINE
  8
0
 62
     5
 10
421.929
 20
109.694
 30
0.0
 11
422.099
 21
109.616
 31
0.0
  0
LINE
  8
0
 62
     5
 10
422.099
 20
109.616
 30
0.0
 11
422.261
 21
109.525
 31
0.0
  0
LINE
  8
0
 62
     5
 10
422.261
 20
109.525
 30
0.0
 11
422.416
 21
109.422
 31
0.0
  0
LINE
  8
0
 62
     5
 10
422.416
 20
109.422
 30
0.0
 11
422.564
 21
109.305
 31
0.0
  0
LINE
  8
0
 62
     5
 10
422.564
 20
109.305
 30
0.0
 11
422.698
 21
109.179
 31
0.0
  0
LINE
  8
0
 62
     5
 10
422.698
 20
109.179
 30
0.0
 11
422.825
 21
109.041
 31
0.0
  0
LINE
  8
0
 62
     5
 10
422.825
 20
109.041
 30
0.0
 11
422.942
 21
108.895
 31
0.0
  0
LINE
  8
0
 62
     5
 10
422.942
 20
108.895
 30
0.0
 11
423.044
 21
108.74
 31
0.0
  0
LINE
  8
0
 62
     5
 10
423.044
 20
108.74
 30
0.0
 11
423.136
 21
108.578
 31
0.0
  0
LINE
  8
0
 62
     5
 10
423.136
 20
108.578
 30
0.0
 11
423.213
 21
108.408
 31
0.0
  0
LINE
  8
0
 62
     5
 10
423.213
 20
108.408
 30
0.0
 11
423.277
 21
108.233
 31
0.0
  0
LINE
  8
0
 62
     5
 10
423.277
 20
108.233
 30
0.0
 11
423.33
 21
108.055
 31
0.0
  0
LINE
  8
0
 62
     5
 10
423.33
 20
108.055
 30
0.0
 11
423.365
 21
107.871
 31
0.0
  0
LINE
  8
0
 62
     5
 10
423.365
 20
107.871
 30
0.0
 11
423.386
 21
107.685
 31
0.0
  0
LINE
  8
0
 62
     5
 10
423.386
 20
107.685
 30
0.0
 11
423.397
 21
107.5
 31
0.0
  0
LINE
  8
0
 62
     5
 10
423.397
 20
107.5
 30
0.0
 11
423.397
 21
2.4474
 31
0.0
  0
LINE
  8
0
 62
     5
 10
423.397
 20
2.4474
 30
0.0
 11
423.386
 21
2.26274
 31
0.0
  0
LINE
  8
0
 62
     5
 10
423.386
 20
2.26274
 30
0.0
 11
423.365
 21
2.0767
 31
0.0
  0
LINE
  8
0
 62
     5
 10
423.365
 20
2.0767
 30
0.0
 11
423.33
 21
1.89343
 31
0.0
  0
LINE
  8
0
 62
     5
 10
423.33
 20
1.89343
 30
0.0
 11
423.277
 21
1.71566
 31
0.0
  0
LINE
  8
0
 62
     5
 10
423.277
 20
1.71566
 30
0.0
 11
423.213
 21
1.54065
 31
0.0
  0
LINE
  8
0
 62
     5
 10
423.213
 20
1.54065
 30
0.0
 11
423.136
 21
1.36977
 31
0.0
  0
LINE
  8
0
 62
     5
 10
423.136
 20
1.36977
 30
0.0
 11
423.044
 21
1.20854
 31
0.0
  0
LINE
  8
0
 62
     5
 10
423.044
 20
1.20854
 30
0.0
 11
422.942
 21
1.05282
 31
0.0
  0
LINE
  8
0
 62
     5
 10
422.942
 20
1.05282
 30
0.0
 11
422.825
 21
0.906748
 31
0.0
  0
LINE
  8
0
 62
     5
 10
422.825
 20
0.906748
 30
0.0
 11
422.698
 21
0.768946
 31
0.0
  0
LINE
  8
0
 62
     5
 10
422.698
 20
0.768946
 30
0.0
 11
422.564
 21
0.643544
 31
0.0
  0
LINE
  8
0
 62
     5
 10
422.564
 20
0.643544
 30
0.0
 11
422.416
 21
0.526411
 31
0.0
  0
LINE
  8
0
 62
     5
 10
422.416
 20
0.526411
 30
0.0
 11
422.261
 21
0.423058
 31
0.0
  0
LINE
  8
0
 62
     5
 10
422.261
 20
0.423058
 30
0.0
 11
422.099
 21
0.332107
 31
0.0
  0
LINE
  8
0
 62
     5
 10
422.099
 20
0.332107
 30
0.0
 11
421.929
 21
0.253559
 31
0.0
  0
LINE
  8
0
 62
     5
 10
421.929
 20
0.253559
 30
0.0
 11
421.753
 21
0.190169
 31
0.0
  0
LINE
  8
0
 62
     5
 10
421.753
 20
0.190169
 30
0.0
 11
421.577
 21
0.139182
 31
0.0
  0
LINE
  8
0
 62
     5
 10
421.577
 20
0.139182
 30
0.0
 11
421.393
 21
0.103353
 31
0.0
  0
LINE
  8
0
 62
     5
 10
421.393
 20
0.103353
 30
0.0
 11
421.206
 21
0.0813043
 31
0.0
  0
LINE
  8
0
 62
     5
 10
421.206
 20
0.0813043
 30
0.0
 11
421.019
 21
0.0730359
 31
0.0
  0
LINE
  8
0
 62
     5
 10
421.019
 20
0.0730359
 30
0.0
 11
2.46944
 21
0.0730359
 31
0.0
  0
LINE
  8
0
 62
     5
 10
2.46944
 20
0.0730359
 30
0.0
 11
2.28341
 21
0.0813043
 31
0.0
  0
LINE
  8
0
 62
     5
 10
2.28341
 20
0.0813043
 30
0.0
 11
2.09737
 21
0.103353
 31
0.0
  0
LINE
  8
0
 62
     5
 10
2.09737
 20
0.103353
 30
0.0
 11
1.91409
 21
0.139182
 31
0.0
  0
LINE
  8
0
 62
     5
 10
1.91409
 20
0.139182
 30
0.0
 11
1.73633
 21
0.190169
 31
0.0
  0
LINE
  8
0
 62
     5
 10
1.73633
 20
0.190169
 30
0.0
 11
1.56132
 21
0.253559
 31
0.0
  0
LINE
  8
0
 62
     5
 10
1.56132
 20
0.253559
 30
0.0
 11
1.39044
 21
0.332107
 31
0.0
  0
LINE
  8
0
 62
     5
 10
1.39044
 20
0.332107
 30
0.0
 11
1.22921
 21
0.423058
 31
0.0
  0
LINE
  8
0
 62
     5
 10
1.22921
 20
0.423058
 30
0.0
 11
1.07349
 21
0.526411
 31
0.0
  0
LINE
  8
0
 62
     5
 10
1.07349
 20
0.526411
 30
0.0
 11
0.927421
 21
0.643544
 31
0.0
  0
LINE
  8
0
 62
     5
 10
0.927421
 20
0.643544
 30
0.0
 11
0.789615
 21
0.768946
 31
0.0
  0
LINE
  8
0
 62
     5
 10
0.789615
 20
0.768946
 30
0.0
 11
0.664214
 21
0.906748
 31
0.0
  0
LINE
  8
0
 62
     5
 10
0.664214
 20
0.906748
 30
0.0
 11
0.547081
 21
1.05282
 31
0.0
  0
LINE
  8
0
 62
     5
 10
0.547081
 20
1.05282
 30
0.0
 11
0.443727
 21
1.20854
 31
0.0
  0
LINE
  8
0
 62
     5
 10
0.443727
 20
1.20854
 30
0.0
 11
0.352778
 21
1.36977
 31
0.0
  0
LINE
  8
0
 62
     5
 10
0.352778
 20
1.36977
 30
0.0
 11
0.27423
 21
1.54065
 31
0.0
  0
LINE
  8
0
 62
     5
 10
0.27423
 20
1.54065
 30
0.0
 11
0.21084
 21
1.71566
 31
0.0
  0
LINE
  8
0
 62
     5
 10
0.21084
 20
1.71566
 30
0.0
 11
0.159852
 21
1.89343
 31
0.0
  0
LINE
  8
0
 62
     5
 10
0.159852
 20
1.89343
 30
0.0
 11
0.124024
 21
2.0767
 31
0.0
  0
LINE
  8
0
 62
     5
 10
0.124024
 20
2.0767
 30
0.0
 11
0.101975
 21
2.26274
 31
0.0
  0
LINE
  8
0
 62
     5
 10
0.101975
 20
2.26274
 30
0.0
 11
0.0937066
 21
2.44878
 31
0.0
  0
LINE
  8
0
 62
     5
 10
0.0937066
 20
2.44878
 30
0.0
 11
0.0950846
 21
107.5
 31
0.0
  0
LINE
  8
0
 62
     5
 10
0.0950846
 20
107.5
 30
0.0
 11
0.101975
 21
107.685
 31
0.0
  0
LINE
  8
0
 62
     5
 10
0.101975
 20
107.685
 30
0.0
 11
0.124024
 21
107.871
 31
0.0
  0
LINE
  8
0
 62
     5
 10
0.124024
 20
107.871
 30
0.0
 11
0.159852
 21
108.055
 31
0.0
  0
LINE
  8
0
 62
     5
 10
0.159852
 20
108.055
 30
0.0
 11
0.21084
 21
108.233
 31
0.0
  0
LINE
  8
0
 62
     5
 10
0.21084
 20
108.233
 30
0.0
 11
0.27423
 21
108.408
 31
0.0
  0
LINE
  8
0
 62
     5
 10
0.27423
 20
108.408
 30
0.0
 11
0.352778
 21
108.578
 31
0.0
  0
LINE
  8
0
 62
     5
 10
0.352778
 20
108.578
 30
0.0
 11
0.443727
 21
108.74
 31
0.0
  0
LINE
  8
0
 62
     5
 10
0.443727
 20
108.74
 30
0.0
 11
0.547081
 21
108.895
 31
0.0
  0
LINE
  8
0
 62
     5
 10
0.547081
 20
108.895
 30
0.0
 11
0.664214
 21
109.041
 31
0.0
  0
LINE
  8
0
 62
     5
 10
0.664214
 20
109.041
 30
0.0
 11
0.789615
 21
109.179
 31
0.0
  0
LINE
  8
0
 62
     5
 10
0.789615
 20
109.179
 30
0.0
 11
0.927421
 21
109.305
 31
0.0
  0
LINE
  8
0
 62
     5
 10
0.927421
 20
109.305
 30
0.0
 11
1.07349
 21
109.422
 31
0.0
  0
LINE
  8
0
 62
     5
 10
1.07349
 20
109.422
 30
0.0
 11
1.22921
 21
109.525
 31
0.0
  0
LINE
  8
0
 62
     5
 10
1.22921
 20
109.525
 30
0.0
 11
1.39044
 21
109.616
 31
0.0
  0
LINE
  8
0
 62
     5
 10
1.39044
 20
109.616
 30
0.0
 11
1.56132
 21
109.694
 31
0.0
  0
LINE
  8
0
 62
     5
 10
1.56132
 20
109.694
 30
0.0
 11
1.73633
 21
109.758
 31
0.0
  0
LINE
  8
0
 62
     5
 10
1.73633
 20
109.758
 30
0.0
 11
1.91409
 21
109.809
 31
0.0
  0
LINE
  8
0
 62
     5
 10
1.91409
 20
109.809
 30
0.0
 11
2.09737
 21
109.845
 31
0.0
  0
LINE
  8
0
 62
     5
 10
2.09737
 20
109.845
 30
0.0
 11
2.28341
 21
109.867
 31
0.0
  0
LINE
  8
0
 62
     5
 10
2.28341
 20
109.867
 30
0.0
 11
2.46944
 21
109.875
 31
0.0
  0
LINE
  8
0
 62
     5
 10
2.46944
 20
109.875
 30
0.0
 11
421.019
 21
109.874
 31
0.0
  0
LINE
  8
0
 62
     5
 10
419.255
 20
5.33852
 30
0.0
 11
418.765
 21
5.0891
 31
0.0
  0
LINE
  8
0
 62
     5
 10
418.765
 20
5.0891
 30
0.0
 11
418.38
 21
4.70186
 31
0.0
  0
LINE
  8
0
 62
     5
 10
418.38
 20
4.70186
 30
0.0
 11
418.13
 21
4.21404
 31
0.0
  0
LINE
  8
0
 62
     5
 10
418.13
 20
4.21404
 30
0.0
 11
418.045
 21
3.67249
 31
0.0
  0
LINE
  8
0
 62
     5
 10
418.045
 20
3.67249
 30
0.0
 11
418.13
 21
3.13366
 31
0.0
  0
LINE
  8
0
 62
     5
 10
418.13
 20
3.13366
 30
0.0
 11
418.38
 21
2.64445
 31
0.0
  0
LINE
  8
0
 62
     5
 10
418.38
 20
2.64445
 30
0.0
 11
418.765
 21
2.2586
 31
0.0
  0
LINE
  8
0
 62
     5
 10
418.765
 20
2.2586
 30
0.0
 11
419.255
 21
2.00918
 31
0.0
  0
LINE
  8
0
 62
     5
 10
419.255
 20
2.00918
 30
0.0
 11
419.795
 21
1.92374
 31
0.0
  0
LINE
  8
0
 62
     5
 10
419.795
 20
1.92374
 30
0.0
 11
420.335
 21
2.00918
 31
0.0
  0
LINE
  8
0
 62
     5
 10
420.335
 20
2.00918
 30
0.0
 11
420.825
 21
2.2586
 31
0.0
  0
LINE
  8
0
 62
     5
 10
420.825
 20
2.2586
 30
0.0
 11
421.21
 21
2.64445
 31
0.0
  0
LINE
  8
0
 62
     5
 10
421.21
 20
2.64445
 30
0.0
 11
421.46
 21
3.13366
 31
0.0
  0
LINE
  8
0
 62
     5
 10
421.46
 20
3.13366
 30
0.0
 11
421.545
 21
3.67249
 31
0.0
  0
LINE
  8
0
 62
     5
 10
421.545
 20
3.67249
 30
0.0
 11
421.46
 21
4.21404
 31
0.0
  0
LINE
  8
0
 62
     5
 10
421.46
 20
4.21404
 30
0.0
 11
421.21
 21
4.70186
 31
0.0
  0
LINE
  8
0
 62
     5
 10
421.21
 20
4.70186
 30
0.0
 11
420.825
 21
5.0891
 31
0.0
  0
LINE
  8
0
 62
     5
 10
420.825
 20
5.0891
 30
0.0
 11
420.335
 21
5.33852
 31
0.0
  0
LINE
  8
0
 62
     5
 10
420.335
 20
5.33852
 30
0.0
 11
419.795
 21
5.42258
 31
0.0
  0
LINE
  8
0
 62
     5
 10
419.795
 20
5.42258
 30
0.0
 11
419.255
 21
5.33852
 31
0.0
  0
LINE
  8
0
 62
     5
 10
211.204
 20
5.33852
 30
0.0
 11
210.716
 21
5.0891
 31
0.0
  0
LINE
  8
0
 62
     5
 10
210.716
 20
5.0891
 30
0.0
 11
210.329
 21
4.70186
 31
0.0
  0
LINE
  8
0
 62
     5
 10
210.329
 20
4.70186
 30
0.0
 11
210.081
 21
4.21404
 31
0.0
  0
LINE
  8
0
 62
     5
 10
210.081
 20
4.21404
 30
0.0
 11
209.995
 21
3.67249
 31
0.0
  0
LINE
  8
0
 62
     5
 10
209.995
 20
3.67249
 30
0.0
 11
210.081
 21
3.13366
 31
0.0
  0
LINE
  8
0
 62
     5
 10
210.081
 20
3.13366
 30
0.0
 11
210.329
 21
2.64445
 31
0.0
  0
LINE
  8
0
 62
     5
 10
210.329
 20
2.64445
 30
0.0
 11
210.716
 21
2.2586
 31
0.0
  0
LINE
  8
0
 62
     5
 10
210.716
 20
2.2586
 30
0.0
 11
211.204
 21
2.00918
 31
0.0
  0
LINE
  8
0
 62
     5
 10
211.204
 20
2.00918
 30
0.0
 11
211.745
 21
1.92374
 31
0.0
  0
LINE
  8
0
 62
     5
 10
211.745
 20
1.92374
 30
0.0
 11
212.285
 21
2.00918
 31
0.0
  0
LINE
  8
0
 62
     5
 10
212.285
 20
2.00918
 30
0.0
 11
212.773
 21
2.2586
 31
0.0
  0
LINE
  8
0
 62
     5
 10
212.773
 20
2.2586
 30
0.0
 11
213.16
 21
2.64445
 31
0.0
  0
LINE
  8
0
 62
     5
 10
213.16
 20
2.64445
 30
0.0
 11
213.409
 21
3.13366
 31
0.0
  0
LINE
  8
0
 62
     5
 10
213.409
 20
3.13366
 30
0.0
 11
213.495
 21
3.67249
 31
0.0
  0
LINE
  8
0
 62
     5
 10
213.495
 20
3.67249
 30
0.0
 11
213.409
 21
4.21404
 31
0.0
  0
LINE
  8
0
 62
     5
 10
213.409
 20
4.21404
 30
0.0
 11
213.16
 21
4.70186
 31
0.0
  0
LINE
  8
0
 62
     5
 10
213.16
 20
4.70186
 30
0.0
 11
212.773
 21
5.0891
 31
0.0
  0
LINE
  8
0
 62
     5
 10
212.773
 20
5.0891
 30
0.0
 11
212.285
 21
5.33852
 31
0.0
  0
LINE
  8
0
 62
     5
 10
212.285
 20
5.33852
 30
0.0
 11
211.745
 21
5.42258
 31
0.0
  0
LINE
  8
0
 62
     5
 10
211.745
 20
5.42258
 30
0.0
 11
211.204
 21
5.33852
 31
0.0
  0
LINE
  8
0
 62
     5
 10
3.15295
 20
5.33852
 30
0.0
 11
2.66513
 21
5.0891
 31
0.0
  0
LINE
  8
0
 62
     5
 10
2.66513
 20
5.0891
 30
0.0
 11
2.27928
 21
4.70186
 31
0.0
  0
LINE
  8
0
 62
     5
 10
2.27928
 20
4.70186
 30
0.0
 11
2.02985
 21
4.21404
 31
0.0
  0
LINE
  8
0
 62
     5
 10
2.02985
 20
4.21404
 30
0.0
 11
1.94441
 21
3.67249
 31
0.0
  0
LINE
  8
0
 62
     5
 10
1.94441
 20
3.67249
 30
0.0
 11
2.02985
 21
3.13366
 31
0.0
  0
LINE
  8
0
 62
     5
 10
2.02985
 20
3.13366
 30
0.0
 11
2.27928
 21
2.64445
 31
0.0
  0
LINE
  8
0
 62
     5
 10
2.27928
 20
2.64445
 30
0.0
 11
2.66513
 21
2.2586
 31
0.0
  0
LINE
  8
0
 62
     5
 10
2.66513
 20
2.2586
 30
0.0
 11
3.15295
 21
2.00918
 31
0.0
  0
LINE
  8
0
 62
     5
 10
3.15295
 20
2.00918
 30
0.0
 11
3.69316
 21
1.92374
 31
0.0
  0
LINE
  8
0
 62
     5
 10
3.69316
 20
1.92374
 30
0.0
 11
4.23471
 21
2.00918
 31
0.0
  0
LINE
  8
0
 62
     5
 10
4.23471
 20
2.00918
 30
0.0
 11
4.72253
 21
2.2586
 31
0.0
  0
LINE
  8
0
 62
     5
 10
4.72253
 20
2.2586
 30
0.0
 11
5.10977
 21
2.64445
 31
0.0
  0
LINE
  8
0
 62
     5
 10
5.10977
 20
2.64445
 30
0.0
 11
5.35919
 21
3.13366
 31
0.0
  0
LINE
  8
0
 62
     5
 10
5.35919
 20
3.13366
 30
0.0
 11
5.44326
 21
3.67249
 31
0.0
  0
LINE
  8
0
 62
     5
 10
5.44326
 20
3.67249
 30
0.0
 11
5.35919
 21
4.21404
 31
0.0
  0
LINE
  8
0
 62
     5
 10
5.35919
 20
4.21404
 30
0.0
 11
5.10977
 21
4.70186
 31
0.0
  0
LINE
  8
0
 62
     5
 10
5.10977
 20
4.70186
 30
0.0
 11
4.72253
 21
5.0891
 31
0.0
  0
LINE
  8
0
 62
     5
 10
4.72253
 20
5.0891
 30
0.0
 11
4.23471
 21
5.33852
 31
0.0
  0
LINE
  8
0
 62
     5
 10
4.23471
 20
5.33852
 30
0.0
 11
3.69316
 21
5.42258
 31
0.0
  0
LINE
  8
0
 62
     5
 10
3.69316
 20
5.42258
 30
0.0
 11
3.15295
 21
5.33852
 31
0.0
  0
LINE
  8
0
 62
     5
 10
211.204
 20
107.939
 30
0.0
 11
210.716
 21
107.69
 31
0.0
  0
LINE
  8
0
 62
     5
 10
210.716
 20
107.69
 30
0.0
 11
210.329
 21
107.304
 31
0.0
  0
LINE
  8
0
 62
     5
 10
210.329
 20
107.304
 30
0.0
 11
210.081
 21
106.816
 31
0.0
  0
LINE
  8
0
 62
     5
 10
210.081
 20
106.816
 30
0.0
 11
209.995
 21
106.274
 31
0.0
  0
LINE
  8
0
 62
     5
 10
209.995
 20
106.274
 30
0.0
 11
210.081
 21
105.734
 31
0.0
  0
LINE
  8
0
 62
     5
 10
210.081
 20
105.734
 30
0.0
 11
210.329
 21
105.246
 31
0.0
  0
LINE
  8
0
 62
     5
 10
210.329
 20
105.246
 30
0.0
 11
210.716
 21
104.859
 31
0.0
  0
LINE
  8
0
 62
     5
 10
210.716
 20
104.859
 30
0.0
 11
211.204
 21
104.61
 31
0.0
  0
LINE
  8
0
 62
     5
 10
211.204
 20
104.61
 30
0.0
 11
211.745
 21
104.524
 31
0.0
  0
LINE
  8
0
 62
     5
 10
211.745
 20
104.524
 30
0.0
 11
212.285
 21
104.61
 31
0.0
  0
LINE
  8
0
 62
     5
 10
212.285
 20
104.61
 30
0.0
 11
212.773
 21
104.859
 31
0.0
  0
LINE
  8
0
 62
     5
 10
212.773
 20
104.859
 30
0.0
 11
213.16
 21
105.246
 31
0.0
  0
LINE
  8
0
 62
     5
 10
213.16
 20
105.246
 30
0.0
 11
213.409
 21
105.734
 31
0.0
  0
LINE
  8
0
 62
     5
 10
213.409
 20
105.734
 30
0.0
 11
213.495
 21
106.274
 31
0.0
  0
LINE
  8
0
 62
     5
 10
213.495
 20
106.274
 30
0.0
 11
213.409
 21
106.816
 31
0.0
  0
LINE
  8
0
 62
     5
 10
213.409
 20
106.816
 30
0.0
 11
213.16
 21
107.304
 31
0.0
  0
LINE
  8
0
 62
     5
 10
213.16
 20
107.304
 30
0.0
 11
212.773
 21
107.69
 31
0.0
  0
LINE
  8
0
 62
     5
 10
212.773
 20
107.69
 30
0.0
 11
212.285
 21
107.939
 31
0.0
  0
LINE
  8
0
 62
     5
 10
212.285
 20
107.939
 30
0.0
 11
211.745
 21
108.024
 31
0.0
  0
LINE
  8
0
 62
     5
 10
211.745
 20
108.024
 30
0.0
 11
211.204
 21
107.939
 31
0.0
  0
LINE
  8
0
 62
     5
 10
419.255
 20
107.939
 30
0.0
 11
418.765
 21
107.69
 31
0.0
  0
LINE
  8
0
 62
     5
 10
418.765
 20
107.69
 30
0.0
 11
418.38
 21
107.304
 31
0.0
  0
LINE
  8
0
 62
     5
 10
418.38
 20
107.304
 30
0.0
 11
418.13
 21
106.816
 31
0.0
  0
LINE
  8
0
 62
     5
 10
418.13
 20
106.816
 30
0.0
 11
418.045
 21
106.274
 31
0.0
  0
LINE
  8
0
 62
     5
 10
418.045
 20
106.274
 30
0.0
 11
418.13
 21
105.734
 31
0.0
  0
LINE
  8
0
 62
     5
 10
418.13
 20
105.734
 30
0.0
 11
418.38
 21
105.246
 31
0.0
  0
LINE
  8
0
 62
     5
 10
418.38
 20
105.246
 30
0.0
 11
418.765
 21
104.859
 31
0.0
  0
LINE
  8
0
 62
     5
 10
418.765
 20
104.859
 30
0.0
 11
419.255
 21
104.61
 31
0.0
  0
LINE
  8
0
 62
     5
 10
419.255
 20
104.61
 30
0.0
 11
419.795
 21
104.524
 31
0.0
  0
LINE
  8
0
 62
     5
 10
419.795
 20
104.524
 30
0.0
 11
420.335
 21
104.61
 31
0.0
  0
LINE
  8
0
 62
     5
 10
420.335
 20
104.61
 30
0.0
 11
420.825
 21
104.859
 31
0.0
  0
LINE
  8
0
 62
     5
 10
420.825
 20
104.859
 30
0.0
 11
421.21
 21
105.246
 31
0.0
  0
LINE
  8
0
 62
     5
 10
421.21
 20
105.246
 30
0.0
 11
421.46
 21
105.734
 31
0.0
  0
LINE
  8
0
 62
     5
 10
421.46
 20
105.734
 30
0.0
 11
421.545
 21
106.274
 31
0.0
  0
LINE
  8
0
 62
     5
 10
421.545
 20
106.274
 30
0.0
 11
421.46
 21
106.816
 31
0.0
  0
LINE
  8
0
 62
     5
 10
421.46
 20
106.816
 30
0.0
 11
421.21
 21
107.304
 31
0.0
  0
LINE
  8
0
 62
     5
 10
421.21
 20
107.304
 30
0.0
 11
420.825
 21
107.69
 31
0.0
  0
LINE
  8
0
 62
     5
 10
420.825
 20
107.69
 30
0.0
 11
420.335
 21
107.939
 31
0.0
  0
LINE
  8
0
 62
     5
 10
420.335
 20
107.939
 30
0.0
 11
419.795
 21
108.024
 31
0.0
  0
LINE
  8
0
 62
     5
 10
419.795
 20
108.024
 30
0.0
 11
419.255
 21
107.939
 31
0.0
  0
LINE
  8
0
 62
     5
 10
3.15295
 20
107.939
 30
0.0
 11
2.66513
 21
107.69
 31
0.0
  0
LINE
  8
0
 62
     5
 10
2.66513
 20
107.69
 30
0.0
 11
2.27928
 21
107.304
 31
0.0
  0
LINE
  8
0
 62
     5
 10
2.27928
 20
107.304
 30
0.0
 11
2.02985
 21
106.816
 31
0.0
  0
LINE
  8
0
 62
     5
 10
2.02985
 20
106.816
 30
0.0
 11
1.94441
 21
106.276
 31
0.0
  0
LINE
  8
0
 62
     5
 10
1.94441
 20
106.276
 30
0.0
 11
2.02985
 21
105.734
 31
0.0
  0
LINE
  8
0
 62
     5
 10
2.02985
 20
105.734
 30
0.0
 11
2.27928
 21
105.246
 31
0.0
  0
LINE
  8
0
 62
     5
 10
2.27928
 20
105.246
 30
0.0
 11
2.66513
 21
104.859
 31
0.0
  0
LINE
  8
0
 62
     5
 10
2.66513
 20
104.859
 30
0.0
 11
3.15295
 21
104.61
 31
0.0
  0
LINE
  8
0
 62
     5
 10
3.15295
 20
104.61
 30
0.0
 11
3.69316
 21
104.526
 31
0.0
  0
LINE
  8
0
 62
     5
 10
3.69316
 20
104.526
 30
0.0
 11
4.23471
 21
104.61
 31
0.0
  0
LINE
  8
0
 62
     5
 10
4.23471
 20
104.61
 30
0.0
 11
4.72253
 21
104.859
 31
0.0
  0
LINE
  8
0
 62
     5
 10
4.72253
 20
104.859
 30
0.0
 11
5.10977
 21
105.246
 31
0.0
  0
LINE
  8
0
 62
     5
 10
5.10977
 20
105.246
 30
0.0
 11
5.35919
 21
105.734
 31
0.0
  0
LINE
  8
0
 62
     5
 10
5.35919
 20
105.734
 30
0.0
 11
5.44326
 21
106.276
 31
0.0
  0
LINE
  8
0
 62
     5
 10
5.44326
 20
106.276
 30
0.0
 11
5.35919
 21
106.816
 31
0.0
  0
LINE
  8
0
 62
     5
 10
5.35919
 20
106.816
 30
0.0
 11
5.10977
 21
107.304
 31
0.0
  0
LINE
  8
0
 62
     5
 10
5.10977
 20
107.304
 30
0.0
 11
4.72253
 21
107.69
 31
0.0
  0
LINE
  8
0
 62
     5
 10
4.72253
 20
107.69
 30
0.0
 11
4.23471
 21
107.939
 31
0.0
  0
LINE
  8
0
 62
     5
 10
4.23471
 20
107.939
 30
0.0
 11
3.69316
 21
108.024
 31
0.0
  0
LINE
  8
0
 62
     5
 10
3.69316
 20
108.024
 30
0.0
 11
3.15295
 21
107.939
 31
0.0
  0
ENDSEC
  0
EOF
