G04 #@! TF.FileFunction,Paste,Bot*
%FSLAX46Y46*%
G04 Gerber Fmt 4.6, Leading zero omitted, Abs format (unit mm)*
G04 Created by KiCad (PCBNEW 4.0.7) date 2018 June 19, Tuesday 20:07:00*
%MOMM*%
%LPD*%
G01*
G04 APERTURE LIST*
%ADD10C,0.100000*%
%ADD11R,1.500000X1.250000*%
%ADD12R,1.250000X1.500000*%
%ADD13R,2.350000X0.800000*%
%ADD14R,0.500000X1.400000*%
%ADD15O,1.500000X4.000000*%
%ADD16R,1.475000X0.600000*%
%ADD17R,0.600000X1.475000*%
%ADD18R,1.300000X1.500000*%
%ADD19R,1.700000X1.000000*%
%ADD20R,3.000000X2.000000*%
%ADD21R,6.700000X6.700000*%
%ADD22R,1.500000X1.300000*%
%ADD23R,1.200000X1.400000*%
%ADD24R,1.750000X1.750000*%
G04 APERTURE END LIST*
D10*
D11*
X369450019Y-138101939D03*
X371950019Y-138101939D03*
D12*
X362187500Y-114656250D03*
X362187500Y-112156250D03*
X356843750Y-114656250D03*
X356843750Y-112156250D03*
X366937500Y-112156250D03*
X366937500Y-114656250D03*
D11*
X372218750Y-125875000D03*
X374718750Y-125875000D03*
D12*
X355262519Y-138351939D03*
X355262519Y-140851939D03*
X365262519Y-138351939D03*
X365262519Y-140851939D03*
D13*
X372925000Y-74050000D03*
X367575000Y-74050000D03*
D14*
X368650000Y-79250000D03*
X369450000Y-79250000D03*
X370250000Y-79250000D03*
X371050000Y-79250000D03*
X371850000Y-79250000D03*
D15*
X366600000Y-76850000D03*
X373900000Y-76850000D03*
D16*
X367625519Y-120726939D03*
X367625519Y-121526939D03*
X367625519Y-122326939D03*
X367625519Y-123126939D03*
X367625519Y-123926939D03*
X367625519Y-124726939D03*
X367625519Y-125526939D03*
X367625519Y-126326939D03*
X367625519Y-127126939D03*
X367625519Y-127926939D03*
X367625519Y-128726939D03*
X367625519Y-129526939D03*
X367625519Y-130326939D03*
X367625519Y-131126939D03*
X367625519Y-131926939D03*
X367625519Y-132726939D03*
D17*
X365887519Y-134464939D03*
X365087519Y-134464939D03*
X364287519Y-134464939D03*
X363487519Y-134464939D03*
X362687519Y-134464939D03*
X361887519Y-134464939D03*
X361087519Y-134464939D03*
X360287519Y-134464939D03*
X359487519Y-134464939D03*
X358687519Y-134464939D03*
X357887519Y-134464939D03*
X357087519Y-134464939D03*
X356287519Y-134464939D03*
X355487519Y-134464939D03*
X354687519Y-134464939D03*
X353887519Y-134464939D03*
D16*
X352149519Y-132726939D03*
X352149519Y-131926939D03*
X352149519Y-131126939D03*
X352149519Y-130326939D03*
X352149519Y-129526939D03*
X352149519Y-128726939D03*
X352149519Y-127926939D03*
X352149519Y-127126939D03*
X352149519Y-126326939D03*
X352149519Y-125526939D03*
X352149519Y-124726939D03*
X352149519Y-123926939D03*
X352149519Y-123126939D03*
X352149519Y-122326939D03*
X352149519Y-121526939D03*
X352149519Y-120726939D03*
D17*
X353887519Y-118988939D03*
X354687519Y-118988939D03*
X355487519Y-118988939D03*
X356287519Y-118988939D03*
X357087519Y-118988939D03*
X357887519Y-118988939D03*
X358687519Y-118988939D03*
X359487519Y-118988939D03*
X360287519Y-118988939D03*
X361087519Y-118988939D03*
X361887519Y-118988939D03*
X362687519Y-118988939D03*
X363487519Y-118988939D03*
X364287519Y-118988939D03*
X365087519Y-118988939D03*
X365887519Y-118988939D03*
D18*
X368125000Y-84162500D03*
X368125000Y-86862500D03*
X372875000Y-84162500D03*
X372875000Y-86862500D03*
X355656250Y-144712500D03*
X355656250Y-147412500D03*
X369312500Y-144712500D03*
X369312500Y-147412500D03*
D19*
X369131250Y-157462500D03*
X375431250Y-157462500D03*
X369131250Y-153662500D03*
X375431250Y-153662500D03*
D10*
G36*
X359944321Y-141970747D02*
X359095793Y-141122219D01*
X360085743Y-140132269D01*
X360934271Y-140980797D01*
X359944321Y-141970747D01*
X359944321Y-141970747D01*
G37*
G36*
X361641377Y-140273691D02*
X360792849Y-139425163D01*
X361782799Y-138435213D01*
X362631327Y-139283741D01*
X361641377Y-140273691D01*
X361641377Y-140273691D01*
G37*
G36*
X358742239Y-140768665D02*
X357893711Y-139920137D01*
X358883661Y-138930187D01*
X359732189Y-139778715D01*
X358742239Y-140768665D01*
X358742239Y-140768665D01*
G37*
G36*
X360439295Y-139071609D02*
X359590767Y-138223081D01*
X360580717Y-137233131D01*
X361429245Y-138081659D01*
X360439295Y-139071609D01*
X360439295Y-139071609D01*
G37*
D20*
X331300000Y-125300000D03*
D21*
X324650000Y-123000000D03*
D20*
X331300000Y-120700000D03*
D18*
X337000000Y-120650000D03*
X337000000Y-123350000D03*
D22*
X90087500Y-149625000D03*
X92787500Y-149625000D03*
X170837500Y-149625000D03*
X173537500Y-149625000D03*
X251587500Y-149625000D03*
X254287500Y-149625000D03*
X334712500Y-149625000D03*
X337412500Y-149625000D03*
X415462500Y-149625000D03*
X418162500Y-149625000D03*
X90087500Y-92625000D03*
X92787500Y-92625000D03*
X169812500Y-93812500D03*
X172512500Y-93812500D03*
X256500000Y-95000000D03*
X259200000Y-95000000D03*
X334712500Y-95000000D03*
X337412500Y-95000000D03*
X415462500Y-92625000D03*
X418162500Y-92625000D03*
D23*
X418675000Y-163875000D03*
X422075000Y-163875000D03*
X390175000Y-163875000D03*
X393575000Y-163875000D03*
X356925000Y-163875000D03*
X360325000Y-163875000D03*
X337925000Y-163875000D03*
X341325000Y-163875000D03*
X318925000Y-163875000D03*
X322325000Y-163875000D03*
X288050000Y-163875000D03*
X291450000Y-163875000D03*
X264300000Y-163875000D03*
X267700000Y-163875000D03*
X240550000Y-163875000D03*
X243950000Y-163875000D03*
X169300000Y-163875000D03*
X172700000Y-163875000D03*
X98050000Y-163875000D03*
X101450000Y-163875000D03*
X74300000Y-163875000D03*
X77700000Y-163875000D03*
X50550000Y-163875000D03*
X53950000Y-163875000D03*
X437675000Y-154375000D03*
X441075000Y-154375000D03*
X418675000Y-144875000D03*
X422075000Y-144875000D03*
X399675000Y-144875000D03*
X403075000Y-144875000D03*
X380675000Y-144875000D03*
X384075000Y-144875000D03*
X337925000Y-144875000D03*
X341325000Y-144875000D03*
X297550000Y-144875000D03*
X300950000Y-144875000D03*
X261925000Y-144875000D03*
X265325000Y-144875000D03*
X242925000Y-144875000D03*
X246325000Y-144875000D03*
X223925000Y-144875000D03*
X227325000Y-144875000D03*
X204925000Y-144875000D03*
X208325000Y-144875000D03*
X185925000Y-144875000D03*
X189325000Y-144875000D03*
X166925000Y-144875000D03*
X170325000Y-144875000D03*
X147925000Y-144875000D03*
X151325000Y-144875000D03*
X128925000Y-144875000D03*
X132325000Y-144875000D03*
X109925000Y-144875000D03*
X113325000Y-144875000D03*
X90925000Y-144875000D03*
X94325000Y-144875000D03*
X71925000Y-144875000D03*
X75325000Y-144875000D03*
X50550000Y-144875000D03*
X53950000Y-144875000D03*
X418675000Y-125875000D03*
X422075000Y-125875000D03*
X399675000Y-125875000D03*
X403075000Y-125875000D03*
X380675000Y-125875000D03*
X384075000Y-125875000D03*
X290425000Y-125875000D03*
X293825000Y-125875000D03*
X271425000Y-125875000D03*
X274825000Y-125875000D03*
X252425000Y-125875000D03*
X255825000Y-125875000D03*
X233425000Y-125875000D03*
X236825000Y-125875000D03*
X214425000Y-125875000D03*
X217825000Y-125875000D03*
X195425000Y-125875000D03*
X198825000Y-125875000D03*
X176425000Y-125875000D03*
X179825000Y-125875000D03*
X157425000Y-125875000D03*
X160825000Y-125875000D03*
X138425000Y-125875000D03*
X141825000Y-125875000D03*
X119425000Y-125875000D03*
X122825000Y-125875000D03*
X100425000Y-125875000D03*
X103825000Y-125875000D03*
X81425000Y-125875000D03*
X84825000Y-125875000D03*
X55300000Y-125875000D03*
X58700000Y-125875000D03*
X437675000Y-116375000D03*
X441075000Y-116375000D03*
X418675000Y-106875000D03*
X422075000Y-106875000D03*
X399675000Y-106875000D03*
X403075000Y-106875000D03*
X380675000Y-106875000D03*
X384075000Y-106875000D03*
X356925000Y-106875000D03*
X360325000Y-106875000D03*
X337925000Y-106875000D03*
X341325000Y-106875000D03*
X311800000Y-116375000D03*
X315200000Y-116375000D03*
X285675000Y-106875000D03*
X289075000Y-106875000D03*
X266675000Y-106875000D03*
X270075000Y-106875000D03*
X247675000Y-106875000D03*
X251075000Y-106875000D03*
X228675000Y-106875000D03*
X232075000Y-106875000D03*
X209675000Y-106875000D03*
X213075000Y-106875000D03*
X190675000Y-106875000D03*
X194075000Y-106875000D03*
X171675000Y-106875000D03*
X175075000Y-106875000D03*
X152675000Y-106875000D03*
X156075000Y-106875000D03*
X133675000Y-106875000D03*
X137075000Y-106875000D03*
X114675000Y-106875000D03*
X118075000Y-106875000D03*
X95675000Y-106875000D03*
X99075000Y-106875000D03*
X76675000Y-106875000D03*
X80075000Y-106875000D03*
X52925000Y-106875000D03*
X56325000Y-106875000D03*
X437675000Y-87875000D03*
X441075000Y-87875000D03*
X418675000Y-87875000D03*
X422075000Y-87875000D03*
X399675000Y-87875000D03*
X403075000Y-87875000D03*
X380675000Y-87875000D03*
X384075000Y-87875000D03*
X356925000Y-87875000D03*
X360325000Y-87875000D03*
X337925000Y-87875000D03*
X341325000Y-87875000D03*
X304675000Y-87875000D03*
X308075000Y-87875000D03*
X276175000Y-87875000D03*
X279575000Y-87875000D03*
X257175000Y-87875000D03*
X260575000Y-87875000D03*
X238175000Y-87875000D03*
X241575000Y-87875000D03*
X219175000Y-87875000D03*
X222575000Y-87875000D03*
X200175000Y-87875000D03*
X203575000Y-87875000D03*
X181175000Y-87875000D03*
X184575000Y-87875000D03*
X162175000Y-87875000D03*
X165575000Y-87875000D03*
X143175000Y-87875000D03*
X146575000Y-87875000D03*
X124175000Y-87875000D03*
X127575000Y-87875000D03*
X105175000Y-87875000D03*
X108575000Y-87875000D03*
X86175000Y-87875000D03*
X89575000Y-87875000D03*
X67175000Y-87875000D03*
X70575000Y-87875000D03*
X48175000Y-87875000D03*
X51575000Y-87875000D03*
D24*
X406625000Y-92625000D03*
X410375000Y-92625000D03*
X325875000Y-95000000D03*
X329625000Y-95000000D03*
X242750000Y-95000000D03*
X246500000Y-95000000D03*
X162000000Y-93812500D03*
X165750000Y-93812500D03*
X81250000Y-92625000D03*
X85000000Y-92625000D03*
X406625000Y-149625000D03*
X410375000Y-149625000D03*
X325875000Y-149625000D03*
X329625000Y-149625000D03*
X242750000Y-149625000D03*
X246500000Y-149625000D03*
X162000000Y-149625000D03*
X165750000Y-149625000D03*
X81250000Y-149625000D03*
X85000000Y-149625000D03*
M02*
