G04 #@! TF.FileFunction,Soldermask,Top*
%FSLAX46Y46*%
G04 Gerber Fmt 4.6, Leading zero omitted, Abs format (unit mm)*
G04 Created by KiCad (PCBNEW 4.0.7) date 2018 June 19, Tuesday 20:07:00*
%MOMM*%
%LPD*%
G01*
G04 APERTURE LIST*
%ADD10C,0.100000*%
%ADD11C,2.600000*%
%ADD12C,4.400000*%
%ADD13O,1.900000X4.400000*%
G04 APERTURE END LIST*
D10*
D11*
X54790000Y-154045000D03*
X48440000Y-156585000D03*
D12*
X52250000Y-159125000D03*
D11*
X185415000Y-78045000D03*
X179065000Y-80585000D03*
D12*
X182875000Y-83125000D03*
D11*
X166415000Y-78045000D03*
X160065000Y-80585000D03*
D12*
X163875000Y-83125000D03*
D11*
X147415000Y-78045000D03*
X141065000Y-80585000D03*
D12*
X144875000Y-83125000D03*
D11*
X90415000Y-78045000D03*
X84065000Y-80585000D03*
D12*
X87875000Y-83125000D03*
D11*
X301790000Y-135045000D03*
X295440000Y-137585000D03*
D12*
X299250000Y-140125000D03*
D11*
X57165000Y-97045000D03*
X50815000Y-99585000D03*
D12*
X54625000Y-102125000D03*
D11*
X394415000Y-154045000D03*
X388065000Y-156585000D03*
D12*
X391875000Y-159125000D03*
D13*
X366600000Y-76850000D03*
X373900000Y-76850000D03*
D11*
X52415000Y-78045000D03*
X46065000Y-80585000D03*
D12*
X49875000Y-83125000D03*
D11*
X71415000Y-78045000D03*
X65065000Y-80585000D03*
D12*
X68875000Y-83125000D03*
D11*
X109415000Y-78045000D03*
X103065000Y-80585000D03*
D12*
X106875000Y-83125000D03*
D11*
X128415000Y-78045000D03*
X122065000Y-80585000D03*
D12*
X125875000Y-83125000D03*
D11*
X204415000Y-78045000D03*
X198065000Y-80585000D03*
D12*
X201875000Y-83125000D03*
D11*
X223415000Y-78045000D03*
X217065000Y-80585000D03*
D12*
X220875000Y-83125000D03*
D11*
X242415000Y-78045000D03*
X236065000Y-80585000D03*
D12*
X239875000Y-83125000D03*
D11*
X261415000Y-78045000D03*
X255065000Y-80585000D03*
D12*
X258875000Y-83125000D03*
D11*
X280415000Y-78045000D03*
X274065000Y-80585000D03*
D12*
X277875000Y-83125000D03*
D11*
X342165000Y-78045000D03*
X335815000Y-80585000D03*
D12*
X339625000Y-83125000D03*
D11*
X361165000Y-78045000D03*
X354815000Y-80585000D03*
D12*
X358625000Y-83125000D03*
D11*
X384915000Y-78045000D03*
X378565000Y-80585000D03*
D12*
X382375000Y-83125000D03*
D11*
X403915000Y-78045000D03*
X397565000Y-80585000D03*
D12*
X401375000Y-83125000D03*
D11*
X422915000Y-78045000D03*
X416565000Y-80585000D03*
D12*
X420375000Y-83125000D03*
D11*
X441915000Y-78045000D03*
X435565000Y-80585000D03*
D12*
X439375000Y-83125000D03*
D11*
X80915000Y-97045000D03*
X74565000Y-99585000D03*
D12*
X78375000Y-102125000D03*
D11*
X99915000Y-97045000D03*
X93565000Y-99585000D03*
D12*
X97375000Y-102125000D03*
D11*
X118915000Y-97045000D03*
X112565000Y-99585000D03*
D12*
X116375000Y-102125000D03*
D11*
X137915000Y-97045000D03*
X131565000Y-99585000D03*
D12*
X135375000Y-102125000D03*
D11*
X156915000Y-97045000D03*
X150565000Y-99585000D03*
D12*
X154375000Y-102125000D03*
D11*
X175915000Y-97045000D03*
X169565000Y-99585000D03*
D12*
X173375000Y-102125000D03*
D11*
X194915000Y-97045000D03*
X188565000Y-99585000D03*
D12*
X192375000Y-102125000D03*
D11*
X213915000Y-97045000D03*
X207565000Y-99585000D03*
D12*
X211375000Y-102125000D03*
D11*
X232915000Y-97045000D03*
X226565000Y-99585000D03*
D12*
X230375000Y-102125000D03*
D11*
X251915000Y-97045000D03*
X245565000Y-99585000D03*
D12*
X249375000Y-102125000D03*
D11*
X270915000Y-97045000D03*
X264565000Y-99585000D03*
D12*
X268375000Y-102125000D03*
D11*
X289915000Y-97045000D03*
X283565000Y-99585000D03*
D12*
X287375000Y-102125000D03*
D11*
X361165000Y-97045000D03*
X354815000Y-99585000D03*
D12*
X358625000Y-102125000D03*
D11*
X384915000Y-97045000D03*
X378565000Y-99585000D03*
D12*
X382375000Y-102125000D03*
D11*
X403915000Y-97045000D03*
X397565000Y-99585000D03*
D12*
X401375000Y-102125000D03*
D11*
X422915000Y-97045000D03*
X416565000Y-99585000D03*
D12*
X420375000Y-102125000D03*
D11*
X85665000Y-116045000D03*
X79315000Y-118585000D03*
D12*
X83125000Y-121125000D03*
D11*
X104665000Y-116045000D03*
X98315000Y-118585000D03*
D12*
X102125000Y-121125000D03*
D11*
X123665000Y-116045000D03*
X117315000Y-118585000D03*
D12*
X121125000Y-121125000D03*
D11*
X142665000Y-116045000D03*
X136315000Y-118585000D03*
D12*
X140125000Y-121125000D03*
D11*
X161665000Y-116045000D03*
X155315000Y-118585000D03*
D12*
X159125000Y-121125000D03*
D11*
X180665000Y-116045000D03*
X174315000Y-118585000D03*
D12*
X178125000Y-121125000D03*
D11*
X199665000Y-116045000D03*
X193315000Y-118585000D03*
D12*
X197125000Y-121125000D03*
D11*
X218665000Y-116045000D03*
X212315000Y-118585000D03*
D12*
X216125000Y-121125000D03*
D11*
X237665000Y-116045000D03*
X231315000Y-118585000D03*
D12*
X235125000Y-121125000D03*
D11*
X256665000Y-116045000D03*
X250315000Y-118585000D03*
D12*
X254125000Y-121125000D03*
D11*
X275665000Y-116045000D03*
X269315000Y-118585000D03*
D12*
X273125000Y-121125000D03*
D11*
X294665000Y-116045000D03*
X288315000Y-118585000D03*
D12*
X292125000Y-121125000D03*
D11*
X384915000Y-116045000D03*
X378565000Y-118585000D03*
D12*
X382375000Y-121125000D03*
D11*
X403915000Y-116045000D03*
X397565000Y-118585000D03*
D12*
X401375000Y-121125000D03*
D11*
X422915000Y-116045000D03*
X416565000Y-118585000D03*
D12*
X420375000Y-121125000D03*
D11*
X76165000Y-135045000D03*
X69815000Y-137585000D03*
D12*
X73625000Y-140125000D03*
D11*
X95165000Y-135045000D03*
X88815000Y-137585000D03*
D12*
X92625000Y-140125000D03*
D11*
X114165000Y-135045000D03*
X107815000Y-137585000D03*
D12*
X111625000Y-140125000D03*
D11*
X133165000Y-135045000D03*
X126815000Y-137585000D03*
D12*
X130625000Y-140125000D03*
D11*
X152165000Y-135045000D03*
X145815000Y-137585000D03*
D12*
X149625000Y-140125000D03*
D11*
X171165000Y-135045000D03*
X164815000Y-137585000D03*
D12*
X168625000Y-140125000D03*
D11*
X190165000Y-135045000D03*
X183815000Y-137585000D03*
D12*
X187625000Y-140125000D03*
D11*
X209165000Y-135045000D03*
X202815000Y-137585000D03*
D12*
X206625000Y-140125000D03*
D11*
X228165000Y-135045000D03*
X221815000Y-137585000D03*
D12*
X225625000Y-140125000D03*
D11*
X247165000Y-135045000D03*
X240815000Y-137585000D03*
D12*
X244625000Y-140125000D03*
D11*
X266165000Y-135045000D03*
X259815000Y-137585000D03*
D12*
X263625000Y-140125000D03*
D11*
X342165000Y-135045000D03*
X335815000Y-137585000D03*
D12*
X339625000Y-140125000D03*
D11*
X384915000Y-135045000D03*
X378565000Y-137585000D03*
D12*
X382375000Y-140125000D03*
D11*
X403915000Y-135045000D03*
X397565000Y-137585000D03*
D12*
X401375000Y-140125000D03*
D11*
X422915000Y-135045000D03*
X416565000Y-137585000D03*
D12*
X420375000Y-140125000D03*
D11*
X323165000Y-154045000D03*
X316815000Y-156585000D03*
D12*
X320625000Y-159125000D03*
D11*
X342165000Y-154045000D03*
X335815000Y-156585000D03*
D12*
X339625000Y-159125000D03*
D11*
X361165000Y-154045000D03*
X354815000Y-156585000D03*
D12*
X358625000Y-159125000D03*
D11*
X422915000Y-154045000D03*
X416565000Y-156585000D03*
D12*
X420375000Y-159125000D03*
D11*
X342165000Y-97045000D03*
X335815000Y-99585000D03*
D12*
X339625000Y-102125000D03*
D11*
X59540000Y-116045000D03*
X53190000Y-118585000D03*
D12*
X57000000Y-121125000D03*
D11*
X78540000Y-154045000D03*
X72190000Y-156585000D03*
D12*
X76000000Y-159125000D03*
D11*
X102290000Y-154045000D03*
X95940000Y-156585000D03*
D12*
X99750000Y-159125000D03*
D11*
X244790000Y-154045000D03*
X238440000Y-156585000D03*
D12*
X242250000Y-159125000D03*
D11*
X268540000Y-154045000D03*
X262190000Y-156585000D03*
D12*
X266000000Y-159125000D03*
D11*
X292290000Y-154045000D03*
X285940000Y-156585000D03*
D12*
X289750000Y-159125000D03*
D11*
X54790000Y-135045000D03*
X48440000Y-137585000D03*
D12*
X52250000Y-140125000D03*
D11*
X316040000Y-106545000D03*
X309690000Y-109085000D03*
D12*
X313500000Y-111625000D03*
D11*
X441915000Y-144545000D03*
X435565000Y-147085000D03*
D12*
X439375000Y-149625000D03*
D11*
X441915000Y-106545000D03*
X435565000Y-109085000D03*
D12*
X439375000Y-111625000D03*
D11*
X308915000Y-78045000D03*
X302565000Y-80585000D03*
D12*
X306375000Y-83125000D03*
D11*
X173540000Y-154045000D03*
X167190000Y-156585000D03*
D12*
X171000000Y-159125000D03*
M02*
