M48
INCH,TZ
T1C0.157
%
G90
G05
T1
X1.9636Y-3.2726
X2.0571Y-5.5167
X2.0571Y-6.2648
X2.1506Y-4.0207
X2.2441Y-4.7687
X2.7116Y-3.2726
X2.8986Y-5.5167
X2.9921Y-6.2648
X3.0856Y-4.0207
X3.2726Y-4.7687
X3.4596Y-3.2726
X3.6467Y-5.5167
X3.8337Y-4.0207
X3.9272Y-6.2648
X4.0207Y-4.7687
X4.2077Y-3.2726
X4.3947Y-5.5167
X4.5817Y-4.0207
X4.7687Y-4.7687
X4.9557Y-3.2726
X5.1427Y-5.5167
X5.3297Y-4.0207
X5.5167Y-4.7687
X5.7037Y-3.2726
X5.8907Y-5.5167
X6.0778Y-4.0207
X6.2648Y-4.7687
X6.4518Y-3.2726
X6.6388Y-5.5167
X6.7323Y-6.2648
X6.8258Y-4.0207
X7.0128Y-4.7687
X7.1998Y-3.2726
X7.3868Y-5.5167
X7.5738Y-4.0207
X7.7608Y-4.7687
X7.9478Y-3.2726
X8.1348Y-5.5167
X8.3219Y-4.0207
X8.5089Y-4.7687
X8.6959Y-3.2726
X8.8829Y-5.5167
X9.0699Y-4.0207
X9.2569Y-4.7687
X9.4439Y-3.2726
X9.5374Y-6.2648
X9.6309Y-5.5167
X9.8179Y-4.0207
X10.0049Y-4.7687
X10.1919Y-3.2726
X10.3789Y-5.5167
X10.4724Y-6.2648
X10.5659Y-4.0207
X10.753Y-4.7687
X10.94Y-3.2726
X11.314Y-4.0207
X11.4075Y-6.2648
X11.501Y-4.7687
X11.7815Y-5.5167
X12.062Y-3.2726
X12.3425Y-4.3947
X12.623Y-6.2648
X13.3711Y-3.2726
X13.3711Y-4.0207
X13.3711Y-5.5167
X13.3711Y-6.2648
X14.1191Y-3.2726
X14.1191Y-4.0207
X14.1191Y-6.2648
X15.0541Y-3.2726
X15.0541Y-4.0207
X15.0541Y-4.7687
X15.0541Y-5.5167
X15.4281Y-6.2648
X15.8022Y-3.2726
X15.8022Y-4.0207
X15.8022Y-4.7687
X15.8022Y-5.5167
X16.5502Y-3.2726
X16.5502Y-4.0207
X16.5502Y-4.7687
X16.5502Y-5.5167
X16.5502Y-6.2648
X17.2982Y-3.2726
X17.2982Y-4.3947
X17.2982Y-5.8907
T0
M30
