G04 #@! TF.FileFunction,Legend,Top*
%FSLAX46Y46*%
G04 Gerber Fmt 4.6, Leading zero omitted, Abs format (unit mm)*
G04 Created by KiCad (PCBNEW 4.0.7) date 2018 June 19, Tuesday 20:07:00*
%MOMM*%
%LPD*%
G01*
G04 APERTURE LIST*
%ADD10C,0.100000*%
%ADD11C,0.120000*%
%ADD12C,0.150000*%
G04 APERTURE END LIST*
D10*
D11*
X45265000Y-152140000D02*
X59235000Y-152140000D01*
X59235000Y-152140000D02*
X59235000Y-166110000D01*
X59235000Y-166110000D02*
X45265000Y-166110000D01*
X45265000Y-166110000D02*
X45265000Y-152140000D01*
X175890000Y-76140000D02*
X189860000Y-76140000D01*
X189860000Y-76140000D02*
X189860000Y-90110000D01*
X189860000Y-90110000D02*
X175890000Y-90110000D01*
X175890000Y-90110000D02*
X175890000Y-76140000D01*
X156890000Y-76140000D02*
X170860000Y-76140000D01*
X170860000Y-76140000D02*
X170860000Y-90110000D01*
X170860000Y-90110000D02*
X156890000Y-90110000D01*
X156890000Y-90110000D02*
X156890000Y-76140000D01*
X137890000Y-76140000D02*
X151860000Y-76140000D01*
X151860000Y-76140000D02*
X151860000Y-90110000D01*
X151860000Y-90110000D02*
X137890000Y-90110000D01*
X137890000Y-90110000D02*
X137890000Y-76140000D01*
X80890000Y-76140000D02*
X94860000Y-76140000D01*
X94860000Y-76140000D02*
X94860000Y-90110000D01*
X94860000Y-90110000D02*
X80890000Y-90110000D01*
X80890000Y-90110000D02*
X80890000Y-76140000D01*
X292265000Y-133140000D02*
X306235000Y-133140000D01*
X306235000Y-133140000D02*
X306235000Y-147110000D01*
X306235000Y-147110000D02*
X292265000Y-147110000D01*
X292265000Y-147110000D02*
X292265000Y-133140000D01*
X47640000Y-95140000D02*
X61610000Y-95140000D01*
X61610000Y-95140000D02*
X61610000Y-109110000D01*
X61610000Y-109110000D02*
X47640000Y-109110000D01*
X47640000Y-109110000D02*
X47640000Y-95140000D01*
X384890000Y-152140000D02*
X398860000Y-152140000D01*
X398860000Y-152140000D02*
X398860000Y-166110000D01*
X398860000Y-166110000D02*
X384890000Y-166110000D01*
X384890000Y-166110000D02*
X384890000Y-152140000D01*
X42890000Y-76140000D02*
X56860000Y-76140000D01*
X56860000Y-76140000D02*
X56860000Y-90110000D01*
X56860000Y-90110000D02*
X42890000Y-90110000D01*
X42890000Y-90110000D02*
X42890000Y-76140000D01*
X61890000Y-76140000D02*
X75860000Y-76140000D01*
X75860000Y-76140000D02*
X75860000Y-90110000D01*
X75860000Y-90110000D02*
X61890000Y-90110000D01*
X61890000Y-90110000D02*
X61890000Y-76140000D01*
X99890000Y-76140000D02*
X113860000Y-76140000D01*
X113860000Y-76140000D02*
X113860000Y-90110000D01*
X113860000Y-90110000D02*
X99890000Y-90110000D01*
X99890000Y-90110000D02*
X99890000Y-76140000D01*
X118890000Y-76140000D02*
X132860000Y-76140000D01*
X132860000Y-76140000D02*
X132860000Y-90110000D01*
X132860000Y-90110000D02*
X118890000Y-90110000D01*
X118890000Y-90110000D02*
X118890000Y-76140000D01*
X194890000Y-76140000D02*
X208860000Y-76140000D01*
X208860000Y-76140000D02*
X208860000Y-90110000D01*
X208860000Y-90110000D02*
X194890000Y-90110000D01*
X194890000Y-90110000D02*
X194890000Y-76140000D01*
X213890000Y-76140000D02*
X227860000Y-76140000D01*
X227860000Y-76140000D02*
X227860000Y-90110000D01*
X227860000Y-90110000D02*
X213890000Y-90110000D01*
X213890000Y-90110000D02*
X213890000Y-76140000D01*
X232890000Y-76140000D02*
X246860000Y-76140000D01*
X246860000Y-76140000D02*
X246860000Y-90110000D01*
X246860000Y-90110000D02*
X232890000Y-90110000D01*
X232890000Y-90110000D02*
X232890000Y-76140000D01*
X251890000Y-76140000D02*
X265860000Y-76140000D01*
X265860000Y-76140000D02*
X265860000Y-90110000D01*
X265860000Y-90110000D02*
X251890000Y-90110000D01*
X251890000Y-90110000D02*
X251890000Y-76140000D01*
X270890000Y-76140000D02*
X284860000Y-76140000D01*
X284860000Y-76140000D02*
X284860000Y-90110000D01*
X284860000Y-90110000D02*
X270890000Y-90110000D01*
X270890000Y-90110000D02*
X270890000Y-76140000D01*
X332640000Y-76140000D02*
X346610000Y-76140000D01*
X346610000Y-76140000D02*
X346610000Y-90110000D01*
X346610000Y-90110000D02*
X332640000Y-90110000D01*
X332640000Y-90110000D02*
X332640000Y-76140000D01*
X351640000Y-76140000D02*
X365610000Y-76140000D01*
X365610000Y-76140000D02*
X365610000Y-90110000D01*
X365610000Y-90110000D02*
X351640000Y-90110000D01*
X351640000Y-90110000D02*
X351640000Y-76140000D01*
X375390000Y-76140000D02*
X389360000Y-76140000D01*
X389360000Y-76140000D02*
X389360000Y-90110000D01*
X389360000Y-90110000D02*
X375390000Y-90110000D01*
X375390000Y-90110000D02*
X375390000Y-76140000D01*
X394390000Y-76140000D02*
X408360000Y-76140000D01*
X408360000Y-76140000D02*
X408360000Y-90110000D01*
X408360000Y-90110000D02*
X394390000Y-90110000D01*
X394390000Y-90110000D02*
X394390000Y-76140000D01*
X413390000Y-76140000D02*
X427360000Y-76140000D01*
X427360000Y-76140000D02*
X427360000Y-90110000D01*
X427360000Y-90110000D02*
X413390000Y-90110000D01*
X413390000Y-90110000D02*
X413390000Y-76140000D01*
X432390000Y-76140000D02*
X446360000Y-76140000D01*
X446360000Y-76140000D02*
X446360000Y-90110000D01*
X446360000Y-90110000D02*
X432390000Y-90110000D01*
X432390000Y-90110000D02*
X432390000Y-76140000D01*
X71390000Y-95140000D02*
X85360000Y-95140000D01*
X85360000Y-95140000D02*
X85360000Y-109110000D01*
X85360000Y-109110000D02*
X71390000Y-109110000D01*
X71390000Y-109110000D02*
X71390000Y-95140000D01*
X90390000Y-95140000D02*
X104360000Y-95140000D01*
X104360000Y-95140000D02*
X104360000Y-109110000D01*
X104360000Y-109110000D02*
X90390000Y-109110000D01*
X90390000Y-109110000D02*
X90390000Y-95140000D01*
X109390000Y-95140000D02*
X123360000Y-95140000D01*
X123360000Y-95140000D02*
X123360000Y-109110000D01*
X123360000Y-109110000D02*
X109390000Y-109110000D01*
X109390000Y-109110000D02*
X109390000Y-95140000D01*
X128390000Y-95140000D02*
X142360000Y-95140000D01*
X142360000Y-95140000D02*
X142360000Y-109110000D01*
X142360000Y-109110000D02*
X128390000Y-109110000D01*
X128390000Y-109110000D02*
X128390000Y-95140000D01*
X147390000Y-95140000D02*
X161360000Y-95140000D01*
X161360000Y-95140000D02*
X161360000Y-109110000D01*
X161360000Y-109110000D02*
X147390000Y-109110000D01*
X147390000Y-109110000D02*
X147390000Y-95140000D01*
X166390000Y-95140000D02*
X180360000Y-95140000D01*
X180360000Y-95140000D02*
X180360000Y-109110000D01*
X180360000Y-109110000D02*
X166390000Y-109110000D01*
X166390000Y-109110000D02*
X166390000Y-95140000D01*
X185390000Y-95140000D02*
X199360000Y-95140000D01*
X199360000Y-95140000D02*
X199360000Y-109110000D01*
X199360000Y-109110000D02*
X185390000Y-109110000D01*
X185390000Y-109110000D02*
X185390000Y-95140000D01*
X204390000Y-95140000D02*
X218360000Y-95140000D01*
X218360000Y-95140000D02*
X218360000Y-109110000D01*
X218360000Y-109110000D02*
X204390000Y-109110000D01*
X204390000Y-109110000D02*
X204390000Y-95140000D01*
X223390000Y-95140000D02*
X237360000Y-95140000D01*
X237360000Y-95140000D02*
X237360000Y-109110000D01*
X237360000Y-109110000D02*
X223390000Y-109110000D01*
X223390000Y-109110000D02*
X223390000Y-95140000D01*
X242390000Y-95140000D02*
X256360000Y-95140000D01*
X256360000Y-95140000D02*
X256360000Y-109110000D01*
X256360000Y-109110000D02*
X242390000Y-109110000D01*
X242390000Y-109110000D02*
X242390000Y-95140000D01*
X261390000Y-95140000D02*
X275360000Y-95140000D01*
X275360000Y-95140000D02*
X275360000Y-109110000D01*
X275360000Y-109110000D02*
X261390000Y-109110000D01*
X261390000Y-109110000D02*
X261390000Y-95140000D01*
X280390000Y-95140000D02*
X294360000Y-95140000D01*
X294360000Y-95140000D02*
X294360000Y-109110000D01*
X294360000Y-109110000D02*
X280390000Y-109110000D01*
X280390000Y-109110000D02*
X280390000Y-95140000D01*
X351640000Y-95140000D02*
X365610000Y-95140000D01*
X365610000Y-95140000D02*
X365610000Y-109110000D01*
X365610000Y-109110000D02*
X351640000Y-109110000D01*
X351640000Y-109110000D02*
X351640000Y-95140000D01*
X375390000Y-95140000D02*
X389360000Y-95140000D01*
X389360000Y-95140000D02*
X389360000Y-109110000D01*
X389360000Y-109110000D02*
X375390000Y-109110000D01*
X375390000Y-109110000D02*
X375390000Y-95140000D01*
X394390000Y-95140000D02*
X408360000Y-95140000D01*
X408360000Y-95140000D02*
X408360000Y-109110000D01*
X408360000Y-109110000D02*
X394390000Y-109110000D01*
X394390000Y-109110000D02*
X394390000Y-95140000D01*
X413390000Y-95140000D02*
X427360000Y-95140000D01*
X427360000Y-95140000D02*
X427360000Y-109110000D01*
X427360000Y-109110000D02*
X413390000Y-109110000D01*
X413390000Y-109110000D02*
X413390000Y-95140000D01*
X76140000Y-114140000D02*
X90110000Y-114140000D01*
X90110000Y-114140000D02*
X90110000Y-128110000D01*
X90110000Y-128110000D02*
X76140000Y-128110000D01*
X76140000Y-128110000D02*
X76140000Y-114140000D01*
X95140000Y-114140000D02*
X109110000Y-114140000D01*
X109110000Y-114140000D02*
X109110000Y-128110000D01*
X109110000Y-128110000D02*
X95140000Y-128110000D01*
X95140000Y-128110000D02*
X95140000Y-114140000D01*
X114140000Y-114140000D02*
X128110000Y-114140000D01*
X128110000Y-114140000D02*
X128110000Y-128110000D01*
X128110000Y-128110000D02*
X114140000Y-128110000D01*
X114140000Y-128110000D02*
X114140000Y-114140000D01*
X133140000Y-114140000D02*
X147110000Y-114140000D01*
X147110000Y-114140000D02*
X147110000Y-128110000D01*
X147110000Y-128110000D02*
X133140000Y-128110000D01*
X133140000Y-128110000D02*
X133140000Y-114140000D01*
X152140000Y-114140000D02*
X166110000Y-114140000D01*
X166110000Y-114140000D02*
X166110000Y-128110000D01*
X166110000Y-128110000D02*
X152140000Y-128110000D01*
X152140000Y-128110000D02*
X152140000Y-114140000D01*
X171140000Y-114140000D02*
X185110000Y-114140000D01*
X185110000Y-114140000D02*
X185110000Y-128110000D01*
X185110000Y-128110000D02*
X171140000Y-128110000D01*
X171140000Y-128110000D02*
X171140000Y-114140000D01*
X190140000Y-114140000D02*
X204110000Y-114140000D01*
X204110000Y-114140000D02*
X204110000Y-128110000D01*
X204110000Y-128110000D02*
X190140000Y-128110000D01*
X190140000Y-128110000D02*
X190140000Y-114140000D01*
X209140000Y-114140000D02*
X223110000Y-114140000D01*
X223110000Y-114140000D02*
X223110000Y-128110000D01*
X223110000Y-128110000D02*
X209140000Y-128110000D01*
X209140000Y-128110000D02*
X209140000Y-114140000D01*
X228140000Y-114140000D02*
X242110000Y-114140000D01*
X242110000Y-114140000D02*
X242110000Y-128110000D01*
X242110000Y-128110000D02*
X228140000Y-128110000D01*
X228140000Y-128110000D02*
X228140000Y-114140000D01*
X247140000Y-114140000D02*
X261110000Y-114140000D01*
X261110000Y-114140000D02*
X261110000Y-128110000D01*
X261110000Y-128110000D02*
X247140000Y-128110000D01*
X247140000Y-128110000D02*
X247140000Y-114140000D01*
X266140000Y-114140000D02*
X280110000Y-114140000D01*
X280110000Y-114140000D02*
X280110000Y-128110000D01*
X280110000Y-128110000D02*
X266140000Y-128110000D01*
X266140000Y-128110000D02*
X266140000Y-114140000D01*
X285140000Y-114140000D02*
X299110000Y-114140000D01*
X299110000Y-114140000D02*
X299110000Y-128110000D01*
X299110000Y-128110000D02*
X285140000Y-128110000D01*
X285140000Y-128110000D02*
X285140000Y-114140000D01*
X375390000Y-114140000D02*
X389360000Y-114140000D01*
X389360000Y-114140000D02*
X389360000Y-128110000D01*
X389360000Y-128110000D02*
X375390000Y-128110000D01*
X375390000Y-128110000D02*
X375390000Y-114140000D01*
X394390000Y-114140000D02*
X408360000Y-114140000D01*
X408360000Y-114140000D02*
X408360000Y-128110000D01*
X408360000Y-128110000D02*
X394390000Y-128110000D01*
X394390000Y-128110000D02*
X394390000Y-114140000D01*
X413390000Y-114140000D02*
X427360000Y-114140000D01*
X427360000Y-114140000D02*
X427360000Y-128110000D01*
X427360000Y-128110000D02*
X413390000Y-128110000D01*
X413390000Y-128110000D02*
X413390000Y-114140000D01*
X66640000Y-133140000D02*
X80610000Y-133140000D01*
X80610000Y-133140000D02*
X80610000Y-147110000D01*
X80610000Y-147110000D02*
X66640000Y-147110000D01*
X66640000Y-147110000D02*
X66640000Y-133140000D01*
X85640000Y-133140000D02*
X99610000Y-133140000D01*
X99610000Y-133140000D02*
X99610000Y-147110000D01*
X99610000Y-147110000D02*
X85640000Y-147110000D01*
X85640000Y-147110000D02*
X85640000Y-133140000D01*
X104640000Y-133140000D02*
X118610000Y-133140000D01*
X118610000Y-133140000D02*
X118610000Y-147110000D01*
X118610000Y-147110000D02*
X104640000Y-147110000D01*
X104640000Y-147110000D02*
X104640000Y-133140000D01*
X123640000Y-133140000D02*
X137610000Y-133140000D01*
X137610000Y-133140000D02*
X137610000Y-147110000D01*
X137610000Y-147110000D02*
X123640000Y-147110000D01*
X123640000Y-147110000D02*
X123640000Y-133140000D01*
X142640000Y-133140000D02*
X156610000Y-133140000D01*
X156610000Y-133140000D02*
X156610000Y-147110000D01*
X156610000Y-147110000D02*
X142640000Y-147110000D01*
X142640000Y-147110000D02*
X142640000Y-133140000D01*
X161640000Y-133140000D02*
X175610000Y-133140000D01*
X175610000Y-133140000D02*
X175610000Y-147110000D01*
X175610000Y-147110000D02*
X161640000Y-147110000D01*
X161640000Y-147110000D02*
X161640000Y-133140000D01*
X180640000Y-133140000D02*
X194610000Y-133140000D01*
X194610000Y-133140000D02*
X194610000Y-147110000D01*
X194610000Y-147110000D02*
X180640000Y-147110000D01*
X180640000Y-147110000D02*
X180640000Y-133140000D01*
X199640000Y-133140000D02*
X213610000Y-133140000D01*
X213610000Y-133140000D02*
X213610000Y-147110000D01*
X213610000Y-147110000D02*
X199640000Y-147110000D01*
X199640000Y-147110000D02*
X199640000Y-133140000D01*
X218640000Y-133140000D02*
X232610000Y-133140000D01*
X232610000Y-133140000D02*
X232610000Y-147110000D01*
X232610000Y-147110000D02*
X218640000Y-147110000D01*
X218640000Y-147110000D02*
X218640000Y-133140000D01*
X237640000Y-133140000D02*
X251610000Y-133140000D01*
X251610000Y-133140000D02*
X251610000Y-147110000D01*
X251610000Y-147110000D02*
X237640000Y-147110000D01*
X237640000Y-147110000D02*
X237640000Y-133140000D01*
X256640000Y-133140000D02*
X270610000Y-133140000D01*
X270610000Y-133140000D02*
X270610000Y-147110000D01*
X270610000Y-147110000D02*
X256640000Y-147110000D01*
X256640000Y-147110000D02*
X256640000Y-133140000D01*
X332640000Y-133140000D02*
X346610000Y-133140000D01*
X346610000Y-133140000D02*
X346610000Y-147110000D01*
X346610000Y-147110000D02*
X332640000Y-147110000D01*
X332640000Y-147110000D02*
X332640000Y-133140000D01*
X375390000Y-133140000D02*
X389360000Y-133140000D01*
X389360000Y-133140000D02*
X389360000Y-147110000D01*
X389360000Y-147110000D02*
X375390000Y-147110000D01*
X375390000Y-147110000D02*
X375390000Y-133140000D01*
X394390000Y-133140000D02*
X408360000Y-133140000D01*
X408360000Y-133140000D02*
X408360000Y-147110000D01*
X408360000Y-147110000D02*
X394390000Y-147110000D01*
X394390000Y-147110000D02*
X394390000Y-133140000D01*
X413390000Y-133140000D02*
X427360000Y-133140000D01*
X427360000Y-133140000D02*
X427360000Y-147110000D01*
X427360000Y-147110000D02*
X413390000Y-147110000D01*
X413390000Y-147110000D02*
X413390000Y-133140000D01*
X313640000Y-152140000D02*
X327610000Y-152140000D01*
X327610000Y-152140000D02*
X327610000Y-166110000D01*
X327610000Y-166110000D02*
X313640000Y-166110000D01*
X313640000Y-166110000D02*
X313640000Y-152140000D01*
X332640000Y-152140000D02*
X346610000Y-152140000D01*
X346610000Y-152140000D02*
X346610000Y-166110000D01*
X346610000Y-166110000D02*
X332640000Y-166110000D01*
X332640000Y-166110000D02*
X332640000Y-152140000D01*
X351640000Y-152140000D02*
X365610000Y-152140000D01*
X365610000Y-152140000D02*
X365610000Y-166110000D01*
X365610000Y-166110000D02*
X351640000Y-166110000D01*
X351640000Y-166110000D02*
X351640000Y-152140000D01*
X413390000Y-152140000D02*
X427360000Y-152140000D01*
X427360000Y-152140000D02*
X427360000Y-166110000D01*
X427360000Y-166110000D02*
X413390000Y-166110000D01*
X413390000Y-166110000D02*
X413390000Y-152140000D01*
X332640000Y-95140000D02*
X346610000Y-95140000D01*
X346610000Y-95140000D02*
X346610000Y-109110000D01*
X346610000Y-109110000D02*
X332640000Y-109110000D01*
X332640000Y-109110000D02*
X332640000Y-95140000D01*
X50015000Y-114140000D02*
X63985000Y-114140000D01*
X63985000Y-114140000D02*
X63985000Y-128110000D01*
X63985000Y-128110000D02*
X50015000Y-128110000D01*
X50015000Y-128110000D02*
X50015000Y-114140000D01*
X69015000Y-152140000D02*
X82985000Y-152140000D01*
X82985000Y-152140000D02*
X82985000Y-166110000D01*
X82985000Y-166110000D02*
X69015000Y-166110000D01*
X69015000Y-166110000D02*
X69015000Y-152140000D01*
X92765000Y-152140000D02*
X106735000Y-152140000D01*
X106735000Y-152140000D02*
X106735000Y-166110000D01*
X106735000Y-166110000D02*
X92765000Y-166110000D01*
X92765000Y-166110000D02*
X92765000Y-152140000D01*
X235265000Y-152140000D02*
X249235000Y-152140000D01*
X249235000Y-152140000D02*
X249235000Y-166110000D01*
X249235000Y-166110000D02*
X235265000Y-166110000D01*
X235265000Y-166110000D02*
X235265000Y-152140000D01*
X259015000Y-152140000D02*
X272985000Y-152140000D01*
X272985000Y-152140000D02*
X272985000Y-166110000D01*
X272985000Y-166110000D02*
X259015000Y-166110000D01*
X259015000Y-166110000D02*
X259015000Y-152140000D01*
X282765000Y-152140000D02*
X296735000Y-152140000D01*
X296735000Y-152140000D02*
X296735000Y-166110000D01*
X296735000Y-166110000D02*
X282765000Y-166110000D01*
X282765000Y-166110000D02*
X282765000Y-152140000D01*
X45265000Y-133140000D02*
X59235000Y-133140000D01*
X59235000Y-133140000D02*
X59235000Y-147110000D01*
X59235000Y-147110000D02*
X45265000Y-147110000D01*
X45265000Y-147110000D02*
X45265000Y-133140000D01*
X306515000Y-104640000D02*
X320485000Y-104640000D01*
X320485000Y-104640000D02*
X320485000Y-118610000D01*
X320485000Y-118610000D02*
X306515000Y-118610000D01*
X306515000Y-118610000D02*
X306515000Y-104640000D01*
X432390000Y-142640000D02*
X446360000Y-142640000D01*
X446360000Y-142640000D02*
X446360000Y-156610000D01*
X446360000Y-156610000D02*
X432390000Y-156610000D01*
X432390000Y-156610000D02*
X432390000Y-142640000D01*
X432390000Y-104640000D02*
X446360000Y-104640000D01*
X446360000Y-104640000D02*
X446360000Y-118610000D01*
X446360000Y-118610000D02*
X432390000Y-118610000D01*
X432390000Y-118610000D02*
X432390000Y-104640000D01*
X299390000Y-76140000D02*
X313360000Y-76140000D01*
X313360000Y-76140000D02*
X313360000Y-90110000D01*
X313360000Y-90110000D02*
X299390000Y-90110000D01*
X299390000Y-90110000D02*
X299390000Y-76140000D01*
X164015000Y-152140000D02*
X177985000Y-152140000D01*
X177985000Y-152140000D02*
X177985000Y-166110000D01*
X177985000Y-166110000D02*
X164015000Y-166110000D01*
X164015000Y-166110000D02*
X164015000Y-152140000D01*
D12*
X50440476Y-151655762D02*
X50583333Y-151703381D01*
X50821429Y-151703381D01*
X50916667Y-151655762D01*
X50964286Y-151608143D01*
X51011905Y-151512905D01*
X51011905Y-151417667D01*
X50964286Y-151322429D01*
X50916667Y-151274810D01*
X50821429Y-151227190D01*
X50630952Y-151179571D01*
X50535714Y-151131952D01*
X50488095Y-151084333D01*
X50440476Y-150989095D01*
X50440476Y-150893857D01*
X50488095Y-150798619D01*
X50535714Y-150751000D01*
X50630952Y-150703381D01*
X50869048Y-150703381D01*
X51011905Y-150751000D01*
X51345238Y-150703381D02*
X51583333Y-151703381D01*
X51773810Y-150989095D01*
X51964286Y-151703381D01*
X52202381Y-150703381D01*
X52488095Y-150703381D02*
X53154762Y-150703381D01*
X52726190Y-151703381D01*
X53964286Y-151036714D02*
X53964286Y-151703381D01*
X53726190Y-150655762D02*
X53488095Y-151370048D01*
X54107143Y-151370048D01*
X181541667Y-75655762D02*
X181684524Y-75703381D01*
X181922620Y-75703381D01*
X182017858Y-75655762D01*
X182065477Y-75608143D01*
X182113096Y-75512905D01*
X182113096Y-75417667D01*
X182065477Y-75322429D01*
X182017858Y-75274810D01*
X181922620Y-75227190D01*
X181732143Y-75179571D01*
X181636905Y-75131952D01*
X181589286Y-75084333D01*
X181541667Y-74989095D01*
X181541667Y-74893857D01*
X181589286Y-74798619D01*
X181636905Y-74751000D01*
X181732143Y-74703381D01*
X181970239Y-74703381D01*
X182113096Y-74751000D01*
X182446429Y-74703381D02*
X182684524Y-75703381D01*
X182875001Y-74989095D01*
X183065477Y-75703381D01*
X183303572Y-74703381D01*
X183589286Y-74703381D02*
X184255953Y-74703381D01*
X183827381Y-75703381D01*
X162541667Y-75655762D02*
X162684524Y-75703381D01*
X162922620Y-75703381D01*
X163017858Y-75655762D01*
X163065477Y-75608143D01*
X163113096Y-75512905D01*
X163113096Y-75417667D01*
X163065477Y-75322429D01*
X163017858Y-75274810D01*
X162922620Y-75227190D01*
X162732143Y-75179571D01*
X162636905Y-75131952D01*
X162589286Y-75084333D01*
X162541667Y-74989095D01*
X162541667Y-74893857D01*
X162589286Y-74798619D01*
X162636905Y-74751000D01*
X162732143Y-74703381D01*
X162970239Y-74703381D01*
X163113096Y-74751000D01*
X163446429Y-74703381D02*
X163684524Y-75703381D01*
X163875001Y-74989095D01*
X164065477Y-75703381D01*
X164303572Y-74703381D01*
X165113096Y-74703381D02*
X164922619Y-74703381D01*
X164827381Y-74751000D01*
X164779762Y-74798619D01*
X164684524Y-74941476D01*
X164636905Y-75131952D01*
X164636905Y-75512905D01*
X164684524Y-75608143D01*
X164732143Y-75655762D01*
X164827381Y-75703381D01*
X165017858Y-75703381D01*
X165113096Y-75655762D01*
X165160715Y-75608143D01*
X165208334Y-75512905D01*
X165208334Y-75274810D01*
X165160715Y-75179571D01*
X165113096Y-75131952D01*
X165017858Y-75084333D01*
X164827381Y-75084333D01*
X164732143Y-75131952D01*
X164684524Y-75179571D01*
X164636905Y-75274810D01*
X143541667Y-75655762D02*
X143684524Y-75703381D01*
X143922620Y-75703381D01*
X144017858Y-75655762D01*
X144065477Y-75608143D01*
X144113096Y-75512905D01*
X144113096Y-75417667D01*
X144065477Y-75322429D01*
X144017858Y-75274810D01*
X143922620Y-75227190D01*
X143732143Y-75179571D01*
X143636905Y-75131952D01*
X143589286Y-75084333D01*
X143541667Y-74989095D01*
X143541667Y-74893857D01*
X143589286Y-74798619D01*
X143636905Y-74751000D01*
X143732143Y-74703381D01*
X143970239Y-74703381D01*
X144113096Y-74751000D01*
X144446429Y-74703381D02*
X144684524Y-75703381D01*
X144875001Y-74989095D01*
X145065477Y-75703381D01*
X145303572Y-74703381D01*
X146160715Y-74703381D02*
X145684524Y-74703381D01*
X145636905Y-75179571D01*
X145684524Y-75131952D01*
X145779762Y-75084333D01*
X146017858Y-75084333D01*
X146113096Y-75131952D01*
X146160715Y-75179571D01*
X146208334Y-75274810D01*
X146208334Y-75512905D01*
X146160715Y-75608143D01*
X146113096Y-75655762D01*
X146017858Y-75703381D01*
X145779762Y-75703381D01*
X145684524Y-75655762D01*
X145636905Y-75608143D01*
X86541667Y-75655762D02*
X86684524Y-75703381D01*
X86922620Y-75703381D01*
X87017858Y-75655762D01*
X87065477Y-75608143D01*
X87113096Y-75512905D01*
X87113096Y-75417667D01*
X87065477Y-75322429D01*
X87017858Y-75274810D01*
X86922620Y-75227190D01*
X86732143Y-75179571D01*
X86636905Y-75131952D01*
X86589286Y-75084333D01*
X86541667Y-74989095D01*
X86541667Y-74893857D01*
X86589286Y-74798619D01*
X86636905Y-74751000D01*
X86732143Y-74703381D01*
X86970239Y-74703381D01*
X87113096Y-74751000D01*
X87446429Y-74703381D02*
X87684524Y-75703381D01*
X87875001Y-74989095D01*
X88065477Y-75703381D01*
X88303572Y-74703381D01*
X88636905Y-74798619D02*
X88684524Y-74751000D01*
X88779762Y-74703381D01*
X89017858Y-74703381D01*
X89113096Y-74751000D01*
X89160715Y-74798619D01*
X89208334Y-74893857D01*
X89208334Y-74989095D01*
X89160715Y-75131952D01*
X88589286Y-75703381D01*
X89208334Y-75703381D01*
X297440476Y-132655762D02*
X297583333Y-132703381D01*
X297821429Y-132703381D01*
X297916667Y-132655762D01*
X297964286Y-132608143D01*
X298011905Y-132512905D01*
X298011905Y-132417667D01*
X297964286Y-132322429D01*
X297916667Y-132274810D01*
X297821429Y-132227190D01*
X297630952Y-132179571D01*
X297535714Y-132131952D01*
X297488095Y-132084333D01*
X297440476Y-131989095D01*
X297440476Y-131893857D01*
X297488095Y-131798619D01*
X297535714Y-131751000D01*
X297630952Y-131703381D01*
X297869048Y-131703381D01*
X298011905Y-131751000D01*
X298345238Y-131703381D02*
X298583333Y-132703381D01*
X298773810Y-131989095D01*
X298964286Y-132703381D01*
X299202381Y-131703381D01*
X300011905Y-131703381D02*
X299821428Y-131703381D01*
X299726190Y-131751000D01*
X299678571Y-131798619D01*
X299583333Y-131941476D01*
X299535714Y-132131952D01*
X299535714Y-132512905D01*
X299583333Y-132608143D01*
X299630952Y-132655762D01*
X299726190Y-132703381D01*
X299916667Y-132703381D01*
X300011905Y-132655762D01*
X300059524Y-132608143D01*
X300107143Y-132512905D01*
X300107143Y-132274810D01*
X300059524Y-132179571D01*
X300011905Y-132131952D01*
X299916667Y-132084333D01*
X299726190Y-132084333D01*
X299630952Y-132131952D01*
X299583333Y-132179571D01*
X299535714Y-132274810D01*
X300678571Y-132131952D02*
X300583333Y-132084333D01*
X300535714Y-132036714D01*
X300488095Y-131941476D01*
X300488095Y-131893857D01*
X300535714Y-131798619D01*
X300583333Y-131751000D01*
X300678571Y-131703381D01*
X300869048Y-131703381D01*
X300964286Y-131751000D01*
X301011905Y-131798619D01*
X301059524Y-131893857D01*
X301059524Y-131941476D01*
X301011905Y-132036714D01*
X300964286Y-132084333D01*
X300869048Y-132131952D01*
X300678571Y-132131952D01*
X300583333Y-132179571D01*
X300535714Y-132227190D01*
X300488095Y-132322429D01*
X300488095Y-132512905D01*
X300535714Y-132608143D01*
X300583333Y-132655762D01*
X300678571Y-132703381D01*
X300869048Y-132703381D01*
X300964286Y-132655762D01*
X301011905Y-132608143D01*
X301059524Y-132512905D01*
X301059524Y-132322429D01*
X301011905Y-132227190D01*
X300964286Y-132179571D01*
X300869048Y-132131952D01*
X52815476Y-94655762D02*
X52958333Y-94703381D01*
X53196429Y-94703381D01*
X53291667Y-94655762D01*
X53339286Y-94608143D01*
X53386905Y-94512905D01*
X53386905Y-94417667D01*
X53339286Y-94322429D01*
X53291667Y-94274810D01*
X53196429Y-94227190D01*
X53005952Y-94179571D01*
X52910714Y-94131952D01*
X52863095Y-94084333D01*
X52815476Y-93989095D01*
X52815476Y-93893857D01*
X52863095Y-93798619D01*
X52910714Y-93751000D01*
X53005952Y-93703381D01*
X53244048Y-93703381D01*
X53386905Y-93751000D01*
X53720238Y-93703381D02*
X53958333Y-94703381D01*
X54148810Y-93989095D01*
X54339286Y-94703381D01*
X54577381Y-93703381D01*
X54910714Y-93798619D02*
X54958333Y-93751000D01*
X55053571Y-93703381D01*
X55291667Y-93703381D01*
X55386905Y-93751000D01*
X55434524Y-93798619D01*
X55482143Y-93893857D01*
X55482143Y-93989095D01*
X55434524Y-94131952D01*
X54863095Y-94703381D01*
X55482143Y-94703381D01*
X56101190Y-93703381D02*
X56196429Y-93703381D01*
X56291667Y-93751000D01*
X56339286Y-93798619D01*
X56386905Y-93893857D01*
X56434524Y-94084333D01*
X56434524Y-94322429D01*
X56386905Y-94512905D01*
X56339286Y-94608143D01*
X56291667Y-94655762D01*
X56196429Y-94703381D01*
X56101190Y-94703381D01*
X56005952Y-94655762D01*
X55958333Y-94608143D01*
X55910714Y-94512905D01*
X55863095Y-94322429D01*
X55863095Y-94084333D01*
X55910714Y-93893857D01*
X55958333Y-93798619D01*
X56005952Y-93751000D01*
X56101190Y-93703381D01*
X390065476Y-151655762D02*
X390208333Y-151703381D01*
X390446429Y-151703381D01*
X390541667Y-151655762D01*
X390589286Y-151608143D01*
X390636905Y-151512905D01*
X390636905Y-151417667D01*
X390589286Y-151322429D01*
X390541667Y-151274810D01*
X390446429Y-151227190D01*
X390255952Y-151179571D01*
X390160714Y-151131952D01*
X390113095Y-151084333D01*
X390065476Y-150989095D01*
X390065476Y-150893857D01*
X390113095Y-150798619D01*
X390160714Y-150751000D01*
X390255952Y-150703381D01*
X390494048Y-150703381D01*
X390636905Y-150751000D01*
X390970238Y-150703381D02*
X391208333Y-151703381D01*
X391398810Y-150989095D01*
X391589286Y-151703381D01*
X391827381Y-150703381D01*
X392351190Y-151131952D02*
X392255952Y-151084333D01*
X392208333Y-151036714D01*
X392160714Y-150941476D01*
X392160714Y-150893857D01*
X392208333Y-150798619D01*
X392255952Y-150751000D01*
X392351190Y-150703381D01*
X392541667Y-150703381D01*
X392636905Y-150751000D01*
X392684524Y-150798619D01*
X392732143Y-150893857D01*
X392732143Y-150941476D01*
X392684524Y-151036714D01*
X392636905Y-151084333D01*
X392541667Y-151131952D01*
X392351190Y-151131952D01*
X392255952Y-151179571D01*
X392208333Y-151227190D01*
X392160714Y-151322429D01*
X392160714Y-151512905D01*
X392208333Y-151608143D01*
X392255952Y-151655762D01*
X392351190Y-151703381D01*
X392541667Y-151703381D01*
X392636905Y-151655762D01*
X392684524Y-151608143D01*
X392732143Y-151512905D01*
X392732143Y-151322429D01*
X392684524Y-151227190D01*
X392636905Y-151179571D01*
X392541667Y-151131952D01*
X393589286Y-151036714D02*
X393589286Y-151703381D01*
X393351190Y-150655762D02*
X393113095Y-151370048D01*
X393732143Y-151370048D01*
X48541667Y-75655762D02*
X48684524Y-75703381D01*
X48922620Y-75703381D01*
X49017858Y-75655762D01*
X49065477Y-75608143D01*
X49113096Y-75512905D01*
X49113096Y-75417667D01*
X49065477Y-75322429D01*
X49017858Y-75274810D01*
X48922620Y-75227190D01*
X48732143Y-75179571D01*
X48636905Y-75131952D01*
X48589286Y-75084333D01*
X48541667Y-74989095D01*
X48541667Y-74893857D01*
X48589286Y-74798619D01*
X48636905Y-74751000D01*
X48732143Y-74703381D01*
X48970239Y-74703381D01*
X49113096Y-74751000D01*
X49446429Y-74703381D02*
X49684524Y-75703381D01*
X49875001Y-74989095D01*
X50065477Y-75703381D01*
X50303572Y-74703381D01*
X50875000Y-74703381D02*
X50970239Y-74703381D01*
X51065477Y-74751000D01*
X51113096Y-74798619D01*
X51160715Y-74893857D01*
X51208334Y-75084333D01*
X51208334Y-75322429D01*
X51160715Y-75512905D01*
X51113096Y-75608143D01*
X51065477Y-75655762D01*
X50970239Y-75703381D01*
X50875000Y-75703381D01*
X50779762Y-75655762D01*
X50732143Y-75608143D01*
X50684524Y-75512905D01*
X50636905Y-75322429D01*
X50636905Y-75084333D01*
X50684524Y-74893857D01*
X50732143Y-74798619D01*
X50779762Y-74751000D01*
X50875000Y-74703381D01*
X67541667Y-75655762D02*
X67684524Y-75703381D01*
X67922620Y-75703381D01*
X68017858Y-75655762D01*
X68065477Y-75608143D01*
X68113096Y-75512905D01*
X68113096Y-75417667D01*
X68065477Y-75322429D01*
X68017858Y-75274810D01*
X67922620Y-75227190D01*
X67732143Y-75179571D01*
X67636905Y-75131952D01*
X67589286Y-75084333D01*
X67541667Y-74989095D01*
X67541667Y-74893857D01*
X67589286Y-74798619D01*
X67636905Y-74751000D01*
X67732143Y-74703381D01*
X67970239Y-74703381D01*
X68113096Y-74751000D01*
X68446429Y-74703381D02*
X68684524Y-75703381D01*
X68875001Y-74989095D01*
X69065477Y-75703381D01*
X69303572Y-74703381D01*
X70208334Y-75703381D02*
X69636905Y-75703381D01*
X69922619Y-75703381D02*
X69922619Y-74703381D01*
X69827381Y-74846238D01*
X69732143Y-74941476D01*
X69636905Y-74989095D01*
X105541667Y-75655762D02*
X105684524Y-75703381D01*
X105922620Y-75703381D01*
X106017858Y-75655762D01*
X106065477Y-75608143D01*
X106113096Y-75512905D01*
X106113096Y-75417667D01*
X106065477Y-75322429D01*
X106017858Y-75274810D01*
X105922620Y-75227190D01*
X105732143Y-75179571D01*
X105636905Y-75131952D01*
X105589286Y-75084333D01*
X105541667Y-74989095D01*
X105541667Y-74893857D01*
X105589286Y-74798619D01*
X105636905Y-74751000D01*
X105732143Y-74703381D01*
X105970239Y-74703381D01*
X106113096Y-74751000D01*
X106446429Y-74703381D02*
X106684524Y-75703381D01*
X106875001Y-74989095D01*
X107065477Y-75703381D01*
X107303572Y-74703381D01*
X107589286Y-74703381D02*
X108208334Y-74703381D01*
X107875000Y-75084333D01*
X108017858Y-75084333D01*
X108113096Y-75131952D01*
X108160715Y-75179571D01*
X108208334Y-75274810D01*
X108208334Y-75512905D01*
X108160715Y-75608143D01*
X108113096Y-75655762D01*
X108017858Y-75703381D01*
X107732143Y-75703381D01*
X107636905Y-75655762D01*
X107589286Y-75608143D01*
X124541667Y-75655762D02*
X124684524Y-75703381D01*
X124922620Y-75703381D01*
X125017858Y-75655762D01*
X125065477Y-75608143D01*
X125113096Y-75512905D01*
X125113096Y-75417667D01*
X125065477Y-75322429D01*
X125017858Y-75274810D01*
X124922620Y-75227190D01*
X124732143Y-75179571D01*
X124636905Y-75131952D01*
X124589286Y-75084333D01*
X124541667Y-74989095D01*
X124541667Y-74893857D01*
X124589286Y-74798619D01*
X124636905Y-74751000D01*
X124732143Y-74703381D01*
X124970239Y-74703381D01*
X125113096Y-74751000D01*
X125446429Y-74703381D02*
X125684524Y-75703381D01*
X125875001Y-74989095D01*
X126065477Y-75703381D01*
X126303572Y-74703381D01*
X127113096Y-75036714D02*
X127113096Y-75703381D01*
X126875000Y-74655762D02*
X126636905Y-75370048D01*
X127255953Y-75370048D01*
X200541667Y-75655762D02*
X200684524Y-75703381D01*
X200922620Y-75703381D01*
X201017858Y-75655762D01*
X201065477Y-75608143D01*
X201113096Y-75512905D01*
X201113096Y-75417667D01*
X201065477Y-75322429D01*
X201017858Y-75274810D01*
X200922620Y-75227190D01*
X200732143Y-75179571D01*
X200636905Y-75131952D01*
X200589286Y-75084333D01*
X200541667Y-74989095D01*
X200541667Y-74893857D01*
X200589286Y-74798619D01*
X200636905Y-74751000D01*
X200732143Y-74703381D01*
X200970239Y-74703381D01*
X201113096Y-74751000D01*
X201446429Y-74703381D02*
X201684524Y-75703381D01*
X201875001Y-74989095D01*
X202065477Y-75703381D01*
X202303572Y-74703381D01*
X202827381Y-75131952D02*
X202732143Y-75084333D01*
X202684524Y-75036714D01*
X202636905Y-74941476D01*
X202636905Y-74893857D01*
X202684524Y-74798619D01*
X202732143Y-74751000D01*
X202827381Y-74703381D01*
X203017858Y-74703381D01*
X203113096Y-74751000D01*
X203160715Y-74798619D01*
X203208334Y-74893857D01*
X203208334Y-74941476D01*
X203160715Y-75036714D01*
X203113096Y-75084333D01*
X203017858Y-75131952D01*
X202827381Y-75131952D01*
X202732143Y-75179571D01*
X202684524Y-75227190D01*
X202636905Y-75322429D01*
X202636905Y-75512905D01*
X202684524Y-75608143D01*
X202732143Y-75655762D01*
X202827381Y-75703381D01*
X203017858Y-75703381D01*
X203113096Y-75655762D01*
X203160715Y-75608143D01*
X203208334Y-75512905D01*
X203208334Y-75322429D01*
X203160715Y-75227190D01*
X203113096Y-75179571D01*
X203017858Y-75131952D01*
X219541667Y-75655762D02*
X219684524Y-75703381D01*
X219922620Y-75703381D01*
X220017858Y-75655762D01*
X220065477Y-75608143D01*
X220113096Y-75512905D01*
X220113096Y-75417667D01*
X220065477Y-75322429D01*
X220017858Y-75274810D01*
X219922620Y-75227190D01*
X219732143Y-75179571D01*
X219636905Y-75131952D01*
X219589286Y-75084333D01*
X219541667Y-74989095D01*
X219541667Y-74893857D01*
X219589286Y-74798619D01*
X219636905Y-74751000D01*
X219732143Y-74703381D01*
X219970239Y-74703381D01*
X220113096Y-74751000D01*
X220446429Y-74703381D02*
X220684524Y-75703381D01*
X220875001Y-74989095D01*
X221065477Y-75703381D01*
X221303572Y-74703381D01*
X221732143Y-75703381D02*
X221922619Y-75703381D01*
X222017858Y-75655762D01*
X222065477Y-75608143D01*
X222160715Y-75465286D01*
X222208334Y-75274810D01*
X222208334Y-74893857D01*
X222160715Y-74798619D01*
X222113096Y-74751000D01*
X222017858Y-74703381D01*
X221827381Y-74703381D01*
X221732143Y-74751000D01*
X221684524Y-74798619D01*
X221636905Y-74893857D01*
X221636905Y-75131952D01*
X221684524Y-75227190D01*
X221732143Y-75274810D01*
X221827381Y-75322429D01*
X222017858Y-75322429D01*
X222113096Y-75274810D01*
X222160715Y-75227190D01*
X222208334Y-75131952D01*
X238065476Y-75655762D02*
X238208333Y-75703381D01*
X238446429Y-75703381D01*
X238541667Y-75655762D01*
X238589286Y-75608143D01*
X238636905Y-75512905D01*
X238636905Y-75417667D01*
X238589286Y-75322429D01*
X238541667Y-75274810D01*
X238446429Y-75227190D01*
X238255952Y-75179571D01*
X238160714Y-75131952D01*
X238113095Y-75084333D01*
X238065476Y-74989095D01*
X238065476Y-74893857D01*
X238113095Y-74798619D01*
X238160714Y-74751000D01*
X238255952Y-74703381D01*
X238494048Y-74703381D01*
X238636905Y-74751000D01*
X238970238Y-74703381D02*
X239208333Y-75703381D01*
X239398810Y-74989095D01*
X239589286Y-75703381D01*
X239827381Y-74703381D01*
X240732143Y-75703381D02*
X240160714Y-75703381D01*
X240446428Y-75703381D02*
X240446428Y-74703381D01*
X240351190Y-74846238D01*
X240255952Y-74941476D01*
X240160714Y-74989095D01*
X241351190Y-74703381D02*
X241446429Y-74703381D01*
X241541667Y-74751000D01*
X241589286Y-74798619D01*
X241636905Y-74893857D01*
X241684524Y-75084333D01*
X241684524Y-75322429D01*
X241636905Y-75512905D01*
X241589286Y-75608143D01*
X241541667Y-75655762D01*
X241446429Y-75703381D01*
X241351190Y-75703381D01*
X241255952Y-75655762D01*
X241208333Y-75608143D01*
X241160714Y-75512905D01*
X241113095Y-75322429D01*
X241113095Y-75084333D01*
X241160714Y-74893857D01*
X241208333Y-74798619D01*
X241255952Y-74751000D01*
X241351190Y-74703381D01*
X257065476Y-75655762D02*
X257208333Y-75703381D01*
X257446429Y-75703381D01*
X257541667Y-75655762D01*
X257589286Y-75608143D01*
X257636905Y-75512905D01*
X257636905Y-75417667D01*
X257589286Y-75322429D01*
X257541667Y-75274810D01*
X257446429Y-75227190D01*
X257255952Y-75179571D01*
X257160714Y-75131952D01*
X257113095Y-75084333D01*
X257065476Y-74989095D01*
X257065476Y-74893857D01*
X257113095Y-74798619D01*
X257160714Y-74751000D01*
X257255952Y-74703381D01*
X257494048Y-74703381D01*
X257636905Y-74751000D01*
X257970238Y-74703381D02*
X258208333Y-75703381D01*
X258398810Y-74989095D01*
X258589286Y-75703381D01*
X258827381Y-74703381D01*
X259732143Y-75703381D02*
X259160714Y-75703381D01*
X259446428Y-75703381D02*
X259446428Y-74703381D01*
X259351190Y-74846238D01*
X259255952Y-74941476D01*
X259160714Y-74989095D01*
X260684524Y-75703381D02*
X260113095Y-75703381D01*
X260398809Y-75703381D02*
X260398809Y-74703381D01*
X260303571Y-74846238D01*
X260208333Y-74941476D01*
X260113095Y-74989095D01*
X276065476Y-75655762D02*
X276208333Y-75703381D01*
X276446429Y-75703381D01*
X276541667Y-75655762D01*
X276589286Y-75608143D01*
X276636905Y-75512905D01*
X276636905Y-75417667D01*
X276589286Y-75322429D01*
X276541667Y-75274810D01*
X276446429Y-75227190D01*
X276255952Y-75179571D01*
X276160714Y-75131952D01*
X276113095Y-75084333D01*
X276065476Y-74989095D01*
X276065476Y-74893857D01*
X276113095Y-74798619D01*
X276160714Y-74751000D01*
X276255952Y-74703381D01*
X276494048Y-74703381D01*
X276636905Y-74751000D01*
X276970238Y-74703381D02*
X277208333Y-75703381D01*
X277398810Y-74989095D01*
X277589286Y-75703381D01*
X277827381Y-74703381D01*
X278732143Y-75703381D02*
X278160714Y-75703381D01*
X278446428Y-75703381D02*
X278446428Y-74703381D01*
X278351190Y-74846238D01*
X278255952Y-74941476D01*
X278160714Y-74989095D01*
X279113095Y-74798619D02*
X279160714Y-74751000D01*
X279255952Y-74703381D01*
X279494048Y-74703381D01*
X279589286Y-74751000D01*
X279636905Y-74798619D01*
X279684524Y-74893857D01*
X279684524Y-74989095D01*
X279636905Y-75131952D01*
X279065476Y-75703381D01*
X279684524Y-75703381D01*
X337815476Y-75655762D02*
X337958333Y-75703381D01*
X338196429Y-75703381D01*
X338291667Y-75655762D01*
X338339286Y-75608143D01*
X338386905Y-75512905D01*
X338386905Y-75417667D01*
X338339286Y-75322429D01*
X338291667Y-75274810D01*
X338196429Y-75227190D01*
X338005952Y-75179571D01*
X337910714Y-75131952D01*
X337863095Y-75084333D01*
X337815476Y-74989095D01*
X337815476Y-74893857D01*
X337863095Y-74798619D01*
X337910714Y-74751000D01*
X338005952Y-74703381D01*
X338244048Y-74703381D01*
X338386905Y-74751000D01*
X338720238Y-74703381D02*
X338958333Y-75703381D01*
X339148810Y-74989095D01*
X339339286Y-75703381D01*
X339577381Y-74703381D01*
X340482143Y-75703381D02*
X339910714Y-75703381D01*
X340196428Y-75703381D02*
X340196428Y-74703381D01*
X340101190Y-74846238D01*
X340005952Y-74941476D01*
X339910714Y-74989095D01*
X341339286Y-75036714D02*
X341339286Y-75703381D01*
X341101190Y-74655762D02*
X340863095Y-75370048D01*
X341482143Y-75370048D01*
X356815476Y-75655762D02*
X356958333Y-75703381D01*
X357196429Y-75703381D01*
X357291667Y-75655762D01*
X357339286Y-75608143D01*
X357386905Y-75512905D01*
X357386905Y-75417667D01*
X357339286Y-75322429D01*
X357291667Y-75274810D01*
X357196429Y-75227190D01*
X357005952Y-75179571D01*
X356910714Y-75131952D01*
X356863095Y-75084333D01*
X356815476Y-74989095D01*
X356815476Y-74893857D01*
X356863095Y-74798619D01*
X356910714Y-74751000D01*
X357005952Y-74703381D01*
X357244048Y-74703381D01*
X357386905Y-74751000D01*
X357720238Y-74703381D02*
X357958333Y-75703381D01*
X358148810Y-74989095D01*
X358339286Y-75703381D01*
X358577381Y-74703381D01*
X359482143Y-75703381D02*
X358910714Y-75703381D01*
X359196428Y-75703381D02*
X359196428Y-74703381D01*
X359101190Y-74846238D01*
X359005952Y-74941476D01*
X358910714Y-74989095D01*
X360386905Y-74703381D02*
X359910714Y-74703381D01*
X359863095Y-75179571D01*
X359910714Y-75131952D01*
X360005952Y-75084333D01*
X360244048Y-75084333D01*
X360339286Y-75131952D01*
X360386905Y-75179571D01*
X360434524Y-75274810D01*
X360434524Y-75512905D01*
X360386905Y-75608143D01*
X360339286Y-75655762D01*
X360244048Y-75703381D01*
X360005952Y-75703381D01*
X359910714Y-75655762D01*
X359863095Y-75608143D01*
X380565476Y-75655762D02*
X380708333Y-75703381D01*
X380946429Y-75703381D01*
X381041667Y-75655762D01*
X381089286Y-75608143D01*
X381136905Y-75512905D01*
X381136905Y-75417667D01*
X381089286Y-75322429D01*
X381041667Y-75274810D01*
X380946429Y-75227190D01*
X380755952Y-75179571D01*
X380660714Y-75131952D01*
X380613095Y-75084333D01*
X380565476Y-74989095D01*
X380565476Y-74893857D01*
X380613095Y-74798619D01*
X380660714Y-74751000D01*
X380755952Y-74703381D01*
X380994048Y-74703381D01*
X381136905Y-74751000D01*
X381470238Y-74703381D02*
X381708333Y-75703381D01*
X381898810Y-74989095D01*
X382089286Y-75703381D01*
X382327381Y-74703381D01*
X383232143Y-75703381D02*
X382660714Y-75703381D01*
X382946428Y-75703381D02*
X382946428Y-74703381D01*
X382851190Y-74846238D01*
X382755952Y-74941476D01*
X382660714Y-74989095D01*
X384089286Y-74703381D02*
X383898809Y-74703381D01*
X383803571Y-74751000D01*
X383755952Y-74798619D01*
X383660714Y-74941476D01*
X383613095Y-75131952D01*
X383613095Y-75512905D01*
X383660714Y-75608143D01*
X383708333Y-75655762D01*
X383803571Y-75703381D01*
X383994048Y-75703381D01*
X384089286Y-75655762D01*
X384136905Y-75608143D01*
X384184524Y-75512905D01*
X384184524Y-75274810D01*
X384136905Y-75179571D01*
X384089286Y-75131952D01*
X383994048Y-75084333D01*
X383803571Y-75084333D01*
X383708333Y-75131952D01*
X383660714Y-75179571D01*
X383613095Y-75274810D01*
X399565476Y-75655762D02*
X399708333Y-75703381D01*
X399946429Y-75703381D01*
X400041667Y-75655762D01*
X400089286Y-75608143D01*
X400136905Y-75512905D01*
X400136905Y-75417667D01*
X400089286Y-75322429D01*
X400041667Y-75274810D01*
X399946429Y-75227190D01*
X399755952Y-75179571D01*
X399660714Y-75131952D01*
X399613095Y-75084333D01*
X399565476Y-74989095D01*
X399565476Y-74893857D01*
X399613095Y-74798619D01*
X399660714Y-74751000D01*
X399755952Y-74703381D01*
X399994048Y-74703381D01*
X400136905Y-74751000D01*
X400470238Y-74703381D02*
X400708333Y-75703381D01*
X400898810Y-74989095D01*
X401089286Y-75703381D01*
X401327381Y-74703381D01*
X402232143Y-75703381D02*
X401660714Y-75703381D01*
X401946428Y-75703381D02*
X401946428Y-74703381D01*
X401851190Y-74846238D01*
X401755952Y-74941476D01*
X401660714Y-74989095D01*
X402565476Y-74703381D02*
X403232143Y-74703381D01*
X402803571Y-75703381D01*
X418565476Y-75655762D02*
X418708333Y-75703381D01*
X418946429Y-75703381D01*
X419041667Y-75655762D01*
X419089286Y-75608143D01*
X419136905Y-75512905D01*
X419136905Y-75417667D01*
X419089286Y-75322429D01*
X419041667Y-75274810D01*
X418946429Y-75227190D01*
X418755952Y-75179571D01*
X418660714Y-75131952D01*
X418613095Y-75084333D01*
X418565476Y-74989095D01*
X418565476Y-74893857D01*
X418613095Y-74798619D01*
X418660714Y-74751000D01*
X418755952Y-74703381D01*
X418994048Y-74703381D01*
X419136905Y-74751000D01*
X419470238Y-74703381D02*
X419708333Y-75703381D01*
X419898810Y-74989095D01*
X420089286Y-75703381D01*
X420327381Y-74703381D01*
X421232143Y-75703381D02*
X420660714Y-75703381D01*
X420946428Y-75703381D02*
X420946428Y-74703381D01*
X420851190Y-74846238D01*
X420755952Y-74941476D01*
X420660714Y-74989095D01*
X421803571Y-75131952D02*
X421708333Y-75084333D01*
X421660714Y-75036714D01*
X421613095Y-74941476D01*
X421613095Y-74893857D01*
X421660714Y-74798619D01*
X421708333Y-74751000D01*
X421803571Y-74703381D01*
X421994048Y-74703381D01*
X422089286Y-74751000D01*
X422136905Y-74798619D01*
X422184524Y-74893857D01*
X422184524Y-74941476D01*
X422136905Y-75036714D01*
X422089286Y-75084333D01*
X421994048Y-75131952D01*
X421803571Y-75131952D01*
X421708333Y-75179571D01*
X421660714Y-75227190D01*
X421613095Y-75322429D01*
X421613095Y-75512905D01*
X421660714Y-75608143D01*
X421708333Y-75655762D01*
X421803571Y-75703381D01*
X421994048Y-75703381D01*
X422089286Y-75655762D01*
X422136905Y-75608143D01*
X422184524Y-75512905D01*
X422184524Y-75322429D01*
X422136905Y-75227190D01*
X422089286Y-75179571D01*
X421994048Y-75131952D01*
X437565476Y-75655762D02*
X437708333Y-75703381D01*
X437946429Y-75703381D01*
X438041667Y-75655762D01*
X438089286Y-75608143D01*
X438136905Y-75512905D01*
X438136905Y-75417667D01*
X438089286Y-75322429D01*
X438041667Y-75274810D01*
X437946429Y-75227190D01*
X437755952Y-75179571D01*
X437660714Y-75131952D01*
X437613095Y-75084333D01*
X437565476Y-74989095D01*
X437565476Y-74893857D01*
X437613095Y-74798619D01*
X437660714Y-74751000D01*
X437755952Y-74703381D01*
X437994048Y-74703381D01*
X438136905Y-74751000D01*
X438470238Y-74703381D02*
X438708333Y-75703381D01*
X438898810Y-74989095D01*
X439089286Y-75703381D01*
X439327381Y-74703381D01*
X440232143Y-75703381D02*
X439660714Y-75703381D01*
X439946428Y-75703381D02*
X439946428Y-74703381D01*
X439851190Y-74846238D01*
X439755952Y-74941476D01*
X439660714Y-74989095D01*
X440708333Y-75703381D02*
X440898809Y-75703381D01*
X440994048Y-75655762D01*
X441041667Y-75608143D01*
X441136905Y-75465286D01*
X441184524Y-75274810D01*
X441184524Y-74893857D01*
X441136905Y-74798619D01*
X441089286Y-74751000D01*
X440994048Y-74703381D01*
X440803571Y-74703381D01*
X440708333Y-74751000D01*
X440660714Y-74798619D01*
X440613095Y-74893857D01*
X440613095Y-75131952D01*
X440660714Y-75227190D01*
X440708333Y-75274810D01*
X440803571Y-75322429D01*
X440994048Y-75322429D01*
X441089286Y-75274810D01*
X441136905Y-75227190D01*
X441184524Y-75131952D01*
X76565476Y-94655762D02*
X76708333Y-94703381D01*
X76946429Y-94703381D01*
X77041667Y-94655762D01*
X77089286Y-94608143D01*
X77136905Y-94512905D01*
X77136905Y-94417667D01*
X77089286Y-94322429D01*
X77041667Y-94274810D01*
X76946429Y-94227190D01*
X76755952Y-94179571D01*
X76660714Y-94131952D01*
X76613095Y-94084333D01*
X76565476Y-93989095D01*
X76565476Y-93893857D01*
X76613095Y-93798619D01*
X76660714Y-93751000D01*
X76755952Y-93703381D01*
X76994048Y-93703381D01*
X77136905Y-93751000D01*
X77470238Y-93703381D02*
X77708333Y-94703381D01*
X77898810Y-93989095D01*
X78089286Y-94703381D01*
X78327381Y-93703381D01*
X78660714Y-93798619D02*
X78708333Y-93751000D01*
X78803571Y-93703381D01*
X79041667Y-93703381D01*
X79136905Y-93751000D01*
X79184524Y-93798619D01*
X79232143Y-93893857D01*
X79232143Y-93989095D01*
X79184524Y-94131952D01*
X78613095Y-94703381D01*
X79232143Y-94703381D01*
X80184524Y-94703381D02*
X79613095Y-94703381D01*
X79898809Y-94703381D02*
X79898809Y-93703381D01*
X79803571Y-93846238D01*
X79708333Y-93941476D01*
X79613095Y-93989095D01*
X95565476Y-94655762D02*
X95708333Y-94703381D01*
X95946429Y-94703381D01*
X96041667Y-94655762D01*
X96089286Y-94608143D01*
X96136905Y-94512905D01*
X96136905Y-94417667D01*
X96089286Y-94322429D01*
X96041667Y-94274810D01*
X95946429Y-94227190D01*
X95755952Y-94179571D01*
X95660714Y-94131952D01*
X95613095Y-94084333D01*
X95565476Y-93989095D01*
X95565476Y-93893857D01*
X95613095Y-93798619D01*
X95660714Y-93751000D01*
X95755952Y-93703381D01*
X95994048Y-93703381D01*
X96136905Y-93751000D01*
X96470238Y-93703381D02*
X96708333Y-94703381D01*
X96898810Y-93989095D01*
X97089286Y-94703381D01*
X97327381Y-93703381D01*
X97660714Y-93798619D02*
X97708333Y-93751000D01*
X97803571Y-93703381D01*
X98041667Y-93703381D01*
X98136905Y-93751000D01*
X98184524Y-93798619D01*
X98232143Y-93893857D01*
X98232143Y-93989095D01*
X98184524Y-94131952D01*
X97613095Y-94703381D01*
X98232143Y-94703381D01*
X98613095Y-93798619D02*
X98660714Y-93751000D01*
X98755952Y-93703381D01*
X98994048Y-93703381D01*
X99089286Y-93751000D01*
X99136905Y-93798619D01*
X99184524Y-93893857D01*
X99184524Y-93989095D01*
X99136905Y-94131952D01*
X98565476Y-94703381D01*
X99184524Y-94703381D01*
X114565476Y-94655762D02*
X114708333Y-94703381D01*
X114946429Y-94703381D01*
X115041667Y-94655762D01*
X115089286Y-94608143D01*
X115136905Y-94512905D01*
X115136905Y-94417667D01*
X115089286Y-94322429D01*
X115041667Y-94274810D01*
X114946429Y-94227190D01*
X114755952Y-94179571D01*
X114660714Y-94131952D01*
X114613095Y-94084333D01*
X114565476Y-93989095D01*
X114565476Y-93893857D01*
X114613095Y-93798619D01*
X114660714Y-93751000D01*
X114755952Y-93703381D01*
X114994048Y-93703381D01*
X115136905Y-93751000D01*
X115470238Y-93703381D02*
X115708333Y-94703381D01*
X115898810Y-93989095D01*
X116089286Y-94703381D01*
X116327381Y-93703381D01*
X116660714Y-93798619D02*
X116708333Y-93751000D01*
X116803571Y-93703381D01*
X117041667Y-93703381D01*
X117136905Y-93751000D01*
X117184524Y-93798619D01*
X117232143Y-93893857D01*
X117232143Y-93989095D01*
X117184524Y-94131952D01*
X116613095Y-94703381D01*
X117232143Y-94703381D01*
X117565476Y-93703381D02*
X118184524Y-93703381D01*
X117851190Y-94084333D01*
X117994048Y-94084333D01*
X118089286Y-94131952D01*
X118136905Y-94179571D01*
X118184524Y-94274810D01*
X118184524Y-94512905D01*
X118136905Y-94608143D01*
X118089286Y-94655762D01*
X117994048Y-94703381D01*
X117708333Y-94703381D01*
X117613095Y-94655762D01*
X117565476Y-94608143D01*
X133565476Y-94655762D02*
X133708333Y-94703381D01*
X133946429Y-94703381D01*
X134041667Y-94655762D01*
X134089286Y-94608143D01*
X134136905Y-94512905D01*
X134136905Y-94417667D01*
X134089286Y-94322429D01*
X134041667Y-94274810D01*
X133946429Y-94227190D01*
X133755952Y-94179571D01*
X133660714Y-94131952D01*
X133613095Y-94084333D01*
X133565476Y-93989095D01*
X133565476Y-93893857D01*
X133613095Y-93798619D01*
X133660714Y-93751000D01*
X133755952Y-93703381D01*
X133994048Y-93703381D01*
X134136905Y-93751000D01*
X134470238Y-93703381D02*
X134708333Y-94703381D01*
X134898810Y-93989095D01*
X135089286Y-94703381D01*
X135327381Y-93703381D01*
X135660714Y-93798619D02*
X135708333Y-93751000D01*
X135803571Y-93703381D01*
X136041667Y-93703381D01*
X136136905Y-93751000D01*
X136184524Y-93798619D01*
X136232143Y-93893857D01*
X136232143Y-93989095D01*
X136184524Y-94131952D01*
X135613095Y-94703381D01*
X136232143Y-94703381D01*
X137089286Y-94036714D02*
X137089286Y-94703381D01*
X136851190Y-93655762D02*
X136613095Y-94370048D01*
X137232143Y-94370048D01*
X152565476Y-94655762D02*
X152708333Y-94703381D01*
X152946429Y-94703381D01*
X153041667Y-94655762D01*
X153089286Y-94608143D01*
X153136905Y-94512905D01*
X153136905Y-94417667D01*
X153089286Y-94322429D01*
X153041667Y-94274810D01*
X152946429Y-94227190D01*
X152755952Y-94179571D01*
X152660714Y-94131952D01*
X152613095Y-94084333D01*
X152565476Y-93989095D01*
X152565476Y-93893857D01*
X152613095Y-93798619D01*
X152660714Y-93751000D01*
X152755952Y-93703381D01*
X152994048Y-93703381D01*
X153136905Y-93751000D01*
X153470238Y-93703381D02*
X153708333Y-94703381D01*
X153898810Y-93989095D01*
X154089286Y-94703381D01*
X154327381Y-93703381D01*
X154660714Y-93798619D02*
X154708333Y-93751000D01*
X154803571Y-93703381D01*
X155041667Y-93703381D01*
X155136905Y-93751000D01*
X155184524Y-93798619D01*
X155232143Y-93893857D01*
X155232143Y-93989095D01*
X155184524Y-94131952D01*
X154613095Y-94703381D01*
X155232143Y-94703381D01*
X156136905Y-93703381D02*
X155660714Y-93703381D01*
X155613095Y-94179571D01*
X155660714Y-94131952D01*
X155755952Y-94084333D01*
X155994048Y-94084333D01*
X156089286Y-94131952D01*
X156136905Y-94179571D01*
X156184524Y-94274810D01*
X156184524Y-94512905D01*
X156136905Y-94608143D01*
X156089286Y-94655762D01*
X155994048Y-94703381D01*
X155755952Y-94703381D01*
X155660714Y-94655762D01*
X155613095Y-94608143D01*
X171565476Y-94655762D02*
X171708333Y-94703381D01*
X171946429Y-94703381D01*
X172041667Y-94655762D01*
X172089286Y-94608143D01*
X172136905Y-94512905D01*
X172136905Y-94417667D01*
X172089286Y-94322429D01*
X172041667Y-94274810D01*
X171946429Y-94227190D01*
X171755952Y-94179571D01*
X171660714Y-94131952D01*
X171613095Y-94084333D01*
X171565476Y-93989095D01*
X171565476Y-93893857D01*
X171613095Y-93798619D01*
X171660714Y-93751000D01*
X171755952Y-93703381D01*
X171994048Y-93703381D01*
X172136905Y-93751000D01*
X172470238Y-93703381D02*
X172708333Y-94703381D01*
X172898810Y-93989095D01*
X173089286Y-94703381D01*
X173327381Y-93703381D01*
X173660714Y-93798619D02*
X173708333Y-93751000D01*
X173803571Y-93703381D01*
X174041667Y-93703381D01*
X174136905Y-93751000D01*
X174184524Y-93798619D01*
X174232143Y-93893857D01*
X174232143Y-93989095D01*
X174184524Y-94131952D01*
X173613095Y-94703381D01*
X174232143Y-94703381D01*
X175089286Y-93703381D02*
X174898809Y-93703381D01*
X174803571Y-93751000D01*
X174755952Y-93798619D01*
X174660714Y-93941476D01*
X174613095Y-94131952D01*
X174613095Y-94512905D01*
X174660714Y-94608143D01*
X174708333Y-94655762D01*
X174803571Y-94703381D01*
X174994048Y-94703381D01*
X175089286Y-94655762D01*
X175136905Y-94608143D01*
X175184524Y-94512905D01*
X175184524Y-94274810D01*
X175136905Y-94179571D01*
X175089286Y-94131952D01*
X174994048Y-94084333D01*
X174803571Y-94084333D01*
X174708333Y-94131952D01*
X174660714Y-94179571D01*
X174613095Y-94274810D01*
X190565476Y-94655762D02*
X190708333Y-94703381D01*
X190946429Y-94703381D01*
X191041667Y-94655762D01*
X191089286Y-94608143D01*
X191136905Y-94512905D01*
X191136905Y-94417667D01*
X191089286Y-94322429D01*
X191041667Y-94274810D01*
X190946429Y-94227190D01*
X190755952Y-94179571D01*
X190660714Y-94131952D01*
X190613095Y-94084333D01*
X190565476Y-93989095D01*
X190565476Y-93893857D01*
X190613095Y-93798619D01*
X190660714Y-93751000D01*
X190755952Y-93703381D01*
X190994048Y-93703381D01*
X191136905Y-93751000D01*
X191470238Y-93703381D02*
X191708333Y-94703381D01*
X191898810Y-93989095D01*
X192089286Y-94703381D01*
X192327381Y-93703381D01*
X192660714Y-93798619D02*
X192708333Y-93751000D01*
X192803571Y-93703381D01*
X193041667Y-93703381D01*
X193136905Y-93751000D01*
X193184524Y-93798619D01*
X193232143Y-93893857D01*
X193232143Y-93989095D01*
X193184524Y-94131952D01*
X192613095Y-94703381D01*
X193232143Y-94703381D01*
X193565476Y-93703381D02*
X194232143Y-93703381D01*
X193803571Y-94703381D01*
X209565476Y-94655762D02*
X209708333Y-94703381D01*
X209946429Y-94703381D01*
X210041667Y-94655762D01*
X210089286Y-94608143D01*
X210136905Y-94512905D01*
X210136905Y-94417667D01*
X210089286Y-94322429D01*
X210041667Y-94274810D01*
X209946429Y-94227190D01*
X209755952Y-94179571D01*
X209660714Y-94131952D01*
X209613095Y-94084333D01*
X209565476Y-93989095D01*
X209565476Y-93893857D01*
X209613095Y-93798619D01*
X209660714Y-93751000D01*
X209755952Y-93703381D01*
X209994048Y-93703381D01*
X210136905Y-93751000D01*
X210470238Y-93703381D02*
X210708333Y-94703381D01*
X210898810Y-93989095D01*
X211089286Y-94703381D01*
X211327381Y-93703381D01*
X211660714Y-93798619D02*
X211708333Y-93751000D01*
X211803571Y-93703381D01*
X212041667Y-93703381D01*
X212136905Y-93751000D01*
X212184524Y-93798619D01*
X212232143Y-93893857D01*
X212232143Y-93989095D01*
X212184524Y-94131952D01*
X211613095Y-94703381D01*
X212232143Y-94703381D01*
X212803571Y-94131952D02*
X212708333Y-94084333D01*
X212660714Y-94036714D01*
X212613095Y-93941476D01*
X212613095Y-93893857D01*
X212660714Y-93798619D01*
X212708333Y-93751000D01*
X212803571Y-93703381D01*
X212994048Y-93703381D01*
X213089286Y-93751000D01*
X213136905Y-93798619D01*
X213184524Y-93893857D01*
X213184524Y-93941476D01*
X213136905Y-94036714D01*
X213089286Y-94084333D01*
X212994048Y-94131952D01*
X212803571Y-94131952D01*
X212708333Y-94179571D01*
X212660714Y-94227190D01*
X212613095Y-94322429D01*
X212613095Y-94512905D01*
X212660714Y-94608143D01*
X212708333Y-94655762D01*
X212803571Y-94703381D01*
X212994048Y-94703381D01*
X213089286Y-94655762D01*
X213136905Y-94608143D01*
X213184524Y-94512905D01*
X213184524Y-94322429D01*
X213136905Y-94227190D01*
X213089286Y-94179571D01*
X212994048Y-94131952D01*
X228565476Y-94655762D02*
X228708333Y-94703381D01*
X228946429Y-94703381D01*
X229041667Y-94655762D01*
X229089286Y-94608143D01*
X229136905Y-94512905D01*
X229136905Y-94417667D01*
X229089286Y-94322429D01*
X229041667Y-94274810D01*
X228946429Y-94227190D01*
X228755952Y-94179571D01*
X228660714Y-94131952D01*
X228613095Y-94084333D01*
X228565476Y-93989095D01*
X228565476Y-93893857D01*
X228613095Y-93798619D01*
X228660714Y-93751000D01*
X228755952Y-93703381D01*
X228994048Y-93703381D01*
X229136905Y-93751000D01*
X229470238Y-93703381D02*
X229708333Y-94703381D01*
X229898810Y-93989095D01*
X230089286Y-94703381D01*
X230327381Y-93703381D01*
X230660714Y-93798619D02*
X230708333Y-93751000D01*
X230803571Y-93703381D01*
X231041667Y-93703381D01*
X231136905Y-93751000D01*
X231184524Y-93798619D01*
X231232143Y-93893857D01*
X231232143Y-93989095D01*
X231184524Y-94131952D01*
X230613095Y-94703381D01*
X231232143Y-94703381D01*
X231708333Y-94703381D02*
X231898809Y-94703381D01*
X231994048Y-94655762D01*
X232041667Y-94608143D01*
X232136905Y-94465286D01*
X232184524Y-94274810D01*
X232184524Y-93893857D01*
X232136905Y-93798619D01*
X232089286Y-93751000D01*
X231994048Y-93703381D01*
X231803571Y-93703381D01*
X231708333Y-93751000D01*
X231660714Y-93798619D01*
X231613095Y-93893857D01*
X231613095Y-94131952D01*
X231660714Y-94227190D01*
X231708333Y-94274810D01*
X231803571Y-94322429D01*
X231994048Y-94322429D01*
X232089286Y-94274810D01*
X232136905Y-94227190D01*
X232184524Y-94131952D01*
X247565476Y-94655762D02*
X247708333Y-94703381D01*
X247946429Y-94703381D01*
X248041667Y-94655762D01*
X248089286Y-94608143D01*
X248136905Y-94512905D01*
X248136905Y-94417667D01*
X248089286Y-94322429D01*
X248041667Y-94274810D01*
X247946429Y-94227190D01*
X247755952Y-94179571D01*
X247660714Y-94131952D01*
X247613095Y-94084333D01*
X247565476Y-93989095D01*
X247565476Y-93893857D01*
X247613095Y-93798619D01*
X247660714Y-93751000D01*
X247755952Y-93703381D01*
X247994048Y-93703381D01*
X248136905Y-93751000D01*
X248470238Y-93703381D02*
X248708333Y-94703381D01*
X248898810Y-93989095D01*
X249089286Y-94703381D01*
X249327381Y-93703381D01*
X249613095Y-93703381D02*
X250232143Y-93703381D01*
X249898809Y-94084333D01*
X250041667Y-94084333D01*
X250136905Y-94131952D01*
X250184524Y-94179571D01*
X250232143Y-94274810D01*
X250232143Y-94512905D01*
X250184524Y-94608143D01*
X250136905Y-94655762D01*
X250041667Y-94703381D01*
X249755952Y-94703381D01*
X249660714Y-94655762D01*
X249613095Y-94608143D01*
X250851190Y-93703381D02*
X250946429Y-93703381D01*
X251041667Y-93751000D01*
X251089286Y-93798619D01*
X251136905Y-93893857D01*
X251184524Y-94084333D01*
X251184524Y-94322429D01*
X251136905Y-94512905D01*
X251089286Y-94608143D01*
X251041667Y-94655762D01*
X250946429Y-94703381D01*
X250851190Y-94703381D01*
X250755952Y-94655762D01*
X250708333Y-94608143D01*
X250660714Y-94512905D01*
X250613095Y-94322429D01*
X250613095Y-94084333D01*
X250660714Y-93893857D01*
X250708333Y-93798619D01*
X250755952Y-93751000D01*
X250851190Y-93703381D01*
X266565476Y-94655762D02*
X266708333Y-94703381D01*
X266946429Y-94703381D01*
X267041667Y-94655762D01*
X267089286Y-94608143D01*
X267136905Y-94512905D01*
X267136905Y-94417667D01*
X267089286Y-94322429D01*
X267041667Y-94274810D01*
X266946429Y-94227190D01*
X266755952Y-94179571D01*
X266660714Y-94131952D01*
X266613095Y-94084333D01*
X266565476Y-93989095D01*
X266565476Y-93893857D01*
X266613095Y-93798619D01*
X266660714Y-93751000D01*
X266755952Y-93703381D01*
X266994048Y-93703381D01*
X267136905Y-93751000D01*
X267470238Y-93703381D02*
X267708333Y-94703381D01*
X267898810Y-93989095D01*
X268089286Y-94703381D01*
X268327381Y-93703381D01*
X268613095Y-93703381D02*
X269232143Y-93703381D01*
X268898809Y-94084333D01*
X269041667Y-94084333D01*
X269136905Y-94131952D01*
X269184524Y-94179571D01*
X269232143Y-94274810D01*
X269232143Y-94512905D01*
X269184524Y-94608143D01*
X269136905Y-94655762D01*
X269041667Y-94703381D01*
X268755952Y-94703381D01*
X268660714Y-94655762D01*
X268613095Y-94608143D01*
X270184524Y-94703381D02*
X269613095Y-94703381D01*
X269898809Y-94703381D02*
X269898809Y-93703381D01*
X269803571Y-93846238D01*
X269708333Y-93941476D01*
X269613095Y-93989095D01*
X285565476Y-94655762D02*
X285708333Y-94703381D01*
X285946429Y-94703381D01*
X286041667Y-94655762D01*
X286089286Y-94608143D01*
X286136905Y-94512905D01*
X286136905Y-94417667D01*
X286089286Y-94322429D01*
X286041667Y-94274810D01*
X285946429Y-94227190D01*
X285755952Y-94179571D01*
X285660714Y-94131952D01*
X285613095Y-94084333D01*
X285565476Y-93989095D01*
X285565476Y-93893857D01*
X285613095Y-93798619D01*
X285660714Y-93751000D01*
X285755952Y-93703381D01*
X285994048Y-93703381D01*
X286136905Y-93751000D01*
X286470238Y-93703381D02*
X286708333Y-94703381D01*
X286898810Y-93989095D01*
X287089286Y-94703381D01*
X287327381Y-93703381D01*
X287613095Y-93703381D02*
X288232143Y-93703381D01*
X287898809Y-94084333D01*
X288041667Y-94084333D01*
X288136905Y-94131952D01*
X288184524Y-94179571D01*
X288232143Y-94274810D01*
X288232143Y-94512905D01*
X288184524Y-94608143D01*
X288136905Y-94655762D01*
X288041667Y-94703381D01*
X287755952Y-94703381D01*
X287660714Y-94655762D01*
X287613095Y-94608143D01*
X288613095Y-93798619D02*
X288660714Y-93751000D01*
X288755952Y-93703381D01*
X288994048Y-93703381D01*
X289089286Y-93751000D01*
X289136905Y-93798619D01*
X289184524Y-93893857D01*
X289184524Y-93989095D01*
X289136905Y-94131952D01*
X288565476Y-94703381D01*
X289184524Y-94703381D01*
X356815476Y-94655762D02*
X356958333Y-94703381D01*
X357196429Y-94703381D01*
X357291667Y-94655762D01*
X357339286Y-94608143D01*
X357386905Y-94512905D01*
X357386905Y-94417667D01*
X357339286Y-94322429D01*
X357291667Y-94274810D01*
X357196429Y-94227190D01*
X357005952Y-94179571D01*
X356910714Y-94131952D01*
X356863095Y-94084333D01*
X356815476Y-93989095D01*
X356815476Y-93893857D01*
X356863095Y-93798619D01*
X356910714Y-93751000D01*
X357005952Y-93703381D01*
X357244048Y-93703381D01*
X357386905Y-93751000D01*
X357720238Y-93703381D02*
X357958333Y-94703381D01*
X358148810Y-93989095D01*
X358339286Y-94703381D01*
X358577381Y-93703381D01*
X358863095Y-93703381D02*
X359482143Y-93703381D01*
X359148809Y-94084333D01*
X359291667Y-94084333D01*
X359386905Y-94131952D01*
X359434524Y-94179571D01*
X359482143Y-94274810D01*
X359482143Y-94512905D01*
X359434524Y-94608143D01*
X359386905Y-94655762D01*
X359291667Y-94703381D01*
X359005952Y-94703381D01*
X358910714Y-94655762D01*
X358863095Y-94608143D01*
X360386905Y-93703381D02*
X359910714Y-93703381D01*
X359863095Y-94179571D01*
X359910714Y-94131952D01*
X360005952Y-94084333D01*
X360244048Y-94084333D01*
X360339286Y-94131952D01*
X360386905Y-94179571D01*
X360434524Y-94274810D01*
X360434524Y-94512905D01*
X360386905Y-94608143D01*
X360339286Y-94655762D01*
X360244048Y-94703381D01*
X360005952Y-94703381D01*
X359910714Y-94655762D01*
X359863095Y-94608143D01*
X380565476Y-94655762D02*
X380708333Y-94703381D01*
X380946429Y-94703381D01*
X381041667Y-94655762D01*
X381089286Y-94608143D01*
X381136905Y-94512905D01*
X381136905Y-94417667D01*
X381089286Y-94322429D01*
X381041667Y-94274810D01*
X380946429Y-94227190D01*
X380755952Y-94179571D01*
X380660714Y-94131952D01*
X380613095Y-94084333D01*
X380565476Y-93989095D01*
X380565476Y-93893857D01*
X380613095Y-93798619D01*
X380660714Y-93751000D01*
X380755952Y-93703381D01*
X380994048Y-93703381D01*
X381136905Y-93751000D01*
X381470238Y-93703381D02*
X381708333Y-94703381D01*
X381898810Y-93989095D01*
X382089286Y-94703381D01*
X382327381Y-93703381D01*
X382613095Y-93703381D02*
X383232143Y-93703381D01*
X382898809Y-94084333D01*
X383041667Y-94084333D01*
X383136905Y-94131952D01*
X383184524Y-94179571D01*
X383232143Y-94274810D01*
X383232143Y-94512905D01*
X383184524Y-94608143D01*
X383136905Y-94655762D01*
X383041667Y-94703381D01*
X382755952Y-94703381D01*
X382660714Y-94655762D01*
X382613095Y-94608143D01*
X384089286Y-93703381D02*
X383898809Y-93703381D01*
X383803571Y-93751000D01*
X383755952Y-93798619D01*
X383660714Y-93941476D01*
X383613095Y-94131952D01*
X383613095Y-94512905D01*
X383660714Y-94608143D01*
X383708333Y-94655762D01*
X383803571Y-94703381D01*
X383994048Y-94703381D01*
X384089286Y-94655762D01*
X384136905Y-94608143D01*
X384184524Y-94512905D01*
X384184524Y-94274810D01*
X384136905Y-94179571D01*
X384089286Y-94131952D01*
X383994048Y-94084333D01*
X383803571Y-94084333D01*
X383708333Y-94131952D01*
X383660714Y-94179571D01*
X383613095Y-94274810D01*
X399565476Y-94655762D02*
X399708333Y-94703381D01*
X399946429Y-94703381D01*
X400041667Y-94655762D01*
X400089286Y-94608143D01*
X400136905Y-94512905D01*
X400136905Y-94417667D01*
X400089286Y-94322429D01*
X400041667Y-94274810D01*
X399946429Y-94227190D01*
X399755952Y-94179571D01*
X399660714Y-94131952D01*
X399613095Y-94084333D01*
X399565476Y-93989095D01*
X399565476Y-93893857D01*
X399613095Y-93798619D01*
X399660714Y-93751000D01*
X399755952Y-93703381D01*
X399994048Y-93703381D01*
X400136905Y-93751000D01*
X400470238Y-93703381D02*
X400708333Y-94703381D01*
X400898810Y-93989095D01*
X401089286Y-94703381D01*
X401327381Y-93703381D01*
X401613095Y-93703381D02*
X402232143Y-93703381D01*
X401898809Y-94084333D01*
X402041667Y-94084333D01*
X402136905Y-94131952D01*
X402184524Y-94179571D01*
X402232143Y-94274810D01*
X402232143Y-94512905D01*
X402184524Y-94608143D01*
X402136905Y-94655762D01*
X402041667Y-94703381D01*
X401755952Y-94703381D01*
X401660714Y-94655762D01*
X401613095Y-94608143D01*
X402565476Y-93703381D02*
X403232143Y-93703381D01*
X402803571Y-94703381D01*
X418565476Y-94655762D02*
X418708333Y-94703381D01*
X418946429Y-94703381D01*
X419041667Y-94655762D01*
X419089286Y-94608143D01*
X419136905Y-94512905D01*
X419136905Y-94417667D01*
X419089286Y-94322429D01*
X419041667Y-94274810D01*
X418946429Y-94227190D01*
X418755952Y-94179571D01*
X418660714Y-94131952D01*
X418613095Y-94084333D01*
X418565476Y-93989095D01*
X418565476Y-93893857D01*
X418613095Y-93798619D01*
X418660714Y-93751000D01*
X418755952Y-93703381D01*
X418994048Y-93703381D01*
X419136905Y-93751000D01*
X419470238Y-93703381D02*
X419708333Y-94703381D01*
X419898810Y-93989095D01*
X420089286Y-94703381D01*
X420327381Y-93703381D01*
X420613095Y-93703381D02*
X421232143Y-93703381D01*
X420898809Y-94084333D01*
X421041667Y-94084333D01*
X421136905Y-94131952D01*
X421184524Y-94179571D01*
X421232143Y-94274810D01*
X421232143Y-94512905D01*
X421184524Y-94608143D01*
X421136905Y-94655762D01*
X421041667Y-94703381D01*
X420755952Y-94703381D01*
X420660714Y-94655762D01*
X420613095Y-94608143D01*
X421803571Y-94131952D02*
X421708333Y-94084333D01*
X421660714Y-94036714D01*
X421613095Y-93941476D01*
X421613095Y-93893857D01*
X421660714Y-93798619D01*
X421708333Y-93751000D01*
X421803571Y-93703381D01*
X421994048Y-93703381D01*
X422089286Y-93751000D01*
X422136905Y-93798619D01*
X422184524Y-93893857D01*
X422184524Y-93941476D01*
X422136905Y-94036714D01*
X422089286Y-94084333D01*
X421994048Y-94131952D01*
X421803571Y-94131952D01*
X421708333Y-94179571D01*
X421660714Y-94227190D01*
X421613095Y-94322429D01*
X421613095Y-94512905D01*
X421660714Y-94608143D01*
X421708333Y-94655762D01*
X421803571Y-94703381D01*
X421994048Y-94703381D01*
X422089286Y-94655762D01*
X422136905Y-94608143D01*
X422184524Y-94512905D01*
X422184524Y-94322429D01*
X422136905Y-94227190D01*
X422089286Y-94179571D01*
X421994048Y-94131952D01*
X81315476Y-113655762D02*
X81458333Y-113703381D01*
X81696429Y-113703381D01*
X81791667Y-113655762D01*
X81839286Y-113608143D01*
X81886905Y-113512905D01*
X81886905Y-113417667D01*
X81839286Y-113322429D01*
X81791667Y-113274810D01*
X81696429Y-113227190D01*
X81505952Y-113179571D01*
X81410714Y-113131952D01*
X81363095Y-113084333D01*
X81315476Y-112989095D01*
X81315476Y-112893857D01*
X81363095Y-112798619D01*
X81410714Y-112751000D01*
X81505952Y-112703381D01*
X81744048Y-112703381D01*
X81886905Y-112751000D01*
X82220238Y-112703381D02*
X82458333Y-113703381D01*
X82648810Y-112989095D01*
X82839286Y-113703381D01*
X83077381Y-112703381D01*
X83886905Y-113036714D02*
X83886905Y-113703381D01*
X83648809Y-112655762D02*
X83410714Y-113370048D01*
X84029762Y-113370048D01*
X84934524Y-113703381D02*
X84363095Y-113703381D01*
X84648809Y-113703381D02*
X84648809Y-112703381D01*
X84553571Y-112846238D01*
X84458333Y-112941476D01*
X84363095Y-112989095D01*
X100315476Y-113655762D02*
X100458333Y-113703381D01*
X100696429Y-113703381D01*
X100791667Y-113655762D01*
X100839286Y-113608143D01*
X100886905Y-113512905D01*
X100886905Y-113417667D01*
X100839286Y-113322429D01*
X100791667Y-113274810D01*
X100696429Y-113227190D01*
X100505952Y-113179571D01*
X100410714Y-113131952D01*
X100363095Y-113084333D01*
X100315476Y-112989095D01*
X100315476Y-112893857D01*
X100363095Y-112798619D01*
X100410714Y-112751000D01*
X100505952Y-112703381D01*
X100744048Y-112703381D01*
X100886905Y-112751000D01*
X101220238Y-112703381D02*
X101458333Y-113703381D01*
X101648810Y-112989095D01*
X101839286Y-113703381D01*
X102077381Y-112703381D01*
X102886905Y-113036714D02*
X102886905Y-113703381D01*
X102648809Y-112655762D02*
X102410714Y-113370048D01*
X103029762Y-113370048D01*
X103363095Y-112798619D02*
X103410714Y-112751000D01*
X103505952Y-112703381D01*
X103744048Y-112703381D01*
X103839286Y-112751000D01*
X103886905Y-112798619D01*
X103934524Y-112893857D01*
X103934524Y-112989095D01*
X103886905Y-113131952D01*
X103315476Y-113703381D01*
X103934524Y-113703381D01*
X119315476Y-113655762D02*
X119458333Y-113703381D01*
X119696429Y-113703381D01*
X119791667Y-113655762D01*
X119839286Y-113608143D01*
X119886905Y-113512905D01*
X119886905Y-113417667D01*
X119839286Y-113322429D01*
X119791667Y-113274810D01*
X119696429Y-113227190D01*
X119505952Y-113179571D01*
X119410714Y-113131952D01*
X119363095Y-113084333D01*
X119315476Y-112989095D01*
X119315476Y-112893857D01*
X119363095Y-112798619D01*
X119410714Y-112751000D01*
X119505952Y-112703381D01*
X119744048Y-112703381D01*
X119886905Y-112751000D01*
X120220238Y-112703381D02*
X120458333Y-113703381D01*
X120648810Y-112989095D01*
X120839286Y-113703381D01*
X121077381Y-112703381D01*
X121886905Y-113036714D02*
X121886905Y-113703381D01*
X121648809Y-112655762D02*
X121410714Y-113370048D01*
X122029762Y-113370048D01*
X122315476Y-112703381D02*
X122934524Y-112703381D01*
X122601190Y-113084333D01*
X122744048Y-113084333D01*
X122839286Y-113131952D01*
X122886905Y-113179571D01*
X122934524Y-113274810D01*
X122934524Y-113512905D01*
X122886905Y-113608143D01*
X122839286Y-113655762D01*
X122744048Y-113703381D01*
X122458333Y-113703381D01*
X122363095Y-113655762D01*
X122315476Y-113608143D01*
X138315476Y-113655762D02*
X138458333Y-113703381D01*
X138696429Y-113703381D01*
X138791667Y-113655762D01*
X138839286Y-113608143D01*
X138886905Y-113512905D01*
X138886905Y-113417667D01*
X138839286Y-113322429D01*
X138791667Y-113274810D01*
X138696429Y-113227190D01*
X138505952Y-113179571D01*
X138410714Y-113131952D01*
X138363095Y-113084333D01*
X138315476Y-112989095D01*
X138315476Y-112893857D01*
X138363095Y-112798619D01*
X138410714Y-112751000D01*
X138505952Y-112703381D01*
X138744048Y-112703381D01*
X138886905Y-112751000D01*
X139220238Y-112703381D02*
X139458333Y-113703381D01*
X139648810Y-112989095D01*
X139839286Y-113703381D01*
X140077381Y-112703381D01*
X140886905Y-113036714D02*
X140886905Y-113703381D01*
X140648809Y-112655762D02*
X140410714Y-113370048D01*
X141029762Y-113370048D01*
X141839286Y-113036714D02*
X141839286Y-113703381D01*
X141601190Y-112655762D02*
X141363095Y-113370048D01*
X141982143Y-113370048D01*
X157315476Y-113655762D02*
X157458333Y-113703381D01*
X157696429Y-113703381D01*
X157791667Y-113655762D01*
X157839286Y-113608143D01*
X157886905Y-113512905D01*
X157886905Y-113417667D01*
X157839286Y-113322429D01*
X157791667Y-113274810D01*
X157696429Y-113227190D01*
X157505952Y-113179571D01*
X157410714Y-113131952D01*
X157363095Y-113084333D01*
X157315476Y-112989095D01*
X157315476Y-112893857D01*
X157363095Y-112798619D01*
X157410714Y-112751000D01*
X157505952Y-112703381D01*
X157744048Y-112703381D01*
X157886905Y-112751000D01*
X158220238Y-112703381D02*
X158458333Y-113703381D01*
X158648810Y-112989095D01*
X158839286Y-113703381D01*
X159077381Y-112703381D01*
X159886905Y-113036714D02*
X159886905Y-113703381D01*
X159648809Y-112655762D02*
X159410714Y-113370048D01*
X160029762Y-113370048D01*
X160886905Y-112703381D02*
X160410714Y-112703381D01*
X160363095Y-113179571D01*
X160410714Y-113131952D01*
X160505952Y-113084333D01*
X160744048Y-113084333D01*
X160839286Y-113131952D01*
X160886905Y-113179571D01*
X160934524Y-113274810D01*
X160934524Y-113512905D01*
X160886905Y-113608143D01*
X160839286Y-113655762D01*
X160744048Y-113703381D01*
X160505952Y-113703381D01*
X160410714Y-113655762D01*
X160363095Y-113608143D01*
X176315476Y-113655762D02*
X176458333Y-113703381D01*
X176696429Y-113703381D01*
X176791667Y-113655762D01*
X176839286Y-113608143D01*
X176886905Y-113512905D01*
X176886905Y-113417667D01*
X176839286Y-113322429D01*
X176791667Y-113274810D01*
X176696429Y-113227190D01*
X176505952Y-113179571D01*
X176410714Y-113131952D01*
X176363095Y-113084333D01*
X176315476Y-112989095D01*
X176315476Y-112893857D01*
X176363095Y-112798619D01*
X176410714Y-112751000D01*
X176505952Y-112703381D01*
X176744048Y-112703381D01*
X176886905Y-112751000D01*
X177220238Y-112703381D02*
X177458333Y-113703381D01*
X177648810Y-112989095D01*
X177839286Y-113703381D01*
X178077381Y-112703381D01*
X178886905Y-113036714D02*
X178886905Y-113703381D01*
X178648809Y-112655762D02*
X178410714Y-113370048D01*
X179029762Y-113370048D01*
X179839286Y-112703381D02*
X179648809Y-112703381D01*
X179553571Y-112751000D01*
X179505952Y-112798619D01*
X179410714Y-112941476D01*
X179363095Y-113131952D01*
X179363095Y-113512905D01*
X179410714Y-113608143D01*
X179458333Y-113655762D01*
X179553571Y-113703381D01*
X179744048Y-113703381D01*
X179839286Y-113655762D01*
X179886905Y-113608143D01*
X179934524Y-113512905D01*
X179934524Y-113274810D01*
X179886905Y-113179571D01*
X179839286Y-113131952D01*
X179744048Y-113084333D01*
X179553571Y-113084333D01*
X179458333Y-113131952D01*
X179410714Y-113179571D01*
X179363095Y-113274810D01*
X195315476Y-113655762D02*
X195458333Y-113703381D01*
X195696429Y-113703381D01*
X195791667Y-113655762D01*
X195839286Y-113608143D01*
X195886905Y-113512905D01*
X195886905Y-113417667D01*
X195839286Y-113322429D01*
X195791667Y-113274810D01*
X195696429Y-113227190D01*
X195505952Y-113179571D01*
X195410714Y-113131952D01*
X195363095Y-113084333D01*
X195315476Y-112989095D01*
X195315476Y-112893857D01*
X195363095Y-112798619D01*
X195410714Y-112751000D01*
X195505952Y-112703381D01*
X195744048Y-112703381D01*
X195886905Y-112751000D01*
X196220238Y-112703381D02*
X196458333Y-113703381D01*
X196648810Y-112989095D01*
X196839286Y-113703381D01*
X197077381Y-112703381D01*
X197886905Y-113036714D02*
X197886905Y-113703381D01*
X197648809Y-112655762D02*
X197410714Y-113370048D01*
X198029762Y-113370048D01*
X198315476Y-112703381D02*
X198982143Y-112703381D01*
X198553571Y-113703381D01*
X214315476Y-113655762D02*
X214458333Y-113703381D01*
X214696429Y-113703381D01*
X214791667Y-113655762D01*
X214839286Y-113608143D01*
X214886905Y-113512905D01*
X214886905Y-113417667D01*
X214839286Y-113322429D01*
X214791667Y-113274810D01*
X214696429Y-113227190D01*
X214505952Y-113179571D01*
X214410714Y-113131952D01*
X214363095Y-113084333D01*
X214315476Y-112989095D01*
X214315476Y-112893857D01*
X214363095Y-112798619D01*
X214410714Y-112751000D01*
X214505952Y-112703381D01*
X214744048Y-112703381D01*
X214886905Y-112751000D01*
X215220238Y-112703381D02*
X215458333Y-113703381D01*
X215648810Y-112989095D01*
X215839286Y-113703381D01*
X216077381Y-112703381D01*
X216886905Y-113036714D02*
X216886905Y-113703381D01*
X216648809Y-112655762D02*
X216410714Y-113370048D01*
X217029762Y-113370048D01*
X217553571Y-113131952D02*
X217458333Y-113084333D01*
X217410714Y-113036714D01*
X217363095Y-112941476D01*
X217363095Y-112893857D01*
X217410714Y-112798619D01*
X217458333Y-112751000D01*
X217553571Y-112703381D01*
X217744048Y-112703381D01*
X217839286Y-112751000D01*
X217886905Y-112798619D01*
X217934524Y-112893857D01*
X217934524Y-112941476D01*
X217886905Y-113036714D01*
X217839286Y-113084333D01*
X217744048Y-113131952D01*
X217553571Y-113131952D01*
X217458333Y-113179571D01*
X217410714Y-113227190D01*
X217363095Y-113322429D01*
X217363095Y-113512905D01*
X217410714Y-113608143D01*
X217458333Y-113655762D01*
X217553571Y-113703381D01*
X217744048Y-113703381D01*
X217839286Y-113655762D01*
X217886905Y-113608143D01*
X217934524Y-113512905D01*
X217934524Y-113322429D01*
X217886905Y-113227190D01*
X217839286Y-113179571D01*
X217744048Y-113131952D01*
X233315476Y-113655762D02*
X233458333Y-113703381D01*
X233696429Y-113703381D01*
X233791667Y-113655762D01*
X233839286Y-113608143D01*
X233886905Y-113512905D01*
X233886905Y-113417667D01*
X233839286Y-113322429D01*
X233791667Y-113274810D01*
X233696429Y-113227190D01*
X233505952Y-113179571D01*
X233410714Y-113131952D01*
X233363095Y-113084333D01*
X233315476Y-112989095D01*
X233315476Y-112893857D01*
X233363095Y-112798619D01*
X233410714Y-112751000D01*
X233505952Y-112703381D01*
X233744048Y-112703381D01*
X233886905Y-112751000D01*
X234220238Y-112703381D02*
X234458333Y-113703381D01*
X234648810Y-112989095D01*
X234839286Y-113703381D01*
X235077381Y-112703381D01*
X235886905Y-113036714D02*
X235886905Y-113703381D01*
X235648809Y-112655762D02*
X235410714Y-113370048D01*
X236029762Y-113370048D01*
X236458333Y-113703381D02*
X236648809Y-113703381D01*
X236744048Y-113655762D01*
X236791667Y-113608143D01*
X236886905Y-113465286D01*
X236934524Y-113274810D01*
X236934524Y-112893857D01*
X236886905Y-112798619D01*
X236839286Y-112751000D01*
X236744048Y-112703381D01*
X236553571Y-112703381D01*
X236458333Y-112751000D01*
X236410714Y-112798619D01*
X236363095Y-112893857D01*
X236363095Y-113131952D01*
X236410714Y-113227190D01*
X236458333Y-113274810D01*
X236553571Y-113322429D01*
X236744048Y-113322429D01*
X236839286Y-113274810D01*
X236886905Y-113227190D01*
X236934524Y-113131952D01*
X252315476Y-113655762D02*
X252458333Y-113703381D01*
X252696429Y-113703381D01*
X252791667Y-113655762D01*
X252839286Y-113608143D01*
X252886905Y-113512905D01*
X252886905Y-113417667D01*
X252839286Y-113322429D01*
X252791667Y-113274810D01*
X252696429Y-113227190D01*
X252505952Y-113179571D01*
X252410714Y-113131952D01*
X252363095Y-113084333D01*
X252315476Y-112989095D01*
X252315476Y-112893857D01*
X252363095Y-112798619D01*
X252410714Y-112751000D01*
X252505952Y-112703381D01*
X252744048Y-112703381D01*
X252886905Y-112751000D01*
X253220238Y-112703381D02*
X253458333Y-113703381D01*
X253648810Y-112989095D01*
X253839286Y-113703381D01*
X254077381Y-112703381D01*
X254934524Y-112703381D02*
X254458333Y-112703381D01*
X254410714Y-113179571D01*
X254458333Y-113131952D01*
X254553571Y-113084333D01*
X254791667Y-113084333D01*
X254886905Y-113131952D01*
X254934524Y-113179571D01*
X254982143Y-113274810D01*
X254982143Y-113512905D01*
X254934524Y-113608143D01*
X254886905Y-113655762D01*
X254791667Y-113703381D01*
X254553571Y-113703381D01*
X254458333Y-113655762D01*
X254410714Y-113608143D01*
X255601190Y-112703381D02*
X255696429Y-112703381D01*
X255791667Y-112751000D01*
X255839286Y-112798619D01*
X255886905Y-112893857D01*
X255934524Y-113084333D01*
X255934524Y-113322429D01*
X255886905Y-113512905D01*
X255839286Y-113608143D01*
X255791667Y-113655762D01*
X255696429Y-113703381D01*
X255601190Y-113703381D01*
X255505952Y-113655762D01*
X255458333Y-113608143D01*
X255410714Y-113512905D01*
X255363095Y-113322429D01*
X255363095Y-113084333D01*
X255410714Y-112893857D01*
X255458333Y-112798619D01*
X255505952Y-112751000D01*
X255601190Y-112703381D01*
X271315476Y-113655762D02*
X271458333Y-113703381D01*
X271696429Y-113703381D01*
X271791667Y-113655762D01*
X271839286Y-113608143D01*
X271886905Y-113512905D01*
X271886905Y-113417667D01*
X271839286Y-113322429D01*
X271791667Y-113274810D01*
X271696429Y-113227190D01*
X271505952Y-113179571D01*
X271410714Y-113131952D01*
X271363095Y-113084333D01*
X271315476Y-112989095D01*
X271315476Y-112893857D01*
X271363095Y-112798619D01*
X271410714Y-112751000D01*
X271505952Y-112703381D01*
X271744048Y-112703381D01*
X271886905Y-112751000D01*
X272220238Y-112703381D02*
X272458333Y-113703381D01*
X272648810Y-112989095D01*
X272839286Y-113703381D01*
X273077381Y-112703381D01*
X273934524Y-112703381D02*
X273458333Y-112703381D01*
X273410714Y-113179571D01*
X273458333Y-113131952D01*
X273553571Y-113084333D01*
X273791667Y-113084333D01*
X273886905Y-113131952D01*
X273934524Y-113179571D01*
X273982143Y-113274810D01*
X273982143Y-113512905D01*
X273934524Y-113608143D01*
X273886905Y-113655762D01*
X273791667Y-113703381D01*
X273553571Y-113703381D01*
X273458333Y-113655762D01*
X273410714Y-113608143D01*
X274934524Y-113703381D02*
X274363095Y-113703381D01*
X274648809Y-113703381D02*
X274648809Y-112703381D01*
X274553571Y-112846238D01*
X274458333Y-112941476D01*
X274363095Y-112989095D01*
X290315476Y-113655762D02*
X290458333Y-113703381D01*
X290696429Y-113703381D01*
X290791667Y-113655762D01*
X290839286Y-113608143D01*
X290886905Y-113512905D01*
X290886905Y-113417667D01*
X290839286Y-113322429D01*
X290791667Y-113274810D01*
X290696429Y-113227190D01*
X290505952Y-113179571D01*
X290410714Y-113131952D01*
X290363095Y-113084333D01*
X290315476Y-112989095D01*
X290315476Y-112893857D01*
X290363095Y-112798619D01*
X290410714Y-112751000D01*
X290505952Y-112703381D01*
X290744048Y-112703381D01*
X290886905Y-112751000D01*
X291220238Y-112703381D02*
X291458333Y-113703381D01*
X291648810Y-112989095D01*
X291839286Y-113703381D01*
X292077381Y-112703381D01*
X292934524Y-112703381D02*
X292458333Y-112703381D01*
X292410714Y-113179571D01*
X292458333Y-113131952D01*
X292553571Y-113084333D01*
X292791667Y-113084333D01*
X292886905Y-113131952D01*
X292934524Y-113179571D01*
X292982143Y-113274810D01*
X292982143Y-113512905D01*
X292934524Y-113608143D01*
X292886905Y-113655762D01*
X292791667Y-113703381D01*
X292553571Y-113703381D01*
X292458333Y-113655762D01*
X292410714Y-113608143D01*
X293363095Y-112798619D02*
X293410714Y-112751000D01*
X293505952Y-112703381D01*
X293744048Y-112703381D01*
X293839286Y-112751000D01*
X293886905Y-112798619D01*
X293934524Y-112893857D01*
X293934524Y-112989095D01*
X293886905Y-113131952D01*
X293315476Y-113703381D01*
X293934524Y-113703381D01*
X380565476Y-113655762D02*
X380708333Y-113703381D01*
X380946429Y-113703381D01*
X381041667Y-113655762D01*
X381089286Y-113608143D01*
X381136905Y-113512905D01*
X381136905Y-113417667D01*
X381089286Y-113322429D01*
X381041667Y-113274810D01*
X380946429Y-113227190D01*
X380755952Y-113179571D01*
X380660714Y-113131952D01*
X380613095Y-113084333D01*
X380565476Y-112989095D01*
X380565476Y-112893857D01*
X380613095Y-112798619D01*
X380660714Y-112751000D01*
X380755952Y-112703381D01*
X380994048Y-112703381D01*
X381136905Y-112751000D01*
X381470238Y-112703381D02*
X381708333Y-113703381D01*
X381898810Y-112989095D01*
X382089286Y-113703381D01*
X382327381Y-112703381D01*
X383184524Y-112703381D02*
X382708333Y-112703381D01*
X382660714Y-113179571D01*
X382708333Y-113131952D01*
X382803571Y-113084333D01*
X383041667Y-113084333D01*
X383136905Y-113131952D01*
X383184524Y-113179571D01*
X383232143Y-113274810D01*
X383232143Y-113512905D01*
X383184524Y-113608143D01*
X383136905Y-113655762D01*
X383041667Y-113703381D01*
X382803571Y-113703381D01*
X382708333Y-113655762D01*
X382660714Y-113608143D01*
X383565476Y-112703381D02*
X384184524Y-112703381D01*
X383851190Y-113084333D01*
X383994048Y-113084333D01*
X384089286Y-113131952D01*
X384136905Y-113179571D01*
X384184524Y-113274810D01*
X384184524Y-113512905D01*
X384136905Y-113608143D01*
X384089286Y-113655762D01*
X383994048Y-113703381D01*
X383708333Y-113703381D01*
X383613095Y-113655762D01*
X383565476Y-113608143D01*
X399565476Y-113655762D02*
X399708333Y-113703381D01*
X399946429Y-113703381D01*
X400041667Y-113655762D01*
X400089286Y-113608143D01*
X400136905Y-113512905D01*
X400136905Y-113417667D01*
X400089286Y-113322429D01*
X400041667Y-113274810D01*
X399946429Y-113227190D01*
X399755952Y-113179571D01*
X399660714Y-113131952D01*
X399613095Y-113084333D01*
X399565476Y-112989095D01*
X399565476Y-112893857D01*
X399613095Y-112798619D01*
X399660714Y-112751000D01*
X399755952Y-112703381D01*
X399994048Y-112703381D01*
X400136905Y-112751000D01*
X400470238Y-112703381D02*
X400708333Y-113703381D01*
X400898810Y-112989095D01*
X401089286Y-113703381D01*
X401327381Y-112703381D01*
X402184524Y-112703381D02*
X401708333Y-112703381D01*
X401660714Y-113179571D01*
X401708333Y-113131952D01*
X401803571Y-113084333D01*
X402041667Y-113084333D01*
X402136905Y-113131952D01*
X402184524Y-113179571D01*
X402232143Y-113274810D01*
X402232143Y-113512905D01*
X402184524Y-113608143D01*
X402136905Y-113655762D01*
X402041667Y-113703381D01*
X401803571Y-113703381D01*
X401708333Y-113655762D01*
X401660714Y-113608143D01*
X403089286Y-113036714D02*
X403089286Y-113703381D01*
X402851190Y-112655762D02*
X402613095Y-113370048D01*
X403232143Y-113370048D01*
X418565476Y-113655762D02*
X418708333Y-113703381D01*
X418946429Y-113703381D01*
X419041667Y-113655762D01*
X419089286Y-113608143D01*
X419136905Y-113512905D01*
X419136905Y-113417667D01*
X419089286Y-113322429D01*
X419041667Y-113274810D01*
X418946429Y-113227190D01*
X418755952Y-113179571D01*
X418660714Y-113131952D01*
X418613095Y-113084333D01*
X418565476Y-112989095D01*
X418565476Y-112893857D01*
X418613095Y-112798619D01*
X418660714Y-112751000D01*
X418755952Y-112703381D01*
X418994048Y-112703381D01*
X419136905Y-112751000D01*
X419470238Y-112703381D02*
X419708333Y-113703381D01*
X419898810Y-112989095D01*
X420089286Y-113703381D01*
X420327381Y-112703381D01*
X421184524Y-112703381D02*
X420708333Y-112703381D01*
X420660714Y-113179571D01*
X420708333Y-113131952D01*
X420803571Y-113084333D01*
X421041667Y-113084333D01*
X421136905Y-113131952D01*
X421184524Y-113179571D01*
X421232143Y-113274810D01*
X421232143Y-113512905D01*
X421184524Y-113608143D01*
X421136905Y-113655762D01*
X421041667Y-113703381D01*
X420803571Y-113703381D01*
X420708333Y-113655762D01*
X420660714Y-113608143D01*
X422136905Y-112703381D02*
X421660714Y-112703381D01*
X421613095Y-113179571D01*
X421660714Y-113131952D01*
X421755952Y-113084333D01*
X421994048Y-113084333D01*
X422089286Y-113131952D01*
X422136905Y-113179571D01*
X422184524Y-113274810D01*
X422184524Y-113512905D01*
X422136905Y-113608143D01*
X422089286Y-113655762D01*
X421994048Y-113703381D01*
X421755952Y-113703381D01*
X421660714Y-113655762D01*
X421613095Y-113608143D01*
X71815476Y-132655762D02*
X71958333Y-132703381D01*
X72196429Y-132703381D01*
X72291667Y-132655762D01*
X72339286Y-132608143D01*
X72386905Y-132512905D01*
X72386905Y-132417667D01*
X72339286Y-132322429D01*
X72291667Y-132274810D01*
X72196429Y-132227190D01*
X72005952Y-132179571D01*
X71910714Y-132131952D01*
X71863095Y-132084333D01*
X71815476Y-131989095D01*
X71815476Y-131893857D01*
X71863095Y-131798619D01*
X71910714Y-131751000D01*
X72005952Y-131703381D01*
X72244048Y-131703381D01*
X72386905Y-131751000D01*
X72720238Y-131703381D02*
X72958333Y-132703381D01*
X73148810Y-131989095D01*
X73339286Y-132703381D01*
X73577381Y-131703381D01*
X74434524Y-131703381D02*
X73958333Y-131703381D01*
X73910714Y-132179571D01*
X73958333Y-132131952D01*
X74053571Y-132084333D01*
X74291667Y-132084333D01*
X74386905Y-132131952D01*
X74434524Y-132179571D01*
X74482143Y-132274810D01*
X74482143Y-132512905D01*
X74434524Y-132608143D01*
X74386905Y-132655762D01*
X74291667Y-132703381D01*
X74053571Y-132703381D01*
X73958333Y-132655762D01*
X73910714Y-132608143D01*
X74815476Y-131703381D02*
X75482143Y-131703381D01*
X75053571Y-132703381D01*
X90815476Y-132655762D02*
X90958333Y-132703381D01*
X91196429Y-132703381D01*
X91291667Y-132655762D01*
X91339286Y-132608143D01*
X91386905Y-132512905D01*
X91386905Y-132417667D01*
X91339286Y-132322429D01*
X91291667Y-132274810D01*
X91196429Y-132227190D01*
X91005952Y-132179571D01*
X90910714Y-132131952D01*
X90863095Y-132084333D01*
X90815476Y-131989095D01*
X90815476Y-131893857D01*
X90863095Y-131798619D01*
X90910714Y-131751000D01*
X91005952Y-131703381D01*
X91244048Y-131703381D01*
X91386905Y-131751000D01*
X91720238Y-131703381D02*
X91958333Y-132703381D01*
X92148810Y-131989095D01*
X92339286Y-132703381D01*
X92577381Y-131703381D01*
X93434524Y-131703381D02*
X92958333Y-131703381D01*
X92910714Y-132179571D01*
X92958333Y-132131952D01*
X93053571Y-132084333D01*
X93291667Y-132084333D01*
X93386905Y-132131952D01*
X93434524Y-132179571D01*
X93482143Y-132274810D01*
X93482143Y-132512905D01*
X93434524Y-132608143D01*
X93386905Y-132655762D01*
X93291667Y-132703381D01*
X93053571Y-132703381D01*
X92958333Y-132655762D01*
X92910714Y-132608143D01*
X94053571Y-132131952D02*
X93958333Y-132084333D01*
X93910714Y-132036714D01*
X93863095Y-131941476D01*
X93863095Y-131893857D01*
X93910714Y-131798619D01*
X93958333Y-131751000D01*
X94053571Y-131703381D01*
X94244048Y-131703381D01*
X94339286Y-131751000D01*
X94386905Y-131798619D01*
X94434524Y-131893857D01*
X94434524Y-131941476D01*
X94386905Y-132036714D01*
X94339286Y-132084333D01*
X94244048Y-132131952D01*
X94053571Y-132131952D01*
X93958333Y-132179571D01*
X93910714Y-132227190D01*
X93863095Y-132322429D01*
X93863095Y-132512905D01*
X93910714Y-132608143D01*
X93958333Y-132655762D01*
X94053571Y-132703381D01*
X94244048Y-132703381D01*
X94339286Y-132655762D01*
X94386905Y-132608143D01*
X94434524Y-132512905D01*
X94434524Y-132322429D01*
X94386905Y-132227190D01*
X94339286Y-132179571D01*
X94244048Y-132131952D01*
X109815476Y-132655762D02*
X109958333Y-132703381D01*
X110196429Y-132703381D01*
X110291667Y-132655762D01*
X110339286Y-132608143D01*
X110386905Y-132512905D01*
X110386905Y-132417667D01*
X110339286Y-132322429D01*
X110291667Y-132274810D01*
X110196429Y-132227190D01*
X110005952Y-132179571D01*
X109910714Y-132131952D01*
X109863095Y-132084333D01*
X109815476Y-131989095D01*
X109815476Y-131893857D01*
X109863095Y-131798619D01*
X109910714Y-131751000D01*
X110005952Y-131703381D01*
X110244048Y-131703381D01*
X110386905Y-131751000D01*
X110720238Y-131703381D02*
X110958333Y-132703381D01*
X111148810Y-131989095D01*
X111339286Y-132703381D01*
X111577381Y-131703381D01*
X112434524Y-131703381D02*
X111958333Y-131703381D01*
X111910714Y-132179571D01*
X111958333Y-132131952D01*
X112053571Y-132084333D01*
X112291667Y-132084333D01*
X112386905Y-132131952D01*
X112434524Y-132179571D01*
X112482143Y-132274810D01*
X112482143Y-132512905D01*
X112434524Y-132608143D01*
X112386905Y-132655762D01*
X112291667Y-132703381D01*
X112053571Y-132703381D01*
X111958333Y-132655762D01*
X111910714Y-132608143D01*
X112958333Y-132703381D02*
X113148809Y-132703381D01*
X113244048Y-132655762D01*
X113291667Y-132608143D01*
X113386905Y-132465286D01*
X113434524Y-132274810D01*
X113434524Y-131893857D01*
X113386905Y-131798619D01*
X113339286Y-131751000D01*
X113244048Y-131703381D01*
X113053571Y-131703381D01*
X112958333Y-131751000D01*
X112910714Y-131798619D01*
X112863095Y-131893857D01*
X112863095Y-132131952D01*
X112910714Y-132227190D01*
X112958333Y-132274810D01*
X113053571Y-132322429D01*
X113244048Y-132322429D01*
X113339286Y-132274810D01*
X113386905Y-132227190D01*
X113434524Y-132131952D01*
X128815476Y-132655762D02*
X128958333Y-132703381D01*
X129196429Y-132703381D01*
X129291667Y-132655762D01*
X129339286Y-132608143D01*
X129386905Y-132512905D01*
X129386905Y-132417667D01*
X129339286Y-132322429D01*
X129291667Y-132274810D01*
X129196429Y-132227190D01*
X129005952Y-132179571D01*
X128910714Y-132131952D01*
X128863095Y-132084333D01*
X128815476Y-131989095D01*
X128815476Y-131893857D01*
X128863095Y-131798619D01*
X128910714Y-131751000D01*
X129005952Y-131703381D01*
X129244048Y-131703381D01*
X129386905Y-131751000D01*
X129720238Y-131703381D02*
X129958333Y-132703381D01*
X130148810Y-131989095D01*
X130339286Y-132703381D01*
X130577381Y-131703381D01*
X131386905Y-131703381D02*
X131196428Y-131703381D01*
X131101190Y-131751000D01*
X131053571Y-131798619D01*
X130958333Y-131941476D01*
X130910714Y-132131952D01*
X130910714Y-132512905D01*
X130958333Y-132608143D01*
X131005952Y-132655762D01*
X131101190Y-132703381D01*
X131291667Y-132703381D01*
X131386905Y-132655762D01*
X131434524Y-132608143D01*
X131482143Y-132512905D01*
X131482143Y-132274810D01*
X131434524Y-132179571D01*
X131386905Y-132131952D01*
X131291667Y-132084333D01*
X131101190Y-132084333D01*
X131005952Y-132131952D01*
X130958333Y-132179571D01*
X130910714Y-132274810D01*
X132101190Y-131703381D02*
X132196429Y-131703381D01*
X132291667Y-131751000D01*
X132339286Y-131798619D01*
X132386905Y-131893857D01*
X132434524Y-132084333D01*
X132434524Y-132322429D01*
X132386905Y-132512905D01*
X132339286Y-132608143D01*
X132291667Y-132655762D01*
X132196429Y-132703381D01*
X132101190Y-132703381D01*
X132005952Y-132655762D01*
X131958333Y-132608143D01*
X131910714Y-132512905D01*
X131863095Y-132322429D01*
X131863095Y-132084333D01*
X131910714Y-131893857D01*
X131958333Y-131798619D01*
X132005952Y-131751000D01*
X132101190Y-131703381D01*
X147815476Y-132655762D02*
X147958333Y-132703381D01*
X148196429Y-132703381D01*
X148291667Y-132655762D01*
X148339286Y-132608143D01*
X148386905Y-132512905D01*
X148386905Y-132417667D01*
X148339286Y-132322429D01*
X148291667Y-132274810D01*
X148196429Y-132227190D01*
X148005952Y-132179571D01*
X147910714Y-132131952D01*
X147863095Y-132084333D01*
X147815476Y-131989095D01*
X147815476Y-131893857D01*
X147863095Y-131798619D01*
X147910714Y-131751000D01*
X148005952Y-131703381D01*
X148244048Y-131703381D01*
X148386905Y-131751000D01*
X148720238Y-131703381D02*
X148958333Y-132703381D01*
X149148810Y-131989095D01*
X149339286Y-132703381D01*
X149577381Y-131703381D01*
X150386905Y-131703381D02*
X150196428Y-131703381D01*
X150101190Y-131751000D01*
X150053571Y-131798619D01*
X149958333Y-131941476D01*
X149910714Y-132131952D01*
X149910714Y-132512905D01*
X149958333Y-132608143D01*
X150005952Y-132655762D01*
X150101190Y-132703381D01*
X150291667Y-132703381D01*
X150386905Y-132655762D01*
X150434524Y-132608143D01*
X150482143Y-132512905D01*
X150482143Y-132274810D01*
X150434524Y-132179571D01*
X150386905Y-132131952D01*
X150291667Y-132084333D01*
X150101190Y-132084333D01*
X150005952Y-132131952D01*
X149958333Y-132179571D01*
X149910714Y-132274810D01*
X151434524Y-132703381D02*
X150863095Y-132703381D01*
X151148809Y-132703381D02*
X151148809Y-131703381D01*
X151053571Y-131846238D01*
X150958333Y-131941476D01*
X150863095Y-131989095D01*
X166815476Y-132655762D02*
X166958333Y-132703381D01*
X167196429Y-132703381D01*
X167291667Y-132655762D01*
X167339286Y-132608143D01*
X167386905Y-132512905D01*
X167386905Y-132417667D01*
X167339286Y-132322429D01*
X167291667Y-132274810D01*
X167196429Y-132227190D01*
X167005952Y-132179571D01*
X166910714Y-132131952D01*
X166863095Y-132084333D01*
X166815476Y-131989095D01*
X166815476Y-131893857D01*
X166863095Y-131798619D01*
X166910714Y-131751000D01*
X167005952Y-131703381D01*
X167244048Y-131703381D01*
X167386905Y-131751000D01*
X167720238Y-131703381D02*
X167958333Y-132703381D01*
X168148810Y-131989095D01*
X168339286Y-132703381D01*
X168577381Y-131703381D01*
X169386905Y-131703381D02*
X169196428Y-131703381D01*
X169101190Y-131751000D01*
X169053571Y-131798619D01*
X168958333Y-131941476D01*
X168910714Y-132131952D01*
X168910714Y-132512905D01*
X168958333Y-132608143D01*
X169005952Y-132655762D01*
X169101190Y-132703381D01*
X169291667Y-132703381D01*
X169386905Y-132655762D01*
X169434524Y-132608143D01*
X169482143Y-132512905D01*
X169482143Y-132274810D01*
X169434524Y-132179571D01*
X169386905Y-132131952D01*
X169291667Y-132084333D01*
X169101190Y-132084333D01*
X169005952Y-132131952D01*
X168958333Y-132179571D01*
X168910714Y-132274810D01*
X169863095Y-131798619D02*
X169910714Y-131751000D01*
X170005952Y-131703381D01*
X170244048Y-131703381D01*
X170339286Y-131751000D01*
X170386905Y-131798619D01*
X170434524Y-131893857D01*
X170434524Y-131989095D01*
X170386905Y-132131952D01*
X169815476Y-132703381D01*
X170434524Y-132703381D01*
X185815476Y-132655762D02*
X185958333Y-132703381D01*
X186196429Y-132703381D01*
X186291667Y-132655762D01*
X186339286Y-132608143D01*
X186386905Y-132512905D01*
X186386905Y-132417667D01*
X186339286Y-132322429D01*
X186291667Y-132274810D01*
X186196429Y-132227190D01*
X186005952Y-132179571D01*
X185910714Y-132131952D01*
X185863095Y-132084333D01*
X185815476Y-131989095D01*
X185815476Y-131893857D01*
X185863095Y-131798619D01*
X185910714Y-131751000D01*
X186005952Y-131703381D01*
X186244048Y-131703381D01*
X186386905Y-131751000D01*
X186720238Y-131703381D02*
X186958333Y-132703381D01*
X187148810Y-131989095D01*
X187339286Y-132703381D01*
X187577381Y-131703381D01*
X188386905Y-131703381D02*
X188196428Y-131703381D01*
X188101190Y-131751000D01*
X188053571Y-131798619D01*
X187958333Y-131941476D01*
X187910714Y-132131952D01*
X187910714Y-132512905D01*
X187958333Y-132608143D01*
X188005952Y-132655762D01*
X188101190Y-132703381D01*
X188291667Y-132703381D01*
X188386905Y-132655762D01*
X188434524Y-132608143D01*
X188482143Y-132512905D01*
X188482143Y-132274810D01*
X188434524Y-132179571D01*
X188386905Y-132131952D01*
X188291667Y-132084333D01*
X188101190Y-132084333D01*
X188005952Y-132131952D01*
X187958333Y-132179571D01*
X187910714Y-132274810D01*
X188815476Y-131703381D02*
X189434524Y-131703381D01*
X189101190Y-132084333D01*
X189244048Y-132084333D01*
X189339286Y-132131952D01*
X189386905Y-132179571D01*
X189434524Y-132274810D01*
X189434524Y-132512905D01*
X189386905Y-132608143D01*
X189339286Y-132655762D01*
X189244048Y-132703381D01*
X188958333Y-132703381D01*
X188863095Y-132655762D01*
X188815476Y-132608143D01*
X204815476Y-132655762D02*
X204958333Y-132703381D01*
X205196429Y-132703381D01*
X205291667Y-132655762D01*
X205339286Y-132608143D01*
X205386905Y-132512905D01*
X205386905Y-132417667D01*
X205339286Y-132322429D01*
X205291667Y-132274810D01*
X205196429Y-132227190D01*
X205005952Y-132179571D01*
X204910714Y-132131952D01*
X204863095Y-132084333D01*
X204815476Y-131989095D01*
X204815476Y-131893857D01*
X204863095Y-131798619D01*
X204910714Y-131751000D01*
X205005952Y-131703381D01*
X205244048Y-131703381D01*
X205386905Y-131751000D01*
X205720238Y-131703381D02*
X205958333Y-132703381D01*
X206148810Y-131989095D01*
X206339286Y-132703381D01*
X206577381Y-131703381D01*
X207386905Y-131703381D02*
X207196428Y-131703381D01*
X207101190Y-131751000D01*
X207053571Y-131798619D01*
X206958333Y-131941476D01*
X206910714Y-132131952D01*
X206910714Y-132512905D01*
X206958333Y-132608143D01*
X207005952Y-132655762D01*
X207101190Y-132703381D01*
X207291667Y-132703381D01*
X207386905Y-132655762D01*
X207434524Y-132608143D01*
X207482143Y-132512905D01*
X207482143Y-132274810D01*
X207434524Y-132179571D01*
X207386905Y-132131952D01*
X207291667Y-132084333D01*
X207101190Y-132084333D01*
X207005952Y-132131952D01*
X206958333Y-132179571D01*
X206910714Y-132274810D01*
X208339286Y-132036714D02*
X208339286Y-132703381D01*
X208101190Y-131655762D02*
X207863095Y-132370048D01*
X208482143Y-132370048D01*
X223815476Y-132655762D02*
X223958333Y-132703381D01*
X224196429Y-132703381D01*
X224291667Y-132655762D01*
X224339286Y-132608143D01*
X224386905Y-132512905D01*
X224386905Y-132417667D01*
X224339286Y-132322429D01*
X224291667Y-132274810D01*
X224196429Y-132227190D01*
X224005952Y-132179571D01*
X223910714Y-132131952D01*
X223863095Y-132084333D01*
X223815476Y-131989095D01*
X223815476Y-131893857D01*
X223863095Y-131798619D01*
X223910714Y-131751000D01*
X224005952Y-131703381D01*
X224244048Y-131703381D01*
X224386905Y-131751000D01*
X224720238Y-131703381D02*
X224958333Y-132703381D01*
X225148810Y-131989095D01*
X225339286Y-132703381D01*
X225577381Y-131703381D01*
X226386905Y-131703381D02*
X226196428Y-131703381D01*
X226101190Y-131751000D01*
X226053571Y-131798619D01*
X225958333Y-131941476D01*
X225910714Y-132131952D01*
X225910714Y-132512905D01*
X225958333Y-132608143D01*
X226005952Y-132655762D01*
X226101190Y-132703381D01*
X226291667Y-132703381D01*
X226386905Y-132655762D01*
X226434524Y-132608143D01*
X226482143Y-132512905D01*
X226482143Y-132274810D01*
X226434524Y-132179571D01*
X226386905Y-132131952D01*
X226291667Y-132084333D01*
X226101190Y-132084333D01*
X226005952Y-132131952D01*
X225958333Y-132179571D01*
X225910714Y-132274810D01*
X227386905Y-131703381D02*
X226910714Y-131703381D01*
X226863095Y-132179571D01*
X226910714Y-132131952D01*
X227005952Y-132084333D01*
X227244048Y-132084333D01*
X227339286Y-132131952D01*
X227386905Y-132179571D01*
X227434524Y-132274810D01*
X227434524Y-132512905D01*
X227386905Y-132608143D01*
X227339286Y-132655762D01*
X227244048Y-132703381D01*
X227005952Y-132703381D01*
X226910714Y-132655762D01*
X226863095Y-132608143D01*
X242815476Y-132655762D02*
X242958333Y-132703381D01*
X243196429Y-132703381D01*
X243291667Y-132655762D01*
X243339286Y-132608143D01*
X243386905Y-132512905D01*
X243386905Y-132417667D01*
X243339286Y-132322429D01*
X243291667Y-132274810D01*
X243196429Y-132227190D01*
X243005952Y-132179571D01*
X242910714Y-132131952D01*
X242863095Y-132084333D01*
X242815476Y-131989095D01*
X242815476Y-131893857D01*
X242863095Y-131798619D01*
X242910714Y-131751000D01*
X243005952Y-131703381D01*
X243244048Y-131703381D01*
X243386905Y-131751000D01*
X243720238Y-131703381D02*
X243958333Y-132703381D01*
X244148810Y-131989095D01*
X244339286Y-132703381D01*
X244577381Y-131703381D01*
X245386905Y-131703381D02*
X245196428Y-131703381D01*
X245101190Y-131751000D01*
X245053571Y-131798619D01*
X244958333Y-131941476D01*
X244910714Y-132131952D01*
X244910714Y-132512905D01*
X244958333Y-132608143D01*
X245005952Y-132655762D01*
X245101190Y-132703381D01*
X245291667Y-132703381D01*
X245386905Y-132655762D01*
X245434524Y-132608143D01*
X245482143Y-132512905D01*
X245482143Y-132274810D01*
X245434524Y-132179571D01*
X245386905Y-132131952D01*
X245291667Y-132084333D01*
X245101190Y-132084333D01*
X245005952Y-132131952D01*
X244958333Y-132179571D01*
X244910714Y-132274810D01*
X246339286Y-131703381D02*
X246148809Y-131703381D01*
X246053571Y-131751000D01*
X246005952Y-131798619D01*
X245910714Y-131941476D01*
X245863095Y-132131952D01*
X245863095Y-132512905D01*
X245910714Y-132608143D01*
X245958333Y-132655762D01*
X246053571Y-132703381D01*
X246244048Y-132703381D01*
X246339286Y-132655762D01*
X246386905Y-132608143D01*
X246434524Y-132512905D01*
X246434524Y-132274810D01*
X246386905Y-132179571D01*
X246339286Y-132131952D01*
X246244048Y-132084333D01*
X246053571Y-132084333D01*
X245958333Y-132131952D01*
X245910714Y-132179571D01*
X245863095Y-132274810D01*
X261815476Y-132655762D02*
X261958333Y-132703381D01*
X262196429Y-132703381D01*
X262291667Y-132655762D01*
X262339286Y-132608143D01*
X262386905Y-132512905D01*
X262386905Y-132417667D01*
X262339286Y-132322429D01*
X262291667Y-132274810D01*
X262196429Y-132227190D01*
X262005952Y-132179571D01*
X261910714Y-132131952D01*
X261863095Y-132084333D01*
X261815476Y-131989095D01*
X261815476Y-131893857D01*
X261863095Y-131798619D01*
X261910714Y-131751000D01*
X262005952Y-131703381D01*
X262244048Y-131703381D01*
X262386905Y-131751000D01*
X262720238Y-131703381D02*
X262958333Y-132703381D01*
X263148810Y-131989095D01*
X263339286Y-132703381D01*
X263577381Y-131703381D01*
X264386905Y-131703381D02*
X264196428Y-131703381D01*
X264101190Y-131751000D01*
X264053571Y-131798619D01*
X263958333Y-131941476D01*
X263910714Y-132131952D01*
X263910714Y-132512905D01*
X263958333Y-132608143D01*
X264005952Y-132655762D01*
X264101190Y-132703381D01*
X264291667Y-132703381D01*
X264386905Y-132655762D01*
X264434524Y-132608143D01*
X264482143Y-132512905D01*
X264482143Y-132274810D01*
X264434524Y-132179571D01*
X264386905Y-132131952D01*
X264291667Y-132084333D01*
X264101190Y-132084333D01*
X264005952Y-132131952D01*
X263958333Y-132179571D01*
X263910714Y-132274810D01*
X264815476Y-131703381D02*
X265482143Y-131703381D01*
X265053571Y-132703381D01*
X337815476Y-132655762D02*
X337958333Y-132703381D01*
X338196429Y-132703381D01*
X338291667Y-132655762D01*
X338339286Y-132608143D01*
X338386905Y-132512905D01*
X338386905Y-132417667D01*
X338339286Y-132322429D01*
X338291667Y-132274810D01*
X338196429Y-132227190D01*
X338005952Y-132179571D01*
X337910714Y-132131952D01*
X337863095Y-132084333D01*
X337815476Y-131989095D01*
X337815476Y-131893857D01*
X337863095Y-131798619D01*
X337910714Y-131751000D01*
X338005952Y-131703381D01*
X338244048Y-131703381D01*
X338386905Y-131751000D01*
X338720238Y-131703381D02*
X338958333Y-132703381D01*
X339148810Y-131989095D01*
X339339286Y-132703381D01*
X339577381Y-131703381D01*
X340386905Y-131703381D02*
X340196428Y-131703381D01*
X340101190Y-131751000D01*
X340053571Y-131798619D01*
X339958333Y-131941476D01*
X339910714Y-132131952D01*
X339910714Y-132512905D01*
X339958333Y-132608143D01*
X340005952Y-132655762D01*
X340101190Y-132703381D01*
X340291667Y-132703381D01*
X340386905Y-132655762D01*
X340434524Y-132608143D01*
X340482143Y-132512905D01*
X340482143Y-132274810D01*
X340434524Y-132179571D01*
X340386905Y-132131952D01*
X340291667Y-132084333D01*
X340101190Y-132084333D01*
X340005952Y-132131952D01*
X339958333Y-132179571D01*
X339910714Y-132274810D01*
X340958333Y-132703381D02*
X341148809Y-132703381D01*
X341244048Y-132655762D01*
X341291667Y-132608143D01*
X341386905Y-132465286D01*
X341434524Y-132274810D01*
X341434524Y-131893857D01*
X341386905Y-131798619D01*
X341339286Y-131751000D01*
X341244048Y-131703381D01*
X341053571Y-131703381D01*
X340958333Y-131751000D01*
X340910714Y-131798619D01*
X340863095Y-131893857D01*
X340863095Y-132131952D01*
X340910714Y-132227190D01*
X340958333Y-132274810D01*
X341053571Y-132322429D01*
X341244048Y-132322429D01*
X341339286Y-132274810D01*
X341386905Y-132227190D01*
X341434524Y-132131952D01*
X380565476Y-132655762D02*
X380708333Y-132703381D01*
X380946429Y-132703381D01*
X381041667Y-132655762D01*
X381089286Y-132608143D01*
X381136905Y-132512905D01*
X381136905Y-132417667D01*
X381089286Y-132322429D01*
X381041667Y-132274810D01*
X380946429Y-132227190D01*
X380755952Y-132179571D01*
X380660714Y-132131952D01*
X380613095Y-132084333D01*
X380565476Y-131989095D01*
X380565476Y-131893857D01*
X380613095Y-131798619D01*
X380660714Y-131751000D01*
X380755952Y-131703381D01*
X380994048Y-131703381D01*
X381136905Y-131751000D01*
X381470238Y-131703381D02*
X381708333Y-132703381D01*
X381898810Y-131989095D01*
X382089286Y-132703381D01*
X382327381Y-131703381D01*
X382613095Y-131703381D02*
X383279762Y-131703381D01*
X382851190Y-132703381D01*
X383851190Y-131703381D02*
X383946429Y-131703381D01*
X384041667Y-131751000D01*
X384089286Y-131798619D01*
X384136905Y-131893857D01*
X384184524Y-132084333D01*
X384184524Y-132322429D01*
X384136905Y-132512905D01*
X384089286Y-132608143D01*
X384041667Y-132655762D01*
X383946429Y-132703381D01*
X383851190Y-132703381D01*
X383755952Y-132655762D01*
X383708333Y-132608143D01*
X383660714Y-132512905D01*
X383613095Y-132322429D01*
X383613095Y-132084333D01*
X383660714Y-131893857D01*
X383708333Y-131798619D01*
X383755952Y-131751000D01*
X383851190Y-131703381D01*
X399565476Y-132655762D02*
X399708333Y-132703381D01*
X399946429Y-132703381D01*
X400041667Y-132655762D01*
X400089286Y-132608143D01*
X400136905Y-132512905D01*
X400136905Y-132417667D01*
X400089286Y-132322429D01*
X400041667Y-132274810D01*
X399946429Y-132227190D01*
X399755952Y-132179571D01*
X399660714Y-132131952D01*
X399613095Y-132084333D01*
X399565476Y-131989095D01*
X399565476Y-131893857D01*
X399613095Y-131798619D01*
X399660714Y-131751000D01*
X399755952Y-131703381D01*
X399994048Y-131703381D01*
X400136905Y-131751000D01*
X400470238Y-131703381D02*
X400708333Y-132703381D01*
X400898810Y-131989095D01*
X401089286Y-132703381D01*
X401327381Y-131703381D01*
X401613095Y-131703381D02*
X402279762Y-131703381D01*
X401851190Y-132703381D01*
X403184524Y-132703381D02*
X402613095Y-132703381D01*
X402898809Y-132703381D02*
X402898809Y-131703381D01*
X402803571Y-131846238D01*
X402708333Y-131941476D01*
X402613095Y-131989095D01*
X418565476Y-132655762D02*
X418708333Y-132703381D01*
X418946429Y-132703381D01*
X419041667Y-132655762D01*
X419089286Y-132608143D01*
X419136905Y-132512905D01*
X419136905Y-132417667D01*
X419089286Y-132322429D01*
X419041667Y-132274810D01*
X418946429Y-132227190D01*
X418755952Y-132179571D01*
X418660714Y-132131952D01*
X418613095Y-132084333D01*
X418565476Y-131989095D01*
X418565476Y-131893857D01*
X418613095Y-131798619D01*
X418660714Y-131751000D01*
X418755952Y-131703381D01*
X418994048Y-131703381D01*
X419136905Y-131751000D01*
X419470238Y-131703381D02*
X419708333Y-132703381D01*
X419898810Y-131989095D01*
X420089286Y-132703381D01*
X420327381Y-131703381D01*
X420613095Y-131703381D02*
X421279762Y-131703381D01*
X420851190Y-132703381D01*
X421613095Y-131798619D02*
X421660714Y-131751000D01*
X421755952Y-131703381D01*
X421994048Y-131703381D01*
X422089286Y-131751000D01*
X422136905Y-131798619D01*
X422184524Y-131893857D01*
X422184524Y-131989095D01*
X422136905Y-132131952D01*
X421565476Y-132703381D01*
X422184524Y-132703381D01*
X318815476Y-151655762D02*
X318958333Y-151703381D01*
X319196429Y-151703381D01*
X319291667Y-151655762D01*
X319339286Y-151608143D01*
X319386905Y-151512905D01*
X319386905Y-151417667D01*
X319339286Y-151322429D01*
X319291667Y-151274810D01*
X319196429Y-151227190D01*
X319005952Y-151179571D01*
X318910714Y-151131952D01*
X318863095Y-151084333D01*
X318815476Y-150989095D01*
X318815476Y-150893857D01*
X318863095Y-150798619D01*
X318910714Y-150751000D01*
X319005952Y-150703381D01*
X319244048Y-150703381D01*
X319386905Y-150751000D01*
X319720238Y-150703381D02*
X319958333Y-151703381D01*
X320148810Y-150989095D01*
X320339286Y-151703381D01*
X320577381Y-150703381D01*
X321101190Y-151131952D02*
X321005952Y-151084333D01*
X320958333Y-151036714D01*
X320910714Y-150941476D01*
X320910714Y-150893857D01*
X320958333Y-150798619D01*
X321005952Y-150751000D01*
X321101190Y-150703381D01*
X321291667Y-150703381D01*
X321386905Y-150751000D01*
X321434524Y-150798619D01*
X321482143Y-150893857D01*
X321482143Y-150941476D01*
X321434524Y-151036714D01*
X321386905Y-151084333D01*
X321291667Y-151131952D01*
X321101190Y-151131952D01*
X321005952Y-151179571D01*
X320958333Y-151227190D01*
X320910714Y-151322429D01*
X320910714Y-151512905D01*
X320958333Y-151608143D01*
X321005952Y-151655762D01*
X321101190Y-151703381D01*
X321291667Y-151703381D01*
X321386905Y-151655762D01*
X321434524Y-151608143D01*
X321482143Y-151512905D01*
X321482143Y-151322429D01*
X321434524Y-151227190D01*
X321386905Y-151179571D01*
X321291667Y-151131952D01*
X322434524Y-151703381D02*
X321863095Y-151703381D01*
X322148809Y-151703381D02*
X322148809Y-150703381D01*
X322053571Y-150846238D01*
X321958333Y-150941476D01*
X321863095Y-150989095D01*
X337815476Y-151655762D02*
X337958333Y-151703381D01*
X338196429Y-151703381D01*
X338291667Y-151655762D01*
X338339286Y-151608143D01*
X338386905Y-151512905D01*
X338386905Y-151417667D01*
X338339286Y-151322429D01*
X338291667Y-151274810D01*
X338196429Y-151227190D01*
X338005952Y-151179571D01*
X337910714Y-151131952D01*
X337863095Y-151084333D01*
X337815476Y-150989095D01*
X337815476Y-150893857D01*
X337863095Y-150798619D01*
X337910714Y-150751000D01*
X338005952Y-150703381D01*
X338244048Y-150703381D01*
X338386905Y-150751000D01*
X338720238Y-150703381D02*
X338958333Y-151703381D01*
X339148810Y-150989095D01*
X339339286Y-151703381D01*
X339577381Y-150703381D01*
X340101190Y-151131952D02*
X340005952Y-151084333D01*
X339958333Y-151036714D01*
X339910714Y-150941476D01*
X339910714Y-150893857D01*
X339958333Y-150798619D01*
X340005952Y-150751000D01*
X340101190Y-150703381D01*
X340291667Y-150703381D01*
X340386905Y-150751000D01*
X340434524Y-150798619D01*
X340482143Y-150893857D01*
X340482143Y-150941476D01*
X340434524Y-151036714D01*
X340386905Y-151084333D01*
X340291667Y-151131952D01*
X340101190Y-151131952D01*
X340005952Y-151179571D01*
X339958333Y-151227190D01*
X339910714Y-151322429D01*
X339910714Y-151512905D01*
X339958333Y-151608143D01*
X340005952Y-151655762D01*
X340101190Y-151703381D01*
X340291667Y-151703381D01*
X340386905Y-151655762D01*
X340434524Y-151608143D01*
X340482143Y-151512905D01*
X340482143Y-151322429D01*
X340434524Y-151227190D01*
X340386905Y-151179571D01*
X340291667Y-151131952D01*
X340863095Y-150798619D02*
X340910714Y-150751000D01*
X341005952Y-150703381D01*
X341244048Y-150703381D01*
X341339286Y-150751000D01*
X341386905Y-150798619D01*
X341434524Y-150893857D01*
X341434524Y-150989095D01*
X341386905Y-151131952D01*
X340815476Y-151703381D01*
X341434524Y-151703381D01*
X356815476Y-151655762D02*
X356958333Y-151703381D01*
X357196429Y-151703381D01*
X357291667Y-151655762D01*
X357339286Y-151608143D01*
X357386905Y-151512905D01*
X357386905Y-151417667D01*
X357339286Y-151322429D01*
X357291667Y-151274810D01*
X357196429Y-151227190D01*
X357005952Y-151179571D01*
X356910714Y-151131952D01*
X356863095Y-151084333D01*
X356815476Y-150989095D01*
X356815476Y-150893857D01*
X356863095Y-150798619D01*
X356910714Y-150751000D01*
X357005952Y-150703381D01*
X357244048Y-150703381D01*
X357386905Y-150751000D01*
X357720238Y-150703381D02*
X357958333Y-151703381D01*
X358148810Y-150989095D01*
X358339286Y-151703381D01*
X358577381Y-150703381D01*
X359101190Y-151131952D02*
X359005952Y-151084333D01*
X358958333Y-151036714D01*
X358910714Y-150941476D01*
X358910714Y-150893857D01*
X358958333Y-150798619D01*
X359005952Y-150751000D01*
X359101190Y-150703381D01*
X359291667Y-150703381D01*
X359386905Y-150751000D01*
X359434524Y-150798619D01*
X359482143Y-150893857D01*
X359482143Y-150941476D01*
X359434524Y-151036714D01*
X359386905Y-151084333D01*
X359291667Y-151131952D01*
X359101190Y-151131952D01*
X359005952Y-151179571D01*
X358958333Y-151227190D01*
X358910714Y-151322429D01*
X358910714Y-151512905D01*
X358958333Y-151608143D01*
X359005952Y-151655762D01*
X359101190Y-151703381D01*
X359291667Y-151703381D01*
X359386905Y-151655762D01*
X359434524Y-151608143D01*
X359482143Y-151512905D01*
X359482143Y-151322429D01*
X359434524Y-151227190D01*
X359386905Y-151179571D01*
X359291667Y-151131952D01*
X359815476Y-150703381D02*
X360434524Y-150703381D01*
X360101190Y-151084333D01*
X360244048Y-151084333D01*
X360339286Y-151131952D01*
X360386905Y-151179571D01*
X360434524Y-151274810D01*
X360434524Y-151512905D01*
X360386905Y-151608143D01*
X360339286Y-151655762D01*
X360244048Y-151703381D01*
X359958333Y-151703381D01*
X359863095Y-151655762D01*
X359815476Y-151608143D01*
X418565476Y-151655762D02*
X418708333Y-151703381D01*
X418946429Y-151703381D01*
X419041667Y-151655762D01*
X419089286Y-151608143D01*
X419136905Y-151512905D01*
X419136905Y-151417667D01*
X419089286Y-151322429D01*
X419041667Y-151274810D01*
X418946429Y-151227190D01*
X418755952Y-151179571D01*
X418660714Y-151131952D01*
X418613095Y-151084333D01*
X418565476Y-150989095D01*
X418565476Y-150893857D01*
X418613095Y-150798619D01*
X418660714Y-150751000D01*
X418755952Y-150703381D01*
X418994048Y-150703381D01*
X419136905Y-150751000D01*
X419470238Y-150703381D02*
X419708333Y-151703381D01*
X419898810Y-150989095D01*
X420089286Y-151703381D01*
X420327381Y-150703381D01*
X420851190Y-151131952D02*
X420755952Y-151084333D01*
X420708333Y-151036714D01*
X420660714Y-150941476D01*
X420660714Y-150893857D01*
X420708333Y-150798619D01*
X420755952Y-150751000D01*
X420851190Y-150703381D01*
X421041667Y-150703381D01*
X421136905Y-150751000D01*
X421184524Y-150798619D01*
X421232143Y-150893857D01*
X421232143Y-150941476D01*
X421184524Y-151036714D01*
X421136905Y-151084333D01*
X421041667Y-151131952D01*
X420851190Y-151131952D01*
X420755952Y-151179571D01*
X420708333Y-151227190D01*
X420660714Y-151322429D01*
X420660714Y-151512905D01*
X420708333Y-151608143D01*
X420755952Y-151655762D01*
X420851190Y-151703381D01*
X421041667Y-151703381D01*
X421136905Y-151655762D01*
X421184524Y-151608143D01*
X421232143Y-151512905D01*
X421232143Y-151322429D01*
X421184524Y-151227190D01*
X421136905Y-151179571D01*
X421041667Y-151131952D01*
X422136905Y-150703381D02*
X421660714Y-150703381D01*
X421613095Y-151179571D01*
X421660714Y-151131952D01*
X421755952Y-151084333D01*
X421994048Y-151084333D01*
X422089286Y-151131952D01*
X422136905Y-151179571D01*
X422184524Y-151274810D01*
X422184524Y-151512905D01*
X422136905Y-151608143D01*
X422089286Y-151655762D01*
X421994048Y-151703381D01*
X421755952Y-151703381D01*
X421660714Y-151655762D01*
X421613095Y-151608143D01*
X337815476Y-94655762D02*
X337958333Y-94703381D01*
X338196429Y-94703381D01*
X338291667Y-94655762D01*
X338339286Y-94608143D01*
X338386905Y-94512905D01*
X338386905Y-94417667D01*
X338339286Y-94322429D01*
X338291667Y-94274810D01*
X338196429Y-94227190D01*
X338005952Y-94179571D01*
X337910714Y-94131952D01*
X337863095Y-94084333D01*
X337815476Y-93989095D01*
X337815476Y-93893857D01*
X337863095Y-93798619D01*
X337910714Y-93751000D01*
X338005952Y-93703381D01*
X338244048Y-93703381D01*
X338386905Y-93751000D01*
X338720238Y-93703381D02*
X338958333Y-94703381D01*
X339148810Y-93989095D01*
X339339286Y-94703381D01*
X339577381Y-93703381D01*
X339863095Y-93703381D02*
X340482143Y-93703381D01*
X340148809Y-94084333D01*
X340291667Y-94084333D01*
X340386905Y-94131952D01*
X340434524Y-94179571D01*
X340482143Y-94274810D01*
X340482143Y-94512905D01*
X340434524Y-94608143D01*
X340386905Y-94655762D01*
X340291667Y-94703381D01*
X340005952Y-94703381D01*
X339910714Y-94655762D01*
X339863095Y-94608143D01*
X341339286Y-94036714D02*
X341339286Y-94703381D01*
X341101190Y-93655762D02*
X340863095Y-94370048D01*
X341482143Y-94370048D01*
X55190476Y-113655762D02*
X55333333Y-113703381D01*
X55571429Y-113703381D01*
X55666667Y-113655762D01*
X55714286Y-113608143D01*
X55761905Y-113512905D01*
X55761905Y-113417667D01*
X55714286Y-113322429D01*
X55666667Y-113274810D01*
X55571429Y-113227190D01*
X55380952Y-113179571D01*
X55285714Y-113131952D01*
X55238095Y-113084333D01*
X55190476Y-112989095D01*
X55190476Y-112893857D01*
X55238095Y-112798619D01*
X55285714Y-112751000D01*
X55380952Y-112703381D01*
X55619048Y-112703381D01*
X55761905Y-112751000D01*
X56095238Y-112703381D02*
X56333333Y-113703381D01*
X56523810Y-112989095D01*
X56714286Y-113703381D01*
X56952381Y-112703381D01*
X57761905Y-113036714D02*
X57761905Y-113703381D01*
X57523809Y-112655762D02*
X57285714Y-113370048D01*
X57904762Y-113370048D01*
X58476190Y-112703381D02*
X58571429Y-112703381D01*
X58666667Y-112751000D01*
X58714286Y-112798619D01*
X58761905Y-112893857D01*
X58809524Y-113084333D01*
X58809524Y-113322429D01*
X58761905Y-113512905D01*
X58714286Y-113608143D01*
X58666667Y-113655762D01*
X58571429Y-113703381D01*
X58476190Y-113703381D01*
X58380952Y-113655762D01*
X58333333Y-113608143D01*
X58285714Y-113512905D01*
X58238095Y-113322429D01*
X58238095Y-113084333D01*
X58285714Y-112893857D01*
X58333333Y-112798619D01*
X58380952Y-112751000D01*
X58476190Y-112703381D01*
X74190476Y-151655762D02*
X74333333Y-151703381D01*
X74571429Y-151703381D01*
X74666667Y-151655762D01*
X74714286Y-151608143D01*
X74761905Y-151512905D01*
X74761905Y-151417667D01*
X74714286Y-151322429D01*
X74666667Y-151274810D01*
X74571429Y-151227190D01*
X74380952Y-151179571D01*
X74285714Y-151131952D01*
X74238095Y-151084333D01*
X74190476Y-150989095D01*
X74190476Y-150893857D01*
X74238095Y-150798619D01*
X74285714Y-150751000D01*
X74380952Y-150703381D01*
X74619048Y-150703381D01*
X74761905Y-150751000D01*
X75095238Y-150703381D02*
X75333333Y-151703381D01*
X75523810Y-150989095D01*
X75714286Y-151703381D01*
X75952381Y-150703381D01*
X76238095Y-150703381D02*
X76904762Y-150703381D01*
X76476190Y-151703381D01*
X77761905Y-150703381D02*
X77285714Y-150703381D01*
X77238095Y-151179571D01*
X77285714Y-151131952D01*
X77380952Y-151084333D01*
X77619048Y-151084333D01*
X77714286Y-151131952D01*
X77761905Y-151179571D01*
X77809524Y-151274810D01*
X77809524Y-151512905D01*
X77761905Y-151608143D01*
X77714286Y-151655762D01*
X77619048Y-151703381D01*
X77380952Y-151703381D01*
X77285714Y-151655762D01*
X77238095Y-151608143D01*
X97940476Y-151655762D02*
X98083333Y-151703381D01*
X98321429Y-151703381D01*
X98416667Y-151655762D01*
X98464286Y-151608143D01*
X98511905Y-151512905D01*
X98511905Y-151417667D01*
X98464286Y-151322429D01*
X98416667Y-151274810D01*
X98321429Y-151227190D01*
X98130952Y-151179571D01*
X98035714Y-151131952D01*
X97988095Y-151084333D01*
X97940476Y-150989095D01*
X97940476Y-150893857D01*
X97988095Y-150798619D01*
X98035714Y-150751000D01*
X98130952Y-150703381D01*
X98369048Y-150703381D01*
X98511905Y-150751000D01*
X98845238Y-150703381D02*
X99083333Y-151703381D01*
X99273810Y-150989095D01*
X99464286Y-151703381D01*
X99702381Y-150703381D01*
X99988095Y-150703381D02*
X100654762Y-150703381D01*
X100226190Y-151703381D01*
X101464286Y-150703381D02*
X101273809Y-150703381D01*
X101178571Y-150751000D01*
X101130952Y-150798619D01*
X101035714Y-150941476D01*
X100988095Y-151131952D01*
X100988095Y-151512905D01*
X101035714Y-151608143D01*
X101083333Y-151655762D01*
X101178571Y-151703381D01*
X101369048Y-151703381D01*
X101464286Y-151655762D01*
X101511905Y-151608143D01*
X101559524Y-151512905D01*
X101559524Y-151274810D01*
X101511905Y-151179571D01*
X101464286Y-151131952D01*
X101369048Y-151084333D01*
X101178571Y-151084333D01*
X101083333Y-151131952D01*
X101035714Y-151179571D01*
X100988095Y-151274810D01*
X240440476Y-151655762D02*
X240583333Y-151703381D01*
X240821429Y-151703381D01*
X240916667Y-151655762D01*
X240964286Y-151608143D01*
X241011905Y-151512905D01*
X241011905Y-151417667D01*
X240964286Y-151322429D01*
X240916667Y-151274810D01*
X240821429Y-151227190D01*
X240630952Y-151179571D01*
X240535714Y-151131952D01*
X240488095Y-151084333D01*
X240440476Y-150989095D01*
X240440476Y-150893857D01*
X240488095Y-150798619D01*
X240535714Y-150751000D01*
X240630952Y-150703381D01*
X240869048Y-150703381D01*
X241011905Y-150751000D01*
X241345238Y-150703381D02*
X241583333Y-151703381D01*
X241773810Y-150989095D01*
X241964286Y-151703381D01*
X242202381Y-150703381D01*
X242488095Y-150703381D02*
X243154762Y-150703381D01*
X242726190Y-151703381D01*
X243678571Y-151131952D02*
X243583333Y-151084333D01*
X243535714Y-151036714D01*
X243488095Y-150941476D01*
X243488095Y-150893857D01*
X243535714Y-150798619D01*
X243583333Y-150751000D01*
X243678571Y-150703381D01*
X243869048Y-150703381D01*
X243964286Y-150751000D01*
X244011905Y-150798619D01*
X244059524Y-150893857D01*
X244059524Y-150941476D01*
X244011905Y-151036714D01*
X243964286Y-151084333D01*
X243869048Y-151131952D01*
X243678571Y-151131952D01*
X243583333Y-151179571D01*
X243535714Y-151227190D01*
X243488095Y-151322429D01*
X243488095Y-151512905D01*
X243535714Y-151608143D01*
X243583333Y-151655762D01*
X243678571Y-151703381D01*
X243869048Y-151703381D01*
X243964286Y-151655762D01*
X244011905Y-151608143D01*
X244059524Y-151512905D01*
X244059524Y-151322429D01*
X244011905Y-151227190D01*
X243964286Y-151179571D01*
X243869048Y-151131952D01*
X264190476Y-151655762D02*
X264333333Y-151703381D01*
X264571429Y-151703381D01*
X264666667Y-151655762D01*
X264714286Y-151608143D01*
X264761905Y-151512905D01*
X264761905Y-151417667D01*
X264714286Y-151322429D01*
X264666667Y-151274810D01*
X264571429Y-151227190D01*
X264380952Y-151179571D01*
X264285714Y-151131952D01*
X264238095Y-151084333D01*
X264190476Y-150989095D01*
X264190476Y-150893857D01*
X264238095Y-150798619D01*
X264285714Y-150751000D01*
X264380952Y-150703381D01*
X264619048Y-150703381D01*
X264761905Y-150751000D01*
X265095238Y-150703381D02*
X265333333Y-151703381D01*
X265523810Y-150989095D01*
X265714286Y-151703381D01*
X265952381Y-150703381D01*
X266238095Y-150703381D02*
X266904762Y-150703381D01*
X266476190Y-151703381D01*
X267333333Y-151703381D02*
X267523809Y-151703381D01*
X267619048Y-151655762D01*
X267666667Y-151608143D01*
X267761905Y-151465286D01*
X267809524Y-151274810D01*
X267809524Y-150893857D01*
X267761905Y-150798619D01*
X267714286Y-150751000D01*
X267619048Y-150703381D01*
X267428571Y-150703381D01*
X267333333Y-150751000D01*
X267285714Y-150798619D01*
X267238095Y-150893857D01*
X267238095Y-151131952D01*
X267285714Y-151227190D01*
X267333333Y-151274810D01*
X267428571Y-151322429D01*
X267619048Y-151322429D01*
X267714286Y-151274810D01*
X267761905Y-151227190D01*
X267809524Y-151131952D01*
X287940476Y-151655762D02*
X288083333Y-151703381D01*
X288321429Y-151703381D01*
X288416667Y-151655762D01*
X288464286Y-151608143D01*
X288511905Y-151512905D01*
X288511905Y-151417667D01*
X288464286Y-151322429D01*
X288416667Y-151274810D01*
X288321429Y-151227190D01*
X288130952Y-151179571D01*
X288035714Y-151131952D01*
X287988095Y-151084333D01*
X287940476Y-150989095D01*
X287940476Y-150893857D01*
X287988095Y-150798619D01*
X288035714Y-150751000D01*
X288130952Y-150703381D01*
X288369048Y-150703381D01*
X288511905Y-150751000D01*
X288845238Y-150703381D02*
X289083333Y-151703381D01*
X289273810Y-150989095D01*
X289464286Y-151703381D01*
X289702381Y-150703381D01*
X290226190Y-151131952D02*
X290130952Y-151084333D01*
X290083333Y-151036714D01*
X290035714Y-150941476D01*
X290035714Y-150893857D01*
X290083333Y-150798619D01*
X290130952Y-150751000D01*
X290226190Y-150703381D01*
X290416667Y-150703381D01*
X290511905Y-150751000D01*
X290559524Y-150798619D01*
X290607143Y-150893857D01*
X290607143Y-150941476D01*
X290559524Y-151036714D01*
X290511905Y-151084333D01*
X290416667Y-151131952D01*
X290226190Y-151131952D01*
X290130952Y-151179571D01*
X290083333Y-151227190D01*
X290035714Y-151322429D01*
X290035714Y-151512905D01*
X290083333Y-151608143D01*
X290130952Y-151655762D01*
X290226190Y-151703381D01*
X290416667Y-151703381D01*
X290511905Y-151655762D01*
X290559524Y-151608143D01*
X290607143Y-151512905D01*
X290607143Y-151322429D01*
X290559524Y-151227190D01*
X290511905Y-151179571D01*
X290416667Y-151131952D01*
X291226190Y-150703381D02*
X291321429Y-150703381D01*
X291416667Y-150751000D01*
X291464286Y-150798619D01*
X291511905Y-150893857D01*
X291559524Y-151084333D01*
X291559524Y-151322429D01*
X291511905Y-151512905D01*
X291464286Y-151608143D01*
X291416667Y-151655762D01*
X291321429Y-151703381D01*
X291226190Y-151703381D01*
X291130952Y-151655762D01*
X291083333Y-151608143D01*
X291035714Y-151512905D01*
X290988095Y-151322429D01*
X290988095Y-151084333D01*
X291035714Y-150893857D01*
X291083333Y-150798619D01*
X291130952Y-150751000D01*
X291226190Y-150703381D01*
X50440476Y-132655762D02*
X50583333Y-132703381D01*
X50821429Y-132703381D01*
X50916667Y-132655762D01*
X50964286Y-132608143D01*
X51011905Y-132512905D01*
X51011905Y-132417667D01*
X50964286Y-132322429D01*
X50916667Y-132274810D01*
X50821429Y-132227190D01*
X50630952Y-132179571D01*
X50535714Y-132131952D01*
X50488095Y-132084333D01*
X50440476Y-131989095D01*
X50440476Y-131893857D01*
X50488095Y-131798619D01*
X50535714Y-131751000D01*
X50630952Y-131703381D01*
X50869048Y-131703381D01*
X51011905Y-131751000D01*
X51345238Y-131703381D02*
X51583333Y-132703381D01*
X51773810Y-131989095D01*
X51964286Y-132703381D01*
X52202381Y-131703381D01*
X53059524Y-131703381D02*
X52583333Y-131703381D01*
X52535714Y-132179571D01*
X52583333Y-132131952D01*
X52678571Y-132084333D01*
X52916667Y-132084333D01*
X53011905Y-132131952D01*
X53059524Y-132179571D01*
X53107143Y-132274810D01*
X53107143Y-132512905D01*
X53059524Y-132608143D01*
X53011905Y-132655762D01*
X52916667Y-132703381D01*
X52678571Y-132703381D01*
X52583333Y-132655762D01*
X52535714Y-132608143D01*
X53964286Y-131703381D02*
X53773809Y-131703381D01*
X53678571Y-131751000D01*
X53630952Y-131798619D01*
X53535714Y-131941476D01*
X53488095Y-132131952D01*
X53488095Y-132512905D01*
X53535714Y-132608143D01*
X53583333Y-132655762D01*
X53678571Y-132703381D01*
X53869048Y-132703381D01*
X53964286Y-132655762D01*
X54011905Y-132608143D01*
X54059524Y-132512905D01*
X54059524Y-132274810D01*
X54011905Y-132179571D01*
X53964286Y-132131952D01*
X53869048Y-132084333D01*
X53678571Y-132084333D01*
X53583333Y-132131952D01*
X53535714Y-132179571D01*
X53488095Y-132274810D01*
X311690476Y-104155762D02*
X311833333Y-104203381D01*
X312071429Y-104203381D01*
X312166667Y-104155762D01*
X312214286Y-104108143D01*
X312261905Y-104012905D01*
X312261905Y-103917667D01*
X312214286Y-103822429D01*
X312166667Y-103774810D01*
X312071429Y-103727190D01*
X311880952Y-103679571D01*
X311785714Y-103631952D01*
X311738095Y-103584333D01*
X311690476Y-103489095D01*
X311690476Y-103393857D01*
X311738095Y-103298619D01*
X311785714Y-103251000D01*
X311880952Y-103203381D01*
X312119048Y-103203381D01*
X312261905Y-103251000D01*
X312595238Y-103203381D02*
X312833333Y-104203381D01*
X313023810Y-103489095D01*
X313214286Y-104203381D01*
X313452381Y-103203381D01*
X313738095Y-103203381D02*
X314357143Y-103203381D01*
X314023809Y-103584333D01*
X314166667Y-103584333D01*
X314261905Y-103631952D01*
X314309524Y-103679571D01*
X314357143Y-103774810D01*
X314357143Y-104012905D01*
X314309524Y-104108143D01*
X314261905Y-104155762D01*
X314166667Y-104203381D01*
X313880952Y-104203381D01*
X313785714Y-104155762D01*
X313738095Y-104108143D01*
X314690476Y-103203381D02*
X315309524Y-103203381D01*
X314976190Y-103584333D01*
X315119048Y-103584333D01*
X315214286Y-103631952D01*
X315261905Y-103679571D01*
X315309524Y-103774810D01*
X315309524Y-104012905D01*
X315261905Y-104108143D01*
X315214286Y-104155762D01*
X315119048Y-104203381D01*
X314833333Y-104203381D01*
X314738095Y-104155762D01*
X314690476Y-104108143D01*
X437565476Y-142155762D02*
X437708333Y-142203381D01*
X437946429Y-142203381D01*
X438041667Y-142155762D01*
X438089286Y-142108143D01*
X438136905Y-142012905D01*
X438136905Y-141917667D01*
X438089286Y-141822429D01*
X438041667Y-141774810D01*
X437946429Y-141727190D01*
X437755952Y-141679571D01*
X437660714Y-141631952D01*
X437613095Y-141584333D01*
X437565476Y-141489095D01*
X437565476Y-141393857D01*
X437613095Y-141298619D01*
X437660714Y-141251000D01*
X437755952Y-141203381D01*
X437994048Y-141203381D01*
X438136905Y-141251000D01*
X438470238Y-141203381D02*
X438708333Y-142203381D01*
X438898810Y-141489095D01*
X439089286Y-142203381D01*
X439327381Y-141203381D01*
X439613095Y-141203381D02*
X440279762Y-141203381D01*
X439851190Y-142203381D01*
X440565476Y-141203381D02*
X441184524Y-141203381D01*
X440851190Y-141584333D01*
X440994048Y-141584333D01*
X441089286Y-141631952D01*
X441136905Y-141679571D01*
X441184524Y-141774810D01*
X441184524Y-142012905D01*
X441136905Y-142108143D01*
X441089286Y-142155762D01*
X440994048Y-142203381D01*
X440708333Y-142203381D01*
X440613095Y-142155762D01*
X440565476Y-142108143D01*
X437565476Y-104155762D02*
X437708333Y-104203381D01*
X437946429Y-104203381D01*
X438041667Y-104155762D01*
X438089286Y-104108143D01*
X438136905Y-104012905D01*
X438136905Y-103917667D01*
X438089286Y-103822429D01*
X438041667Y-103774810D01*
X437946429Y-103727190D01*
X437755952Y-103679571D01*
X437660714Y-103631952D01*
X437613095Y-103584333D01*
X437565476Y-103489095D01*
X437565476Y-103393857D01*
X437613095Y-103298619D01*
X437660714Y-103251000D01*
X437755952Y-103203381D01*
X437994048Y-103203381D01*
X438136905Y-103251000D01*
X438470238Y-103203381D02*
X438708333Y-104203381D01*
X438898810Y-103489095D01*
X439089286Y-104203381D01*
X439327381Y-103203381D01*
X439613095Y-103203381D02*
X440232143Y-103203381D01*
X439898809Y-103584333D01*
X440041667Y-103584333D01*
X440136905Y-103631952D01*
X440184524Y-103679571D01*
X440232143Y-103774810D01*
X440232143Y-104012905D01*
X440184524Y-104108143D01*
X440136905Y-104155762D01*
X440041667Y-104203381D01*
X439755952Y-104203381D01*
X439660714Y-104155762D01*
X439613095Y-104108143D01*
X440708333Y-104203381D02*
X440898809Y-104203381D01*
X440994048Y-104155762D01*
X441041667Y-104108143D01*
X441136905Y-103965286D01*
X441184524Y-103774810D01*
X441184524Y-103393857D01*
X441136905Y-103298619D01*
X441089286Y-103251000D01*
X440994048Y-103203381D01*
X440803571Y-103203381D01*
X440708333Y-103251000D01*
X440660714Y-103298619D01*
X440613095Y-103393857D01*
X440613095Y-103631952D01*
X440660714Y-103727190D01*
X440708333Y-103774810D01*
X440803571Y-103822429D01*
X440994048Y-103822429D01*
X441089286Y-103774810D01*
X441136905Y-103727190D01*
X441184524Y-103631952D01*
X304565476Y-75655762D02*
X304708333Y-75703381D01*
X304946429Y-75703381D01*
X305041667Y-75655762D01*
X305089286Y-75608143D01*
X305136905Y-75512905D01*
X305136905Y-75417667D01*
X305089286Y-75322429D01*
X305041667Y-75274810D01*
X304946429Y-75227190D01*
X304755952Y-75179571D01*
X304660714Y-75131952D01*
X304613095Y-75084333D01*
X304565476Y-74989095D01*
X304565476Y-74893857D01*
X304613095Y-74798619D01*
X304660714Y-74751000D01*
X304755952Y-74703381D01*
X304994048Y-74703381D01*
X305136905Y-74751000D01*
X305470238Y-74703381D02*
X305708333Y-75703381D01*
X305898810Y-74989095D01*
X306089286Y-75703381D01*
X306327381Y-74703381D01*
X307232143Y-75703381D02*
X306660714Y-75703381D01*
X306946428Y-75703381D02*
X306946428Y-74703381D01*
X306851190Y-74846238D01*
X306755952Y-74941476D01*
X306660714Y-74989095D01*
X307565476Y-74703381D02*
X308184524Y-74703381D01*
X307851190Y-75084333D01*
X307994048Y-75084333D01*
X308089286Y-75131952D01*
X308136905Y-75179571D01*
X308184524Y-75274810D01*
X308184524Y-75512905D01*
X308136905Y-75608143D01*
X308089286Y-75655762D01*
X307994048Y-75703381D01*
X307708333Y-75703381D01*
X307613095Y-75655762D01*
X307565476Y-75608143D01*
X169190476Y-151655762D02*
X169333333Y-151703381D01*
X169571429Y-151703381D01*
X169666667Y-151655762D01*
X169714286Y-151608143D01*
X169761905Y-151512905D01*
X169761905Y-151417667D01*
X169714286Y-151322429D01*
X169666667Y-151274810D01*
X169571429Y-151227190D01*
X169380952Y-151179571D01*
X169285714Y-151131952D01*
X169238095Y-151084333D01*
X169190476Y-150989095D01*
X169190476Y-150893857D01*
X169238095Y-150798619D01*
X169285714Y-150751000D01*
X169380952Y-150703381D01*
X169619048Y-150703381D01*
X169761905Y-150751000D01*
X170095238Y-150703381D02*
X170333333Y-151703381D01*
X170523810Y-150989095D01*
X170714286Y-151703381D01*
X170952381Y-150703381D01*
X171238095Y-150703381D02*
X171904762Y-150703381D01*
X171476190Y-151703381D01*
X172190476Y-150703381D02*
X172857143Y-150703381D01*
X172428571Y-151703381D01*
M02*
