M48
INCH,TZ
T1C0.016
T2C0.028
T3C0.059
%
G90
G05
T1
X3.4596Y-4.1609
X3.4596Y-4.3947
X6.405Y-3.7869
X6.4518Y-4.3947
X9.3971Y-4.3947
X9.4439Y-3.7402
X10.937Y-5.1575
X11.9685Y-4.6284
X12.2958Y-4.8622
X12.6476Y-5.0197
X12.6476Y-5.8366
X12.6698Y-4.6284
X12.7165Y-3.7402
X12.7323Y-5.6142
X13.1988Y-4.9902
X13.5827Y-4.8819
X13.6299Y-4.2913
X13.6378Y-4.5827
X13.6417Y-3.7008
X13.6457Y-3.5591
X13.6713Y-4.3898
X13.8425Y-5.7953
X13.9055Y-3.5591
X13.9213Y-4.2913
X13.9921Y-4.5827
X14.0022Y-5.0492
X14.0022Y-5.6336
X14.0157Y-3.7008
X14.124Y-4.5472
X14.1496Y-4.4173
X14.2205Y-4.7559
X14.2205Y-5.8661
X14.2362Y-5.6142
X14.2441Y-5.7559
X14.2618Y-4.9114
X14.3012Y-5.935
X14.311Y-4.8622
X14.3307Y-4.9803
X14.3701Y-3.5591
X14.3701Y-4.2913
X14.3701Y-5.1969
X14.4464Y-5.9843
X14.498Y-3.189
X14.5276Y-4.4882
X14.6457Y-4.3406
X14.6555Y-5.5413
X14.685Y-4.2913
X14.7795Y-5.0472
X14.8268Y-3.5591
X14.872Y-5.935
X14.9213Y-5.7953
X15.0074Y-5.9843
X16.4665Y-3.5925
T3
X1.8136Y-3.1726
X1.9071Y-5.4167
X1.9071Y-6.1648
X2.0006Y-3.9207
X2.0636Y-3.0726
X2.0941Y-4.6687
X2.1571Y-5.3167
X2.1571Y-6.0648
X2.2506Y-3.8207
X2.3441Y-4.5687
X2.5616Y-3.1726
X2.7486Y-5.4167
X2.8116Y-3.0726
X2.8421Y-6.1648
X2.9356Y-3.9207
X2.9986Y-5.3167
X3.0921Y-6.0648
X3.1226Y-4.6687
X3.1856Y-3.8207
X3.3096Y-3.1726
X3.3726Y-4.5687
X3.4967Y-5.4167
X3.5596Y-3.0726
X3.6837Y-3.9207
X3.7467Y-5.3167
X3.7772Y-6.1648
X3.8707Y-4.6687
X3.9337Y-3.8207
X4.0272Y-6.0648
X4.0577Y-3.1726
X4.1207Y-4.5687
X4.2447Y-5.4167
X4.3077Y-3.0726
X4.4317Y-3.9207
X4.4947Y-5.3167
X4.6187Y-4.6687
X4.6817Y-3.8207
X4.8057Y-3.1726
X4.8687Y-4.5687
X4.9927Y-5.4167
X5.0557Y-3.0726
X5.1797Y-3.9207
X5.2427Y-5.3167
X5.3667Y-4.6687
X5.4297Y-3.8207
X5.5537Y-3.1726
X5.6167Y-4.5687
X5.7407Y-5.4167
X5.8037Y-3.0726
X5.9278Y-3.9207
X5.9907Y-5.3167
X6.1148Y-4.6687
X6.1778Y-3.8207
X6.3018Y-3.1726
X6.3648Y-4.5687
X6.4888Y-5.4167
X6.5518Y-3.0726
X6.5823Y-6.1648
X6.6758Y-3.9207
X6.7388Y-5.3167
X6.8323Y-6.0648
X6.8628Y-4.6687
X6.9258Y-3.8207
X7.0498Y-3.1726
X7.1128Y-4.5687
X7.2368Y-5.4167
X7.2998Y-3.0726
X7.4238Y-3.9207
X7.4868Y-5.3167
X7.6108Y-4.6687
X7.6738Y-3.8207
X7.7978Y-3.1726
X7.8608Y-4.5687
X7.9848Y-5.4167
X8.0478Y-3.0726
X8.1719Y-3.9207
X8.2348Y-5.3167
X8.3589Y-4.6687
X8.4219Y-3.8207
X8.5459Y-3.1726
X8.6089Y-4.5687
X8.7329Y-5.4167
X8.7959Y-3.0726
X8.9199Y-3.9207
X8.9829Y-5.3167
X9.1069Y-4.6687
X9.1699Y-3.8207
X9.2939Y-3.1726
X9.3569Y-4.5687
X9.3874Y-6.1648
X9.4809Y-5.4167
X9.5439Y-3.0726
X9.6374Y-6.0648
X9.6679Y-3.9207
X9.7309Y-5.3167
X9.8549Y-4.6687
X9.9179Y-3.8207
X10.0419Y-3.1726
X10.1049Y-4.5687
X10.2289Y-5.4167
X10.2919Y-3.0726
X10.3224Y-6.1648
X10.4159Y-3.9207
X10.4789Y-5.3167
X10.5724Y-6.0648
X10.603Y-4.6687
X10.6659Y-3.8207
X10.79Y-3.1726
X10.853Y-4.5687
X11.04Y-3.0726
X11.164Y-3.9207
X11.2575Y-6.1648
X11.351Y-4.6687
X11.414Y-3.8207
X11.5075Y-6.0648
X11.601Y-4.5687
X11.6315Y-5.4167
X11.8815Y-5.3167
X11.912Y-3.1726
X12.162Y-3.0726
X12.1925Y-4.2947
X12.4425Y-4.1947
X12.473Y-6.1648
X12.723Y-6.0648
X13.2211Y-3.1726
X13.2211Y-3.9207
X13.2211Y-5.4167
X13.2211Y-6.1648
X13.4711Y-3.0726
X13.4711Y-3.8207
X13.4711Y-5.3167
X13.4711Y-6.0648
X13.9691Y-3.1726
X13.9691Y-3.9207
X13.9691Y-6.1648
X14.2191Y-3.0726
X14.2191Y-3.8207
X14.2191Y-6.0648
X14.9041Y-3.1726
X14.9041Y-3.9207
X14.9041Y-4.6687
X14.9041Y-5.4167
X15.1541Y-3.0726
X15.1541Y-3.8207
X15.1541Y-4.5687
X15.1541Y-5.3167
X15.2781Y-6.1648
X15.5281Y-6.0648
X15.6522Y-3.1726
X15.6522Y-3.9207
X15.6522Y-4.6687
X15.6522Y-5.4167
X15.9022Y-3.0726
X15.9022Y-3.8207
X15.9022Y-4.5687
X15.9022Y-5.3167
X16.4002Y-3.1726
X16.4002Y-3.9207
X16.4002Y-4.6687
X16.4002Y-5.4167
X16.4002Y-6.1648
X16.6502Y-3.0726
X16.6502Y-3.8207
X16.6502Y-4.5687
X16.6502Y-5.3167
X16.6502Y-6.0648
X17.1482Y-3.1726
X17.1482Y-4.2947
X17.1482Y-5.7907
X17.3982Y-3.0726
X17.3982Y-4.1947
X17.3982Y-5.6907
T2
X14.4331Y-2.9764G85X14.4331Y-3.0748
G05
X14.7205Y-2.9764G85X14.7205Y-3.0748
G05
T0
M30
